<svg xmlns:dc="http://purl.org/dc/elements/1.1/" xmlns:cc="http://creativecommons.org/ns#" xmlns:rdf="http://www.w3.org/1999/02/22-rdf-syntax-ns#" xmlns:svg="http://www.w3.org/2000/svg" xmlns="http://www.w3.org/2000/svg" xmlns:sodipodi="http://sodipodi.sourceforge.net/DTD/sodipodi-0.dtd" xmlns:inkscape="http://www.inkscape.org/namespaces/inkscape" version="1.1" x="0px" y="0px" viewBox="0 0 100 100"> <g transform="translate(0,-952.36218)"><style>*{fill: #67544b}</style><path style="text-indent:0;text-transform:none;direction:ltr;block-progression:tb;baseline-shift:baseline;color:#000000;enable-background:accumulate;" d="M 48.9375,957.37028 C 37.871223,957.93545 29,967.16828 29,978.36839 c 0,5.8282 2.387043,11.12144 6.25,14.93616 -6.447047,3.06816 -12.138506,5.68681 -16.34375,8.15555 -2.491238,1.4623 -4.560796,2.9147 -6.15625,4.6245 -1.595454,1.7098 -2.75,3.8849 -2.75,6.2807 l 0,31.9972 a 3.0003,3.0000299 0 0 0 3,2.9997 l 74,0 a 3.0003,3.0000299 0 0 0 3,-2.9997 l 0,-31.9972 c 0,-2.3958 -1.154548,-4.5709 -2.75,-6.2807 -1.595452,-1.7098 -3.66501,-3.1621 -6.15625,-4.6245 -4.205245,-2.46876 -9.896702,-5.0874 -16.34375,-8.15555 3.862957,-3.81472 6.25,-9.10796 6.25,-14.93616 0,-11.56141 -9.437547,-20.99811 -21,-20.99811 -0.361327,0 -0.705523,-0.0182 -1.0625,0 z M 50,963.36974 c 8.31981,0 15,6.67959 15,14.99865 0,8.31905 -6.68019,14.99865 -15,14.99865 -8.319811,0 -15,-6.6796 -15,-14.99865 0,-8.31906 6.680189,-14.99865 15,-14.99865 z m -9.125,33.9032 c 0.05036,0.0245 0.105668,0.0384 0.15625,0.0625 0.164032,2.44553 0.961096,4.66647 2.3125,6.46817 0.142992,0.1906 0.310931,0.3815 0.46875,0.5625 l -4.78125,32.5595 a 3.0003,3.0000299 0 0 0 1.15625,2.8123 l 2.15625,1.6248 -26.34375,0 0,-28.9974 c 0,-0.5918 0.192201,-1.1876 1.125,-2.1873 0.932799,-0.9997 2.581136,-2.2209 4.8125,-3.5309 4.373801,-2.5676 10.999013,-5.5445 18.9375,-9.37416 z m 18.25,0 c 7.938481,3.82956 14.563701,6.80656 18.9375,9.37416 2.231363,1.31 3.879699,2.5312 4.8125,3.5309 0.932801,0.9997 1.125,1.5955 1.125,2.1873 l 0,28.9974 -26.34375,0 2.15625,-1.6248 a 3.0003,3.0000299 0 0 0 1.15625,-2.8123 l -4.78125,-32.5595 c 0.157819,-0.181 0.325758,-0.3719 0.46875,-0.5625 1.351404,-1.8017 2.148468,-4.02264 2.3125,-6.46817 0.05058,-0.0241 0.105889,-0.038 0.15625,-0.0625 z m -11.53125,1.96857 c 0.787012,0.0903 1.595963,0.12499 2.40625,0.12499 0.810287,0 1.619238,-0.0347 2.40625,-0.12499 -0.166244,0.37064 -0.35641,0.69389 -0.5625,0.96869 -0.646321,0.8616 -1.267799,1.1561 -1.84375,1.1561 -0.38244,0 -0.802216,-0.1292 -1.21875,-0.4687 a 3.0003,3.0000299 0 0 0 -0.15625,-0.125 c -0.158152,-0.1487 -0.30717,-0.347 -0.46875,-0.5624 -0.20609,-0.2748 -0.396256,-0.59805 -0.5625,-0.96869 z m 1.84375,8.09299 c 0.18883,0.015 0.370085,0.031 0.5625,0.031 0.192415,0 0.37367,-0.017 0.5625,-0.031 l 4.21875,28.685 -4.78125,3.5934 -4.78125,-3.5934 4.21875,-28.685 z" fill="#000000" fill-opacity="1" stroke="none" marker="none" visibility="visible" display="inline" overflow="visible"/></g></svg>