<svg xmlns="http://www.w3.org/2000/svg" xmlns:xlink="http://www.w3.org/1999/xlink" version="1.1" x="0px" y="0px" viewBox="0 0 100 100" enable-background="new 0 0 100 100" xml:space="preserve"><g><g><path fill="#000000" d="M77.989,76.945c-0.055-3.6-2.945-6.491-6.491-6.491c-3.6,0-6.491,2.891-6.491,6.491    c0,3.545,2.891,6.491,6.491,6.491C75.043,83.436,77.934,80.491,77.989,76.945z M71.498,91.618c-8.127,0-14.673-6.6-14.673-14.673    c0-8.127,6.545-14.673,14.673-14.673c8.073,0,14.618,6.545,14.673,14.673c0,2.564-0.655,4.964-1.855,7.036l4.036,4.036    c1.582,1.582,1.582,4.2,0,5.782s-4.2,1.582-5.782,0l-3.982-3.982C76.461,90.964,74.061,91.618,71.498,91.618z"/><path fill="#000000" d="M47.116,59.218c-1.309,0-2.4,0.927-2.564,2.345l-0.545,5.509v0.164v0.109l0.382,0.382h4.745    c2.236,0,4.091,1.855,4.091,4.091c0,2.236-1.855,4.091-4.091,4.091h-4.745c-4.745,0-8.564-3.873-8.564-8.564l0.055-1.036v-0.164    l0.545-5.509v-0.164c0.709-5.345,5.291-9.436,10.691-9.436h15.6c2.291,0,4.091,1.855,4.091,4.091c0,2.236-1.8,4.091-4.091,4.091    H47.116z"/><path fill="#000000" d="M58.243,36.145c0-2.127-1.745-3.873-3.873-3.873c-2.127,0-3.873,1.745-3.873,3.873    s1.745,3.873,3.873,3.873C56.552,40.018,58.243,38.273,58.243,36.145z M42.316,36.145c0-6.655,5.4-12.055,12.055-12.055    s12.055,5.4,12.055,12.055S61.025,48.2,54.37,48.2S42.316,42.8,42.316,36.145z"/><path fill="#000000" d="M30.861,13.182c-3.709,0-6.764,3.055-6.818,6.818v4.091h1.418c2.236,0,4.091,1.855,4.091,4.091    s-1.855,4.091-4.091,4.091h-1.418v13.636h1.418c2.236,0,4.091,1.855,4.091,4.091s-1.855,4.091-4.091,4.091h-1.418v13.636h1.418    c2.236,0,4.091,1.855,4.091,4.091c0,2.236-1.855,4.091-4.091,4.091h-1.418V80c0,1.855,0.764,3.545,2.018,4.8    c1.255,1.255,2.945,2.018,4.8,2.018h21.764c2.291,0,4.091,1.855,4.091,4.091c0,2.236-1.8,4.091-4.091,4.091H30.861    c-8.236,0-14.945-6.709-15-15v-4.091h-1.309c-2.291,0-4.091-1.855-4.091-4.091c0-2.236,1.8-4.091,4.091-4.091h1.309V54.091h-1.309    c-2.291,0-4.091-1.855-4.091-4.091s1.8-4.091,4.091-4.091h1.309V32.273h-1.309c-2.291,0-4.091-1.855-4.091-4.091    s1.8-4.091,4.091-4.091h1.309V20c0-8.345,6.764-15,15-15h43.636c4.145,0,7.964,1.691,10.636,4.364    c2.727,2.727,4.364,6.491,4.364,10.636v38.127c0,2.236-1.8,4.091-4.091,4.091c-2.236,0-4.091-1.855-4.091-4.091V20    c0-3.818-3-6.818-6.818-6.818H30.861z"/></g></g></svg>