<svg xmlns="http://www.w3.org/2000/svg" xmlns:xlink="http://www.w3.org/1999/xlink" version="1.1" x="0px" y="0px" viewBox="0 0 100 100" enable-background="new 0 0 100 100" xml:space="preserve"><g><g><path fill="#000000" d="M54.964,61.4c1.473,1.473,3.545,2.236,6.055,2.236c2.127,0,4.473-0.6,6.545-1.745l-3.436-3.436    L64.073,58.4l-0.655,0.382l-1.309,1.309c-0.764,0.764-1.8,1.2-2.891,1.2s-2.127-0.436-2.891-1.2L44.273,48.036    c-1.582-1.582-1.582-4.2,0-5.782l1.309-1.309l0.327-0.655v-0.055L42.473,36.8c-1.145,2.073-1.745,4.418-1.745,6.545    c0,2.509,0.764,4.582,2.236,6.055L54.964,61.4z M37.182,55.182c-3.273-3.273-4.636-7.636-4.636-11.836    c0-3.927,1.145-7.855,3.164-11.291c1.527-2.509,4.091-3.873,6.709-3.873c1.745,0,3.6,0.6,5.018,2.018l4.364,4.364    c1.582,1.582,2.345,3.709,2.291,5.727c0,1.636-0.436,3.218-1.364,4.636l6.655,6.655c1.418-0.873,3.055-1.309,4.691-1.364    c2.018,0,4.145,0.764,5.727,2.345l4.364,4.364c1.418,1.418,2.018,3.273,2.018,5.018c0,2.618-1.364,5.182-3.873,6.709    c-3.436,2.018-7.364,3.164-11.291,3.164c-4.2,0-8.564-1.364-11.836-4.636L37.182,55.182z"/><path fill="#000000" d="M25.455,24.091c2.236,0,4.091,1.855,4.091,4.091s-1.855,4.091-4.091,4.091h-1.364v13.636h1.364    c2.236,0,4.091,1.855,4.091,4.091s-1.855,4.091-4.091,4.091h-1.364v13.636h1.364c2.236,0,4.091,1.855,4.091,4.091    c0,2.236-1.855,4.091-4.091,4.091h-1.364V80c0,3.764,3.055,6.818,6.818,6.818h43.636c3.764,0,6.764-3.055,6.818-6.818V20    c-0.055-3.764-3.055-6.818-6.818-6.818H30.909c-3.764,0-6.818,3.055-6.818,6.818v4.091H25.455z M10.455,71.818    c0-2.236,1.8-4.091,4.091-4.091h1.364V54.091h-1.364c-2.291,0-4.091-1.855-4.091-4.091s1.8-4.091,4.091-4.091h1.364V32.273h-1.364    c-2.291,0-4.091-1.855-4.091-4.091s1.8-4.091,4.091-4.091h1.364V20c0-8.291,6.709-15,15-15h43.636c8.236,0,15,6.709,15,15v60    c0,8.291-6.764,15-15,15H30.909c-8.291,0-15-6.709-15-15v-4.091h-1.364C12.255,75.909,10.455,74.055,10.455,71.818z"/></g></g></svg>