<svg xmlns="http://www.w3.org/2000/svg" viewBox="4 2 45 45" x="0px" y="0px"><title>s</title><path d="M40.03906,18h-7v8h2V21.80237a9.29323,9.29323,0,1,1-15.21075,9.47876l.02917-.01233s-.0329-.2406-.11316-.62c2.85895-.706,8.01453-2.50372,10.33588-6.63043,3.29944-5.86542-.39783-14.205-.39783-14.205s-9.04675,1.1701-12.34619,7.03552a13.16662,13.16662,0,0,0-1.22784,8.02136,6.13929,6.13929,0,0,0-2.8446-.63824,11.997,11.997,0,0,0-4.3028.90692s.6,4.64124,3.60907,6.334a6.0521,6.0521,0,0,0,2.98468.70276,10.592,10.592,0,0,0,2.36639-.29028A11.29812,11.29812,0,1,0,36.02917,20h4.00989Zm-20.95972-.17053c2.01318-3.57886,6.82806-5.14117,9.31616-5.72858.78992,2.43152,1.95477,7.358-.05841,10.937-1.90656,3.38934-6.32349,4.96887-8.89856,5.62555-.00006-.01361-.002-.02673-.002-.04034a9.30828,9.30828,0,0,1,3.15137-6.97852l-1.32227-1.5a11.29636,11.29636,0,0,0-3.149,4.65375A11.48117,11.48117,0,0,1,19.07935,17.82947ZM13.5506,29.7298a5.79153,5.79153,0,0,1-2.22076-3.255,8.5985,8.5985,0,0,1,1.9339-.24274,4.06716,4.06716,0,0,1,2.00409.44592,4.30535,4.30535,0,0,1,1.55023,1.70679c.17468.62219.347,1.15454.49768,1.58038a8.32116,8.32116,0,0,1-1.761.21063A4.06715,4.06715,0,0,1,13.5506,29.7298Z"/></svg>
