<svg xmlns="http://www.w3.org/2000/svg" data-name="Camada 1" viewBox="0 0 100 100" x="0px" y="0px"><title>Economy</title><path d="M72.54091,41.81991v.326a2.89513,2.89513,0,0,1-2.88875,2.889h-.31478a2.90485,2.90485,0,0,1-2.90027-2.889v-.326a2.89762,2.89762,0,0,1,2.90027-2.889h.31478A2.888,2.888,0,0,1,72.54091,41.81991Z"/><path d="M89.99,34.7866c-.2,0-1.56-.01-2.59,0a25.1248,25.1248,0,0,0-5.37-6.1c-.47-.38-.7-.71-.73-2.08-.02-.76.03-1.59.07-2.48.19-3.67.45-8.71-4.1-11.35-2.55-1.48-5.78-1.35-8.83.36a24.33449,24.33449,0,0,0-7.13,6.18c-1.5-.27-2.88-.44995-4.2-.56a54.57077,54.57077,0,0,0-28.55,4.61l-.01-.03a33.131,33.131,0,0,0-17.85,21.3,5.7313,5.7313,0,0,0-3.05,1.48,5.5692,5.5692,0,0,0,1.46,9.13,29.69679,29.69679,0,0,0,.23,4.73,28.14747,28.14747,0,0,0,2.21,7.97,10.9835,10.9835,0,0,0-2.43.01,17.52985,17.52985,0,0,0-5.42.98,6.50789,6.50789,0,0,0-3.38,2.42L0,71.89658v12.35l.32.54c1.07,1.81,3.42,2.5,5.33,2.93a21.67274,21.67274,0,0,0,7.49.36,14.00846,14.00846,0,0,0,5.44-1.55,11.35836,11.35836,0,0,0,3.26,1.21,17.56982,17.56982,0,0,0,3.76.37H38.32a7.96666,7.96666,0,0,0,7.83-6.54H56.27a7.64132,7.64132,0,0,0,4.99,5.94,16.00354,16.00354,0,0,0,5.57.65l8.68-.03a9.04807,9.04807,0,0,0,5.22-1.19,6.95016,6.95016,0,0,0,2.68-4.07,20.54545,20.54545,0,0,0,.37-5.48,25.51892,25.51892,0,0,0,8.76-13.69,9.62414,9.62414,0,0,0,7.46-9.5v-9.36A9.73176,9.73176,0,0,0,89.99,34.7866Zm-73.66,47.82c-.71.43-2.42,1.11-5.91,1.11a21.67461,21.67461,0,0,1-2.29-.11,8.80052,8.80052,0,0,1-3.64-1v-9.07a8.80052,8.80052,0,0,1,3.64-1,21.67461,21.67461,0,0,1,2.29-.11,17.86251,17.86251,0,0,1,4.02.4,6.20213,6.20213,0,0,1,1.89.71Zm16.33,1s-5.26.04-5.91.05c-.65,0-1.31-.01-1.96-.05a10.29739,10.29739,0,0,1-3.73-.84,2.4,2.4,0,0,1-.23-.11v-22.72a8.79046,8.79046,0,0,1,3.63-1,21.43445,21.43445,0,0,1,2.29-.12006c3.5,0,5.21.69,5.91,1.12006Zm62.84-29.44a5.20756,5.20756,0,0,1-4.69,5.27l-.13.03a2.46528,2.46528,0,0,0-2.25,2.1,21.39172,21.39172,0,0,1-7.91,12.68006,3.0559,3.0559,0,0,0-1.26,2.65l.01.39a16.84551,16.84551,0,0,1-.23,4.49,2.48289,2.48289,0,0,1-.84,1.44,5.41673,5.41673,0,0,1-2.7.41l-8.7.04a12.22912,12.22912,0,0,1-4.03-.4,3.20727,3.20727,0,0,1-2.13-3.13,3.0771,3.0771,0,0,0-3.07-3.07H44.86a3.07066,3.07066,0,0,0-3.07,3.07,3.47183,3.47183,0,0,1-3.47,3.47H37.16v-25.31l-.33-.54c-.49-.8-2.66-3.43-10.08-3.43-.77,0-1.48.03-2.15.08a16.483,16.483,0,0,0-4.57.93,6.40789,6.40789,0,0,0-3.37,2.42l-.33.54v9.18a23.0721,23.0721,0,0,1-2.54-8.08c-.26-1.96-.06-7.8-.06-7.8l-2.08-.24c-.66-.07-1.3-.47-1.28-1.18a1.10991,1.10991,0,0,1,.37-.79,1.42727,1.42727,0,0,1,.95-.33h.04a2.70544,2.70544,0,0,0,3.05-2.32,28.935,28.935,0,0,1,15.75-19.37l.22-.11.00995-.00995a51.73683,51.73683,0,0,1,25.94-4.01,45.82611,45.82611,0,0,1,4.74.68,2.53267,2.53267,0,0,0,2.81-1.06,20.10407,20.10407,0,0,1,6.38995-5.78c.96-.56,2.81-1.32,4.37-.41,2.03,1.18,2.07,3.52,1.88,7.24-.05.92-.1,1.89-.07995,2.79a6.59844,6.59844,0,0,0,2.43,5.51,21.42914,21.42914,0,0,1,4.73,5.57,2.87048,2.87048,0,0,0,2.8,1.52c.63-.02,2.5-.01,3.19-.01a5.215,5.215,0,0,1,5.54,5.55S95.51,53.08658,95.5,54.1666Z"/></svg>
