<svg xmlns="http://www.w3.org/2000/svg" xmlns:xlink="http://www.w3.org/1999/xlink" version="1.1" x="0px" y="0px" viewBox="0 0 512 512" enable-background="new 0 0 512 512" xml:space="preserve"><path fill-rule="evenodd" clip-rule="evenodd" d="M496,256c-8.836,0-16-7.161-16-15.994v-47.982c0-17.665-14.328-31.988-32-31.988  h-96c-35.344,0-64-28.645-64-63.975V64.074c0-17.665-14.328-31.988-32-31.988c0,0-0.047-0.133-0.113-0.32  c-8.152,0.023-16.293,3.14-22.516,9.356L41.039,233.384c-12.496,12.487-12.496,32.745,0,45.232l192.332,192.263  c6.219,6.216,14.359,9.324,22.508,9.355c0.07-0.188,0.121-0.32,0.121-0.32c17.672,0,32-14.322,32-31.987v-31.988  c0-35.33,28.656-63.976,64-63.976h80c8.836,0,16,7.162,16,15.994c0,8.833-7.164,15.994-16,15.994h-80c-17.672,0-32,14.322-32,31.987  v31.988c0,35.33-28.652,63.976-64,63.976h3.48c-17.523,0.952-35.348-5.021-48.734-18.407L18.41,301.24  C5.914,288.745,0,272.373,0,256c0-16.373,5.914-32.745,18.41-45.24L210.746,18.505c13.383-13.377,31.207-19.359,48.727-18.407H256  c35.348,0,64,28.645,64,63.976v31.988c0,17.665,14.328,31.987,32,31.987h96c35.348,0,64,28.646,64,63.976v47.982  C512,248.839,504.836,256,496,256z M496,287.987c8.836,0,16,7.162,16,15.994c0,8.833-7.164,15.994-16,15.994s-16-7.161-16-15.994  C480,295.149,487.164,287.987,496,287.987z"/></svg>