<svg xmlns="http://www.w3.org/2000/svg" xmlns:xlink="http://www.w3.org/1999/xlink" xml:space="preserve" version="1.1" style="shape-rendering:geometricPrecision;text-rendering:geometricPrecision;image-rendering:optimizeQuality;" viewBox="0 0 333 333" x="0px" y="0px" fill-rule="evenodd" clip-rule="evenodd"><defs><style type="text/css">
   
    .fil0 {fill:black}
   
  </style></defs><g><path class="fil0" d="M50 128c21,0 39,17 39,39 0,21 -18,39 -39,39 -22,0 -40,-18 -40,-39 0,-22 18,-39 40,-39zm99 123l148 0c14,0 26,11 26,26l0 0c0,14 -12,26 -26,26l-148 0c-14,0 -26,-12 -26,-26l0 0c0,-15 12,-26 26,-26zm-99 -13c21,0 39,17 39,39 0,21 -18,39 -39,39 -22,0 -40,-18 -40,-39 0,-22 18,-39 40,-39zm99 -208l148 0c14,0 26,12 26,27l0 0c0,14 -12,26 -26,26l-148 0c-14,0 -26,-12 -26,-26l0 0c0,-15 12,-27 26,-27zm0 110l148 0c14,0 26,12 26,27l0 0c0,14 -12,26 -26,26l-148 0c-14,0 -26,-12 -26,-26l0 0c0,-15 12,-27 26,-27zm-99 -123c21,0 39,18 39,40 0,21 -18,39 -39,39 -22,0 -40,-18 -40,-39 0,-22 18,-40 40,-40z"/></g></svg>