<svg xmlns="http://www.w3.org/2000/svg" data-name="Layer 1" viewBox="0 0 100 100" x="0px" y="0px"><title>B__61</title><style>*{fill: #67544b}</style><path d="M93.27032,17.60394a5.47565,5.47565,0,0,0-1.59307-3.52252L85.9187,8.32294A5.47533,5.47533,0,0,0,82.39618,6.7298L55.63245,5.01105A5.47988,5.47988,0,0,0,51.408,6.60449L6.60187,51.41064a5.48542,5.48542,0,0,0,.00067,7.74866L40.84082,93.39758a5.48549,5.48549,0,0,0,7.74866.00074L93.39569,48.59216a5.47969,5.47969,0,0,0,1.59308-4.22552ZM89.86005,45.05652,45.05389,89.86267a.47951.47951,0,0,1-.67743-.00067L10.13818,55.62372a.47946.47946,0,0,1-.00073-.67743L54.9436,10.14008a.48079.48079,0,0,1,.36878-.13947l26.76239,1.71881a.47936.47936,0,0,1,.30829.1391l5.75854,5.75855a.48167.48167,0,0,1,.13947.308l1.71814,26.76166A.48022.48022,0,0,1,89.86005,45.05652ZM78.01221,21.99139a10.11541,10.11541,0,1,0,2.9635,7.15308A10.12779,10.12779,0,0,0,78.01221,21.99139ZM74.47693,32.76227A5.11649,5.11649,0,1,1,75.9751,29.1441,5.12177,5.12177,0,0,1,74.47693,32.76227Z"/></svg>