<svg  xmlns="http://www.w3.org/2000/svg" data-name="Слой 1" viewBox="0 0 100 100" ><style>*{fill: #f6f6f6}*{opacity: .5}</style><title>ico</title><circle cx="50" cy="50.71" r="0.67"/><path d="M50,48a2.71,2.71,0,1,0,2.71,2.71A2.71,2.71,0,0,0,50,48Zm0,4.42a1.71,1.71,0,1,1,1.71-1.71A1.71,1.71,0,0,1,50,52.42Z"/><path d="M50,46.37a4.34,4.34,0,1,0,4.34,4.34A4.34,4.34,0,0,0,50,46.37ZM50,54a3.34,3.34,0,1,1,3.34-3.34A3.34,3.34,0,0,1,50,54Z"/><path d="M50,44.08a6.62,6.62,0,1,0,6.62,6.62A6.63,6.63,0,0,0,50,44.08Zm0,12.24a5.62,5.62,0,1,1,5.62-5.62A5.63,5.63,0,0,1,50,56.33Z"/><path d="M50,42.32a8.39,8.39,0,1,0,8.39,8.39A8.4,8.4,0,0,0,50,42.32Zm0,15.78a7.39,7.39,0,1,1,7.39-7.39A7.39,7.39,0,0,1,50,58.09Z"/><path d="M50,40.8a9.9,9.9,0,1,0,9.9,9.9A9.91,9.91,0,0,0,50,40.8Zm0,18.81a8.9,8.9,0,1,1,8.9-8.9A8.91,8.91,0,0,1,50,59.61Z"/><path d="M50,38.83A11.87,11.87,0,1,0,61.88,50.71,11.89,11.89,0,0,0,50,38.83Zm0,22.74A10.87,10.87,0,1,1,60.88,50.71,10.88,10.88,0,0,1,50,61.58Z"/><path d="M63.75,38.15l-2.88-2.69a.5.5,0,0,0-.34-.13h-3.2a.5.5,0,0,0-.43.24L56,37H44l-.85-1.41a.5.5,0,0,0-.43-.24h-3.2a.5.5,0,0,0-.34.13l-2.88,2.69a.5.5,0,0,0-.16.37v24a.5.5,0,0,0,.15.36L38,64.53a.5.5,0,0,0,.35.14h0a.5.5,0,0,0,.35-.17l1.18-1.32h2.32l.45,1.17a.5.5,0,0,0,.47.32H56.91a.5.5,0,0,0,.47-.32l.45-1.17h2.32l.21.24h0l1,1.09a.5.5,0,0,0,.35.17.52.52,0,0,0,.37-.14l1.71-1.65a.5.5,0,0,0,.15-.36v-24A.5.5,0,0,0,63.75,38.15Zm-7.1,25.29-.46.23H56l.74-.37Zm-3.81.23H47.15A13.3,13.3,0,0,1,37.09,53.8V47.63A13.23,13.23,0,0,1,46.25,38h7.5a13.24,13.24,0,0,1,9.16,9.65V53.8A13.31,13.31,0,0,1,52.84,63.67Zm-10.24-27,.65,1.07a.49.49,0,0,0,.35.22,14.25,14.25,0,0,0-6.5,6.66V41.44A16,16,0,0,1,42.6,36.67Zm14.8,0a15.88,15.88,0,0,1,5.51,4.78v3.17A14.25,14.25,0,0,0,56.41,38a.49.49,0,0,0,.35-.22Zm5.51,2.07v1.09a16.92,16.92,0,0,0-4.06-3.49h1.47ZM39.67,36.33h1.47a17,17,0,0,0-4.06,3.49V38.74Zm-1.4,27.13-1.18-1.14v-.74a16.92,16.92,0,0,0,1.48,1.55Zm1.36-1.27a.5.5,0,0,0-.37.17l0,0A15.94,15.94,0,0,1,37.09,60V56.8a14.36,14.36,0,0,0,4.42,5.38Zm3.66,1.12.74.37h-.6Zm15.19-1.12a14.37,14.37,0,0,0,4.42-5.39V60a15.87,15.87,0,0,1-2.15,2.4l0,0a.5.5,0,0,0-.37-.17Zm3.24,1.27-.3-.34a16.85,16.85,0,0,0,1.49-1.56v.75Z"/></svg>