<svg xmlns="http://www.w3.org/2000/svg" xmlns:xlink="http://www.w3.org/1999/xlink" version="1.1" x="0px" y="0px" viewBox="0 0 100 125" enable-background="new 0 0 100 100" xml:space="preserve"><g><path d="M83.108,60.068c-2.195-2.195-5.113-3.404-8.218-3.404s-6.023,1.209-8.218,3.404l-3.756,3.757   c-1.948,1.947-5.029,2.194-7.326,0.587c-3.844-2.688-7.502-5.76-10.872-9.13c-3.368-3.368-6.44-7.026-9.13-10.871   c-1.607-2.298-1.359-5.38,0.588-7.327l3.756-3.756c2.195-2.195,3.404-5.114,3.404-8.218c0-3.104-1.209-6.023-3.404-8.219   l-8.488-8.487c-4.53-4.53-11.904-4.53-16.436,0l-3.869,3.869c-4.654,4.653-6.868,11.185-5.921,17.472   c1.332,8.843,4.623,17.88,9.516,26.13c3.515,5.959,7.839,11.522,12.854,16.537c5.017,5.018,10.581,9.342,16.534,12.853   c8.256,4.896,17.293,8.188,26.135,9.519c0.958,0.145,1.921,0.215,2.883,0.215c5.349,0,10.643-2.191,14.588-6.137l3.869-3.869   C93.791,82.797,95,79.879,95,76.774s-1.209-6.023-3.404-8.218L83.108,60.068z M89.475,82.871l-3.869,3.869   c-3.984,3.983-9.555,5.883-14.904,5.076c-8.462-1.274-17.125-4.432-25.054-9.134c-5.738-3.384-11.101-7.553-15.94-12.392   c-4.836-4.836-9.005-10.198-12.394-15.942c-4.699-7.924-7.856-16.586-9.131-25.051c-0.806-5.349,1.092-10.92,5.076-14.903   l3.869-3.869C18.758,8.896,20.923,8,23.226,8c2.303,0,4.468,0.896,6.097,2.525l8.488,8.487c1.628,1.629,2.525,3.794,2.525,6.098   c0,2.303-0.897,4.468-2.525,6.097l-3.756,3.756c-2.979,2.979-3.367,7.675-0.925,11.167c2.79,3.989,5.976,7.782,9.467,11.273   c3.493,3.493,7.286,6.679,11.273,9.468c3.491,2.441,8.187,2.054,11.167-0.925l3.756-3.757c1.629-1.629,3.794-2.525,6.097-2.525   s4.468,0.896,6.097,2.525l8.488,8.488C91.103,72.306,92,74.471,92,76.774C92,79.077,91.103,81.242,89.475,82.871z"/></g></svg>
