<svg xmlns="http://www.w3.org/2000/svg" viewBox="0 0 48 48" x="0px" y="0px"><title>ui vol.1</title><g data-name="Layer 25"><path d="M19.12305,3.28613a.99943.99943,0,0,0-1-1H2.8623a.99943.99943,0,0,0-1,1v16.2334a1,1,0,0,0,2,0V4.28613H18.12305A.99942.99942,0,0,0,19.12305,3.28613Z"/><path d="M45.1377,27.48047a.99942.99942,0,0,0-1,1v15.2334H29.877a1,1,0,0,0,0,2H45.1377a.99943.99943,0,0,0,1-1V28.48047A.99942.99942,0,0,0,45.1377,27.48047Z"/><path d="M31.27148,24.55566a1,1,0,0,0,0-2H24.38281V15.666a1,1,0,1,0-2,0v6.88964H15.49316a1,1,0,0,0,0,2h6.88965v6.88965a1,1,0,0,0,2,0V24.55566Z"/></g></svg>
