<svg xmlns="http://www.w3.org/2000/svg" xmlns:xlink="http://www.w3.org/1999/xlink" version="1.1" x="0px" y="0px" viewBox="0 0 100 100" enable-background="new 0 0 100 100" xml:space="preserve"><g><path d="M18.17212,67.32404h8.83496l26.07373,21.49951c0.73096,0.60205,1.63379,0.91357,2.54541,0.91357   c0.5791,0,1.16162-0.12549,1.70557-0.38184c1.40039-0.66064,2.29395-2.06982,2.29395-3.61816V14.263   c0-1.54834-0.89355-2.95752-2.29395-3.61816c-1.40039-0.66016-3.05566-0.45312-4.25098,0.53223L26.98267,32.69611h-8.81055   c-7.15332,0-12.97314,5.81982-12.97314,12.97314v8.68115C5.19897,61.50422,11.0188,67.32404,18.17212,67.32404z M13.19897,45.66925   c0-2.74219,2.23096-4.97314,4.97314-4.97314h10.24707c0.92871,0,1.82812-0.32324,2.54492-0.91406l20.66162-17.03662V77.2547   L30.96411,60.21808c-0.72754-0.6001-1.62549-0.90771-2.53271-0.90771c-0.10938,0-0.21875,0.00488-0.32812,0.01367h-9.93115   c-2.74219,0-4.97314-2.23096-4.97314-4.97363V45.66925z"/><path d="M82.71899,77.0545c0.69531,0.48242,1.48975,0.71387,2.27686,0.71387c1.2666,0,2.51318-0.60059,3.29004-1.72021   c4.26221-6.14307,6.51514-14.89111,6.51514-25.29882S92.5481,31.59357,88.28589,25.4505   c-1.26074-1.81494-3.75244-2.26611-5.56689-1.00635c-1.81494,1.25977-2.26562,3.75195-1.00635,5.56689   c3.28125,4.72901,5.08838,12.09375,5.08838,20.73828s-1.80713,16.00927-5.08838,20.73828   C80.45337,73.30255,80.90405,75.79474,82.71899,77.0545z"/><path d="M69.83472,69.60187c0.54248,0.25049,1.1123,0.36914,1.67334,0.36914c1.51172,0,2.95947-0.86182,3.63428-2.32471   c2.05078-4.44433,3.18018-10.44482,3.18018-16.89697c0-6.45166-1.12939-12.45215-3.18018-16.89648   c-0.92578-2.00586-3.30273-2.88086-5.30762-1.95606c-2.00586,0.92529-2.88184,3.30176-1.95605,5.30762   c1.55322,3.36621,2.44385,8.30322,2.44385,13.54492c0,5.24219-0.89062,10.1792-2.44385,13.54492   C66.95288,66.30011,67.82886,68.67609,69.83472,69.60187z"/></g></svg>