<svg xmlns:dc="http://purl.org/dc/elements/1.1/" xmlns:cc="http://creativecommons.org/ns#" xmlns:rdf="http://www.w3.org/1999/02/22-rdf-syntax-ns#" xmlns:svg="http://www.w3.org/2000/svg" xmlns="http://www.w3.org/2000/svg" xmlns:sodipodi="http://sodipodi.sourceforge.net/DTD/sodipodi-0.dtd" xmlns:inkscape="http://www.inkscape.org/namespaces/inkscape" viewBox="0 0 18 18" version="1.1" x="0px" y="0px"><g transform="translate(0,-280.06664)"><path style="color:#000000;font-style:normal;font-variant:normal;font-weight:normal;font-stretch:normal;font-size:medium;line-height:normal;font-family:sans-serif;font-variant-ligatures:normal;font-variant-position:normal;font-variant-caps:normal;font-variant-numeric:normal;font-variant-alternates:normal;font-feature-settings:normal;text-indent:0;text-align:start;text-decoration:none;text-decoration-line:none;text-decoration-style:solid;text-decoration-color:#000000;letter-spacing:normal;word-spacing:normal;text-transform:none;writing-mode:lr-tb;direction:ltr;text-orientation:mixed;dominant-baseline:auto;baseline-shift:baseline;text-anchor:start;white-space:normal;shape-padding:0;clip-rule:nonzero;display:inline;overflow:visible;visibility:visible;opacity:1;isolation:auto;mix-blend-mode:normal;color-interpolation:sRGB;color-interpolation-filters:linearRGB;solid-color:#000000;solid-opacity:1;vector-effect:none;fill:#000000;fill-opacity:1;fill-rule:nonzero;stroke:none;stroke-width:1.0583334;stroke-linecap:round;stroke-linejoin:round;stroke-miterlimit:4;stroke-dasharray:none;stroke-dashoffset:0;stroke-opacity:1;paint-order:stroke fill markers;color-rendering:auto;image-rendering:auto;shape-rendering:auto;text-rendering:auto;enable-background:accumulate" d="m 9.5253906,281.6543 c -2.0076383,3.4e-4 -3.914827,0.87981 -5.2207031,2.40429 a 0.52921962,0.52921962 0 1 0 0.8027344,0.6875 c 1.1054517,-1.29051 2.7190268,-2.03291 4.4179687,-2.0332 3.2209134,-5.7e-4 5.8203114,2.59929 5.8203124,5.82031 -1e-6,3.22103 -2.59965,5.82215 -5.8203124,5.82032 -1.6977974,-8.8e-4 -3.3098016,-0.74631 -4.4140625,-2.03711 a 0.52982622,0.52982622 0 1 0 -0.8046875,0.68945 c 1.3042598,1.52459 3.2114958,2.40521 5.21875,2.40625 3.7933554,0.002 6.8789054,-3.08591 6.8789064,-6.87891 -1e-6,-3.79299 -3.085802,-6.87957 -6.8789064,-6.8789 z"/><path style="color:#000000;font-style:normal;font-variant:normal;font-weight:normal;font-stretch:normal;font-size:medium;line-height:normal;font-family:sans-serif;font-variant-ligatures:normal;font-variant-position:normal;font-variant-caps:normal;font-variant-numeric:normal;font-variant-alternates:normal;font-feature-settings:normal;text-indent:0;text-align:start;text-decoration:none;text-decoration-line:none;text-decoration-style:solid;text-decoration-color:#000000;letter-spacing:normal;word-spacing:normal;text-transform:none;writing-mode:lr-tb;direction:ltr;text-orientation:mixed;dominant-baseline:auto;baseline-shift:baseline;text-anchor:start;white-space:normal;shape-padding:0;clip-rule:nonzero;display:inline;overflow:visible;visibility:visible;opacity:1;isolation:auto;mix-blend-mode:normal;color-interpolation:sRGB;color-interpolation-filters:linearRGB;solid-color:#000000;solid-opacity:1;vector-effect:none;fill:#000000;fill-opacity:1;fill-rule:nonzero;stroke:none;stroke-width:4;stroke-linecap:round;stroke-linejoin:round;stroke-miterlimit:4;stroke-dasharray:none;stroke-dashoffset:0;stroke-opacity:1;paint-order:stroke fill markers;color-rendering:auto;image-rendering:auto;shape-rendering:auto;text-rendering:auto;enable-background:accumulate" d="M 36.001953 12.001953 C 28.62422 12.001953 22.17504 16.033187 18.707031 21.998047 L 10.001953 21.998047 C 7.3346404 21.998047 7.3346404 25.998047 10.001953 25.998047 L 16.921875 25.998047 C 16.516491 27.281614 16.233614 28.620296 16.095703 30 L 4.0019531 30 C 1.3346404 30 1.3346404 34 4.0019531 34 L 16.095703 34 C 16.233677 35.380334 16.51619 36.717849 16.921875 38.001953 L 10.001953 38.001953 C 7.3346158 38.001953 7.3346158 42.001953 10.001953 42.001953 L 18.708984 42.001953 C 22.177321 47.965545 28.625178 51.998047 36.001953 51.998047 C 47.02396 51.998047 55.998047 43.022009 55.998047 32 C 55.998047 20.977991 47.02396 12.001953 36.001953 12.001953 z M 36.001953 16.003906 C 44.862199 16.003906 51.998047 23.139767 51.998047 32 C 51.998047 40.860271 44.862199 48.003906 36.001953 48.003906 C 27.141708 48.003906 19.998047 40.860271 19.998047 32 C 19.998047 23.139767 27.141708 16.003906 36.001953 16.003906 z " transform="matrix(0.26458334,0,0,0.26458334,0,280.06664)"/><path style="color:#000000;font-style:normal;font-variant:normal;font-weight:normal;font-stretch:normal;font-size:medium;line-height:normal;font-family:sans-serif;font-variant-ligatures:normal;font-variant-position:normal;font-variant-caps:normal;font-variant-numeric:normal;font-variant-alternates:normal;font-feature-settings:normal;text-indent:0;text-align:start;text-decoration:none;text-decoration-line:none;text-decoration-style:solid;text-decoration-color:#000000;letter-spacing:normal;word-spacing:normal;text-transform:none;writing-mode:lr-tb;direction:ltr;text-orientation:mixed;dominant-baseline:auto;baseline-shift:baseline;text-anchor:start;white-space:normal;shape-padding:0;clip-rule:nonzero;display:inline;overflow:visible;visibility:visible;opacity:1;isolation:auto;mix-blend-mode:normal;color-interpolation:sRGB;color-interpolation-filters:linearRGB;solid-color:#000000;solid-opacity:1;vector-effect:none;fill:#000000;fill-opacity:1;fill-rule:nonzero;stroke:none;stroke-width:1.0583334;stroke-linecap:round;stroke-linejoin:round;stroke-miterlimit:4;stroke-dasharray:none;stroke-dashoffset:0;stroke-opacity:1;color-rendering:auto;image-rendering:auto;shape-rendering:auto;text-rendering:auto;enable-background:accumulate" d="m 9.5175781,285.35156 a 0.52921962,0.52921962 0 0 0 -0.5214843,0.53516 v 2.64648 a 0.52921962,0.52921962 0 0 0 0.1542968,0.375 l 2.1171874,2.11524 a 0.52921962,0.52921962 0 1 0 0.748047,-0.74805 l -1.960937,-1.96094 v -2.42773 a 0.52921962,0.52921962 0 0 0 -0.5371099,-0.53516 z"/></g></svg>