<svg xmlns="http://www.w3.org/2000/svg" xmlns:xlink="http://www.w3.org/1999/xlink" version="1.1" x="0px" y="0px" viewBox="0 0 100 100" enable-background="new 0 0 100 100" xml:space="preserve"><path d="M79.464,54.776h-3.35v-2.367c0-0.273,0.161-0.457,0.91-1.034c0.86-0.665,2.161-1.668,2.161-3.598  c0-4.448-3.618-8.066-8.064-8.066c-4.448,0-8.066,3.618-8.066,8.066c0,1.931,1.303,2.933,2.164,3.596  c0.75,0.576,0.912,0.76,0.912,1.034v2.369H53.795c-0.033-0.041-0.063-0.084-0.1-0.121L32.104,33.061  c-0.586-0.586-1.535-0.585-2.121-0.001l-3.573,3.57l-2.902-2.902c-0.586-0.586-1.535-0.586-2.121,0  c-0.586,0.585-0.586,1.535,0,2.121l3.963,3.963l1.55,1.551c0.004,0.003,0.005,0.008,0.008,0.011  c2.585,2.585,3.806,5.155,3.628,7.641c-0.208,2.898-2.277,5.02-3.11,5.763h-6.888c-2.279,0-4.133,1.854-4.133,4.133v19.225  c0,0.828,0.672,1.5,1.5,1.5h64.191c0.828,0,1.5-0.672,1.5-1.5V58.909C83.596,56.63,81.742,54.776,79.464,54.776z M66.055,47.777  c0-2.794,2.272-5.066,5.066-5.066c2.793,0,5.064,2.272,5.064,5.066c0,0.399-0.212,0.618-0.994,1.222  c-0.028,0.022-0.259,0.147-0.339,0.199c-1.856,1.216-5.64,1.217-7.498,0.001c-0.043-0.028-0.252-0.162-0.307-0.204  C66.267,48.394,66.055,48.175,66.055,47.777z M73.114,52.932v1.845h-3.983v-1.838c0.646,0.107,1.306,0.181,1.973,0.181  C71.784,53.119,72.456,53.043,73.114,52.932z M28.532,38.751l2.511-2.509l18.531,18.534h-5.02l-1.289-1.289L28.532,38.751z   M40.313,54.776h-8.884c0.989-1.383,1.926-3.249,2.096-5.514c0.031-0.421,0.035-0.842,0.013-1.263L40.313,54.776z M80.596,70.571  H67.931c-0.828,0-1.5,0.672-1.5,1.5s0.672,1.5,1.5,1.5h12.665v3.063H19.404v-3.063h36.204c0.828,0,1.5-0.672,1.5-1.5  s-0.672-1.5-1.5-1.5H19.404V58.909c0-0.625,0.508-1.133,1.133-1.133h58.927c0.624,0,1.132,0.508,1.132,1.133V70.571z M52.224,46.525  c0.327,0,0.656-0.106,0.932-0.325c0.648-0.516,0.757-1.459,0.242-2.107c-5.68-7.154-5.59-13.688-3.613-17.416  c1.129-2.131,2.941-3.417,4.621-3.301c1.352,0.102,2.643,1.176,2.479,3.348c-0.195,2.584-2.69,3.229-2.963,3.291  c-0.811,0.174-1.327,0.971-1.154,1.78c0.172,0.81,0.966,1.325,1.779,1.155c1.714-0.365,5.034-2.09,5.33-6.002  c0.302-4.027-2.411-6.351-5.247-6.564c-2.907-0.225-5.782,1.654-7.496,4.887c-2.422,4.566-2.665,12.4,3.914,20.688  C51.344,46.331,51.781,46.525,52.224,46.525z M42.462,35.788c0.217,0,0.437-0.048,0.646-0.147c0.747-0.356,1.064-1.252,0.707-1.999  c-1.93-4.045-1.517-7.219-1.099-8.751c0.218-0.8-0.253-1.624-1.053-1.843c-0.796-0.217-1.624,0.253-1.842,1.053  c-0.527,1.934-1.062,5.913,1.286,10.832C41.364,35.472,41.902,35.788,42.462,35.788z"/></svg>