<svg xmlns="http://www.w3.org/2000/svg" xmlns:xlink="http://www.w3.org/1999/xlink" version="1.1" x="0px" y="0px" viewBox="0 0 100 100" enable-background="new 0 0 100 100" xml:space="preserve"><style>*{fill: #67544b}</style><path d="M5,95h28V5H5V95z M7,47.208C9,52.125,14.002,66,10.681,93H7V47.208z M19.999,60.639c-0.336-5.708-2.663-10.802-4.914-15.729  c-2.543-5.568-4.945-10.826-4.338-16.523C11.567,20.701,11.024,10,10.818,7h3.448c-0.455,4-1.886,20.599,1.404,26.82  c0.126,0.237,0.291,0.532,0.488,0.881c2.351,4.185,9.503,16.919,5.684,35.827C19.974,79.784,19.656,90,19.604,93h-1.2  C18.875,89,20.611,71.022,19.999,60.639z M18.86,22.94c0.044,0.013,0.104,0.024,0.175,0.024c0.121,0,0.274-0.034,0.432-0.161  C20.679,21.823,22.816,11,23,7h3.39c-0.019,2-0.061,7.773-0.057,11.335c0.003,2.265,0.311,5.231,0.666,8.666  c0.951,9.192,2.254,21.783-0.127,36.923C24.284,80.383,24.562,90,24.76,93h-4.156c0.052-3,0.369-13.113,2.219-22.274  c3.893-19.271-3.397-32.249-5.793-36.513c-0.191-0.342-0.353-0.628-0.475-0.859C13.413,27.412,14.852,11,15.274,7h1.636  C17.554,23,18.5,22.835,18.86,22.94z M17.912,7h4.092c-0.136,4-1.923,12.323-2.888,14.542C18.657,19.587,18.176,13,17.912,7z M31,93  h-5.239c-0.193-3-0.502-12.38,2.099-28.921c2.4-15.27,1.09-27.934,0.133-37.181c-0.353-3.408-0.657-6.351-0.66-8.565  C27.328,14.77,27.371,9,27.39,7H31V93z M9.816,7c0.202,3,0.754,13.62-0.063,21.281c-0.637,5.968,1.82,11.348,4.423,17.043  c2.212,4.844,4.5,9.852,4.825,15.373C19.614,71.094,17.849,89,17.398,93h-5.711C15.477,62,9,48.437,7,45.144V7H9.816z"/><path d="M36,95h28V5H36V95z M44.812,7h3.953c0.243,3,1.401,18.148,1.401,21.834c0,3.945,1.648,22.253,4.389,27.563  c2.632,5.097,3.214,21.163,1.624,28.206C55.028,89.7,54.667,92,54.553,93H51.09c0.325-2,0.743-3.135,1.487-4.631  c0.154-0.312,0.321-0.65,0.504-1.032c1.466-3.041,1.277-10.092,1.038-19.018L54.1,67.626c-0.171-6.144-1.403-9.807-2.304-12.481  c-0.43-1.277-0.801-2.381-0.951-3.436c-0.104-0.729-0.254-1.982-0.429-3.45c-1.332-11.161-1.592-11.14-2.234-11.161  c-0.59,0.004-0.67,0.746-0.729,1.288c-0.166,1.538-0.218,4.166-0.278,7.209c-0.115,5.809-0.259,13.037-1.273,16.38  c-1.452,4.813-1.51,6.661-1.683,12.149l-0.049,1.528c-0.093,2.78,0.884,9.927,2.01,12.064c0.44,0.819,0.89,2.282,1.26,5.282h-2.635  c-0.087-1-0.443-4.003-1.915-8.256c-1.801-5.202-1.932-15.641-0.28-22.119c1.366-5.36,1.922-17.109,2.328-25.687  c0.079-1.679,0.151-3.214,0.223-4.531C45.626,23.777,45.734,19,44.812,7z M50.082,93h-1.634c-0.274-2-0.741-4.552-1.386-5.752  c-1.041-1.978-1.98-8.941-1.893-11.561l0.049-1.53c0.169-5.391,0.226-7.206,1.64-11.892c1.055-3.475,1.2-10.779,1.316-16.649  c0.042-2.136,0.08-4.065,0.156-5.541c0.379,2.33,0.815,5.991,1.092,8.304c0.177,1.477,0.327,2.737,0.432,3.472  c0.163,1.146,0.548,2.289,0.994,3.613c0.929,2.761,2.085,6.196,2.251,12.189l0.019,0.692c0.227,8.443,0.422,15.734-0.939,18.559  c-0.181,0.378-0.347,0.713-0.499,1.021C50.9,89.497,50.434,90,50.082,93z M55.558,93c0.119-1,0.483-3.245,1.596-8.177  c1.659-7.35,1.056-23.529-1.71-28.885c-2.671-5.174-4.277-23.208-4.277-27.104C51.167,25.092,50.03,10,49.768,7h7.267  C56.868,10,56.239,19.737,56,26.232c-0.438,11.928,1.471,19.09,3.371,26.018C60.418,56.073,61,59.737,62,64.119V93H55.558z   M62,58.711c0-2.354-1.072-4.56-1.666-6.724c-1.879-6.855-3.795-13.942-3.362-25.717C57.213,19.736,57.876,10,58.037,7H62V58.711z   M38,7h5.809c0.928,12,0.826,16.58,0.353,25.373c-0.071,1.319-0.145,2.884-0.224,4.565c-0.403,8.535-0.957,20.274-2.298,25.536  c-1.69,6.633-1.549,17.243,0.304,22.595C43.22,88.755,43.634,92,43.768,93H38V7z M49.593,67.147  c-0.207-0.021-0.504,0.011-0.801,0.295c-1.382,1.322-1.596,8.028-1.49,9.605c0.026,0.397,0.042,0.948,0.061,1.572  c0.092,3.2,0.227,5.702,1.027,6.379c0.167,0.141,0.358,0.214,0.562,0.214c0.04,0,0.08-0.003,0.121-0.009  c1.876-0.262,2.693-4.393,2.834-8.171C51.909,76.931,51.979,67.412,49.593,67.147z M50.906,76.996  c-0.171,4.617-1.216,6.977-1.908,7.203c-0.491-0.563-0.593-4.083-0.637-5.607c-0.019-0.64-0.034-1.203-0.062-1.61  c-0.177-2.647,0.43-8.47,1.182-8.84C50.271,68.311,51.028,73.724,50.906,76.996z"/><path d="M67,5v90h28V5H67z M87.998,93h-4.385c-0.083-2-0.347-11.96,0.249-17.949c0.651-6.533-0.277-11.862-1.175-17.014  c-0.936-5.366-1.818-10.434-0.743-16.259c0.451-2.445,1.061-4.841,1.705-7.377C85.736,26.196,87.879,18,84.732,7h3.043  c0.815,3,3.24,13.114,1.398,25.386c-0.269,1.788-0.68,3.662-1.114,5.644c-1.537,7.009-3.449,15.731-0.644,28.194  C89.679,76.278,88.409,89,87.998,93z M83.693,7c3.192,11,1.058,19.008-1.014,27.153c-0.649,2.554-1.263,4.964-1.72,7.443  c-1.107,6.001-0.21,11.155,0.741,16.611c0.887,5.087,1.803,10.347,1.166,16.744C82.267,80.971,82.528,90,82.612,93h-0.437  c-0.372-2-1.058-6.406-0.745-16.777c0.23-7.655-2.185-15.135-4.52-22.398c-2.033-6.321-3.953-12.232-3.907-17.699  c0.063-7.482,1.527-13.302,2.819-18.543C76.815,13.556,77.673,10,77.673,7h-1c0,3-0.844,6.38-1.821,10.343  c-1.306,5.295-2.785,11.054-2.849,18.653c-0.047,5.628,1.896,11.673,3.955,18.073c2.31,7.183,4.697,14.61,4.472,22.094  C80.126,86.251,80.747,91,81.153,93h-3.084c-0.431-4-0.423-7.566-0.395-11.183c0.053-6.704,0.231-13.637-2.643-21.305  C72.733,54.379,70,44.678,69,40.605v-12.51C74,15.19,74,7,74,7h-1c0,0,0,7.116-4,18.436V7H83.693z M69,44.318  c1,4.779,3.296,11.742,5.096,16.545c2.809,7.494,2.694,14.029,2.641,20.946C76.709,85.422,76.639,89,77.063,93h-4.056  C73.143,76,70,68.598,69,66.352V44.318z M69,68.619C70,71.933,72.115,79,72.008,93H69V68.619z M89.004,93  c0.43-4,1.659-16.905-0.614-26.995c-2.757-12.247-0.871-20.849,0.645-27.76c0.438-2,0.853-3.889,1.126-5.71  C91.975,20.449,89.708,10,88.811,7H93v28.233c0,1.818-0.816,3.771-1.348,5.782c-1.19,4.499-2.512,9.623-2.512,14.633  c0,4.323,0.949,8.342,1.995,12.544C91.85,71.062,93,74.05,93,77.288V93H89.004z M93,39.585v32.289c0-1.342-0.564-2.65-0.881-3.924  c-1.031-4.141-1.979-8.152-1.979-12.352c0-4.881,1.29-9.913,2.465-14.354C92.753,40.686,93,40.134,93,39.585z M75.001,34.86  c0.42,7.551,1.237,8.229,1.971,8.271c0.032,0.002,0.067,0.004,0.104,0.004c0.547,0,1.57-0.44,2.917-8.218  c0.042-0.245,3.77-24.691,1.122-25.445c-0.796-0.227-1.404,0.836-2.076,2.501C78.892,12.314,74.342,23.014,75.001,34.86z   M79.958,12.367l0.006-0.013c0.439-1.09,0.73-1.567,0.891-1.774c0.808,2.155-0.537,16.599-1.847,24.168  c-0.969,5.597-1.72,6.979-1.975,7.306c-0.222-0.356-0.729-1.762-1.034-7.248C75.347,23.07,79.912,12.473,79.958,12.367z"/></svg>