<?xml version="1.0" standalone="no"?>
<!DOCTYPE svg PUBLIC "-//W3C//DTD SVG 1.1//EN" "http://www.w3.org/Graphics/SVG/1.1/DTD/svg11.dtd" >
<svg xmlns="http://www.w3.org/2000/svg" xmlns:xlink="http://www.w3.org/1999/xlink" version="1.1">
<metadata>
Created by FontForge 20170731 at Fri May 25 17:41:07 2018
 By Aleksey,,,
(c) 2018 Microsoft Corporation. All rights reserved.
</metadata>
<defs>
<font id="CorbelLight" horiz-adv-x="1024" >
  <font-face 
    font-family="Corbel Light"
    font-weight="300"
    font-stretch="normal"
    units-per-em="2048"
    panose-1="2 11 3 3 2 2 4 2 2 4"
    ascent="1523"
    descent="-525"
    x-height="934"
    cap-height="1337"
    bbox="-994 -489 2257 2003"
    underline-thickness="50"
    underline-position="-150"
    unicode-range="U+000D-FDFC"
  />
<missing-glyph horiz-adv-x="932" 
d="M932 1309v-1309h-932v1309h932zM842 90v1127h-752v-1127h752zM408 473q0 120 36 162l72 80q56 56 64.5 68.5t16 35.5t7.5 43q0 62 -40.5 110t-96.5 48q-60 0 -100 -42.5t-52 -129.5l-90 12q12 132 80 191t168 59q98 0 161.5 -68t63.5 -172q0 -71 -30.5 -117.5
t-81.5 -95.5q-55 -52 -69.5 -73t-18.5 -61.5t-4 -96.5h-84zM455 338q28 0 46.5 -19t18.5 -47q0 -27 -18.5 -45t-46.5 -18t-47 18t-19 45q0 28 19 47t47 19z" />
    <glyph glyph-name="uniFB00" unicode="ff" horiz-adv-x="1194" 
d="M858 1096v-162h297v-76h-297v-858h-80v858h-481v-858h-80v858h-170v76h170v172q0 188 93.5 277.5t244.5 89.5q50 0 100 -9v-75q-53 10 -94 10q-131 0 -197.5 -72t-66.5 -231v-162h481v172q0 188 93.5 277.5t244.5 89.5q61 0 113 -9v-75q-60 10 -107 10q-131 0 -197.5 -72
t-66.5 -231z" />
    <glyph glyph-name="uniFB01" unicode="fi" horiz-adv-x="1034" 
d="M860 934v-934h-80v858h-483v-858h-80v858h-170v76h170v151q0 132 56 219.5t144.5 128t188.5 40.5q130 0 256 -33v-78q-142 37 -250 37q-143 0 -229 -88t-86 -236v-141h563z" />
    <glyph glyph-name="uniFB02" unicode="fl" horiz-adv-x="1038" 
d="M860 1440v-1440h-80v1384q-82 15 -178 15q-141 0 -223 -87.5t-82 -236.5v-141h324v-76h-324v-858h-80v858h-170v76h170v151q0 132 54 219.5t140 128t185 40.5q157 0 264 -33z" />
    <glyph glyph-name="uniFB03" unicode="ffi" horiz-adv-x="1595" 
d="M1421 934v-934h-80v858h-483v-858h-80v858h-481v-858h-80v858h-170v76h170v172q0 188 93.5 277.5t244.5 89.5q50 0 100 -9v-75q-53 10 -94 10q-131 0 -197.5 -72t-66.5 -231v-162h481v151q0 132 56 219.5t144.5 128t188.5 40.5q130 0 256 -33v-78q-138 37 -249 37
q-143 0 -229.5 -88t-86.5 -236v-141h563z" />
    <glyph glyph-name="uniFB04" unicode="ffl" horiz-adv-x="1599" 
d="M1421 1440v-1440h-80v1384q-82 15 -178 15q-141 0 -223 -87.5t-82 -236.5v-141h324v-76h-324v-858h-80v858h-481v-858h-80v858h-170v76h170v172q0 188 93.5 277.5t244.5 89.5q50 0 100 -9v-75q-53 10 -94 10q-131 0 -197.5 -72t-66.5 -231v-162h481v151q0 132 54 219.5
t140 128t185 40.5q157 0 264 -33z" />
    <glyph glyph-name="uniFDFC" unicode="&#xfdfc;" horiz-adv-x="2126" arabic-form="isolated" 
d="M160 475q0 74 25 169t53 138l65 -26q-26 -45 -49 -136t-23 -155q0 -90 70 -135t184 -45q103 0 156 48t70.5 140.5t17.5 251.5v578h82v-523q0 -189 -16 -300t-86 -187t-220 -76q-329 0 -329 258zM1032 813v490h82v-553q0 -89 10 -129.5t40.5 -56t99.5 -15.5h237
q-7 91 -22 187t-33 141l43 112q46 -91 56.5 -155.5t10.5 -237.5v-111h-264q-129 0 -180.5 22.5t-65.5 85t-14 220.5zM1159 -14l29 65q44 -14 116.5 -24.5t149.5 -10.5q172 0 269.5 54.5t133 131.5t35.5 160q0 100 -30 173t-80 139l67 63q60 -91 88.5 -168t28.5 -182
q0 -85 -32 -180.5t-147.5 -176.5t-340.5 -81q-124 0 -287 37zM1196 219l-84 84l84 86l86 -86zM1378 219l-88 84l88 86l84 -86z" />
    <glyph glyph-name=".notdef" horiz-adv-x="932" 
d="M932 1309v-1309h-932v1309h932zM842 90v1127h-752v-1127h752zM408 473q0 120 36 162l72 80q56 56 64.5 68.5t16 35.5t7.5 43q0 62 -40.5 110t-96.5 48q-60 0 -100 -42.5t-52 -129.5l-90 12q12 132 80 191t168 59q98 0 161.5 -68t63.5 -172q0 -71 -30.5 -117.5
t-81.5 -95.5q-55 -52 -69.5 -73t-18.5 -61.5t-4 -96.5h-84zM455 338q28 0 46.5 -19t18.5 -47q0 -27 -18.5 -45t-46.5 -18t-47 18t-19 45q0 28 19 47t47 19z" />
    <glyph glyph-name="glyph1" horiz-adv-x="0" 
 />
    <glyph glyph-name="glyph1" horiz-adv-x="0" 
 />
    <glyph glyph-name="uni000D" unicode="&#xd;" horiz-adv-x="399" 
 />
    <glyph glyph-name="space" unicode=" " horiz-adv-x="399" 
 />
    <glyph glyph-name="exclam" unicode="!" horiz-adv-x="492" 
d="M197 1337h98l-21 -954l-55 2zM184 0v129h123v-129h-123z" />
    <glyph glyph-name="quotedbl" unicode="&#x22;" horiz-adv-x="680" 
d="M135 895v442h80v-442h-80zM465 895v442h80v-442h-80z" />
    <glyph glyph-name="numbersign" unicode="#" horiz-adv-x="1323" 
d="M233 0l91 432h-193v72h205l72 344h-195v72h209l86 417h78l-86 -417h395l86 417h78l-86 -417h221v-72h-236l-71 -344h225v-72h-238l-90 -432h-82l95 432h-396l-90 -432h-78zM414 504h395l72 344h-396z" />
    <glyph glyph-name="dollar" unicode="$" 
d="M539 23v-105h-72v98h-23q-86 0 -156.5 14.5t-101.5 32.5v84q106 -59 265 -59h16v383q-90 19 -147 41.5t-92 67.5t-35 122q0 112 74 176t200 76v105h72v-101q137 0 241 -53v-78q-109 57 -241 60v-352q155 -34 216.5 -93.5t61.5 -156.5q0 -113 -72 -179t-206 -83zM467 549
v334q-195 -21 -195 -181q0 -51 21 -79.5t60.5 -43.5t113.5 -30zM739 281q0 68 -43.5 109.5t-156.5 64.5v-361q97 14 148.5 62t51.5 125z" />
    <glyph glyph-name="percent" unicode="%" horiz-adv-x="1608" 
d="M72 930q0 207 64.5 320.5t182.5 113.5q119 0 186.5 -110t67.5 -324q0 -216 -67.5 -327t-186.5 -111t-183 115t-64 323zM337 -14l-53 37l979 1312l55 -41zM498 930q0 364 -179 364q-172 0 -172 -364q0 -371 172 -371q179 0 179 371zM1035 426q0 207 64.5 320.5
t182.5 113.5q119 0 186.5 -110t67.5 -324q0 -216 -67.5 -327t-186.5 -111t-183 115t-64 323zM1461 426q0 364 -179 364q-172 0 -172 -364q0 -371 172 -371q179 0 179 371z" />
    <glyph glyph-name="ampersand" unicode="&#x26;" horiz-adv-x="1327" 
d="M1092 0l-140 135q-187 -160 -417 -160q-150 0 -245 54t-137 134.5t-42 164.5q0 122 59.5 211.5t212.5 169.5q-111 111 -150.5 189.5t-39.5 164.5q0 134 94.5 217.5t242.5 83.5q151 0 239.5 -76.5t88.5 -208.5q0 -94 -47 -163.5t-116.5 -116.5t-184.5 -107l440 -452
q152 166 152 440h82q0 -146 -48.5 -273t-136.5 -223l191 -184h-98zM274 1067q0 -85 43.5 -158.5t139.5 -167.5q187 93 253 164t66 176q0 107 -69.5 158t-176.5 51q-114 0 -185 -61t-71 -162zM899 184l-463 473q-139 -74 -189 -148t-50 -183q0 -123 94.5 -202t243.5 -79
q109 0 196.5 35t167.5 104z" />
    <glyph glyph-name="quotesingle" unicode="'" horiz-adv-x="375" 
d="M147 895v442h80v-442h-80z" />
    <glyph glyph-name="parenleft" unicode="(" horiz-adv-x="604" 
d="M123 518q0 207 57.5 378t133.5 284t143 176l49 -47q-128 -142 -208.5 -338t-80.5 -449q0 -248 82 -452.5t207 -341.5l-49 -45q-67 60 -143.5 174.5t-133.5 285.5t-57 375z" />
    <glyph glyph-name="parenright" unicode=")" horiz-adv-x="604" 
d="M98 -272q125 137 207 341.5t82 452.5q0 253 -80.5 449t-208.5 338l49 47q67 -63 143 -176t133.5 -284t57.5 -378q0 -204 -57 -375t-133.5 -285.5t-143.5 -174.5z" />
    <glyph glyph-name="asterisk" unicode="*" horiz-adv-x="1120" 
d="M557 874l-115 -190l-125 -149l-77 65l127 152l163 147l-217 41l-182 66l35 96l184 -68l195 -104l-37 219v194h102v-196l-32 -217l192 106l182 66l35 -96l-184 -68l-215 -43l166 -145l125 -148l-80 -65l-125 149z" />
    <glyph glyph-name="plus" unicode="+" 
d="M471 92v383h-356v78h356v379h82v-379h356v-78h-356v-383h-82z" />
    <glyph glyph-name="comma" unicode="," horiz-adv-x="455" 
d="M27 -369l141 541h90l-166 -541h-65z" />
    <glyph glyph-name="hyphen" unicode="-" horiz-adv-x="682" 
d="M121 455v84h440v-84h-440z" />
    <glyph glyph-name="period" unicode="." horiz-adv-x="492" 
d="M184 0v129h123v-129h-123z" />
    <glyph glyph-name="slash" unicode="/" horiz-adv-x="528" 
d="M33 -250l379 1587h84l-381 -1587h-82z" />
    <glyph glyph-name="zero" unicode="0" horiz-adv-x="1051" 
d="M113 465q0 219 113 356t298 137q187 0 300.5 -135t113.5 -358q0 -215 -116 -352.5t-298 -137.5q-188 0 -299.5 132.5t-111.5 357.5zM852 465q0 190 -90 306t-238 116t-236.5 -115t-88.5 -307t88.5 -305t236.5 -113q151 0 239.5 113t88.5 305z" />
    <glyph glyph-name="one" unicode="1" horiz-adv-x="831" 
d="M150 0v76h323v772l-364 -121v80l368 127h78v-858h244v-76h-649z" />
    <glyph glyph-name="two" unicode="2" horiz-adv-x="1069" 
d="M215 63q319 238 393.5 311.5t109 142.5t34.5 149q0 104 -63.5 161.5t-190.5 57.5q-77 0 -138 -18t-135 -54v74q109 71 281 71q153 0 242.5 -77.5t89.5 -210.5q0 -111 -60 -205.5t-150 -171.5t-248 -191l-36 -26v-4l188 4h388v-76h-705v63z" />
    <glyph glyph-name="three" unicode="3" horiz-adv-x="864" 
d="M59 -360v75q72 -31 136.5 -43t160.5 -12q111 0 185.5 44t109.5 114t35 149q0 143 -102 216t-291 73h-76v74h37q137 0 222.5 43.5t122 111.5t36.5 146q0 117 -77 185.5t-214 68.5q-118 0 -264 -60v74q55 26 132 42.5t142 16.5q167 0 267 -88t100 -237q0 -118 -68.5 -208
t-201.5 -124v-4q148 -7 234.5 -95.5t86.5 -232.5q0 -177 -117.5 -280t-316.5 -103q-164 0 -279 54z" />
    <glyph glyph-name="four" unicode="4" horiz-adv-x="1038" 
d="M653 -387v387h-536v66l418 868h88l-414 -854v-4h444v350h82v-350h217v-76h-217v-387h-82z" />
    <glyph glyph-name="five" unicode="5" horiz-adv-x="967" 
d="M141 -365v78q75 -27 133 -40t127 -13q126 0 208 48t119.5 124t37.5 164q0 150 -110.5 227.5t-323.5 77.5q-89 0 -137 -6l88 639h567v-76h-494l-67 -477h61q237 0 369.5 -100t132.5 -277q0 -192 -121 -305t-325 -113q-147 0 -265 49z" />
    <glyph glyph-name="six" unicode="6" horiz-adv-x="1026" 
d="M125 573q0 214 63 394.5t184.5 288.5t289.5 108q102 0 184 -39v-78q-29 14 -83.5 27.5t-113.5 13.5q-107 0 -200.5 -68t-156.5 -205.5t-79 -336.5h4q156 108 328 108t275.5 -105.5t103.5 -283.5q0 -186 -107 -304t-278 -118q-196 0 -305 158.5t-109 439.5zM838 389
q0 149 -80 234.5t-221 85.5q-82 0 -167.5 -32.5t-158.5 -82.5q0 -259 86 -402t244 -143q130 0 213.5 95t83.5 245z" />
    <glyph glyph-name="seven" unicode="7" horiz-adv-x="766" 
d="M106 -387l527 1243h-613v78h713v-53l-538 -1268h-89z" />
    <glyph glyph-name="eight" unicode="8" horiz-adv-x="979" 
d="M88 336q0 149 83 234t216 120v4q-121 31 -194.5 123t-73.5 215q0 107 53.5 182t138.5 112.5t176 37.5q92 0 178.5 -37.5t141.5 -112.5t55 -182q0 -120 -81 -215.5t-206 -128.5v-4q141 -23 226.5 -116.5t85.5 -231.5q0 -157 -112.5 -259t-287.5 -102q-174 0 -286.5 102.5
t-112.5 258.5zM778 1032q0 118 -80 188t-211 70q-127 0 -205.5 -71t-78.5 -187q0 -123 74.5 -198.5t209.5 -100.5q138 25 214.5 101.5t76.5 197.5zM801 340q0 137 -88.5 213t-225.5 94q-140 -20 -226.5 -95t-86.5 -212q0 -131 87 -211t226 -80q143 0 228.5 78.5t85.5 212.5z
" />
    <glyph glyph-name="nine" unicode="9" 
d="M131 -367v78q91 -49 213 -49q449 0 471 590h-4q-63 -42 -159.5 -72t-180.5 -30q-174 0 -269.5 105.5t-95.5 293.5q0 112 46.5 205.5t133 148.5t199.5 55q203 0 309.5 -161.5t106.5 -466.5q0 -363 -143 -553.5t-406 -190.5q-135 0 -221 47zM817 334q-3 275 -90 413
t-242 138q-131 0 -213 -92t-82 -244q0 -167 73 -245.5t224 -78.5q84 0 171 30.5t159 78.5z" />
    <glyph glyph-name="colon" unicode=":" horiz-adv-x="492" 
d="M184 594v129h123v-129h-123zM184 0v129h123v-129h-123z" />
    <glyph glyph-name="semicolon" unicode=";" horiz-adv-x="455" 
d="M158 594v129h123v-129h-123zM27 -369l141 541h90l-166 -541h-65z" />
    <glyph glyph-name="less" unicode="&#x3c;" 
d="M909 59l-794 435v63l794 436v-82l-706 -383v-4l706 -383v-82z" />
    <glyph glyph-name="equal" unicode="=" 
d="M115 694v78h794v-78h-794zM115 307v78h794v-78h-794z" />
    <glyph glyph-name="greater" unicode="&#x3e;" 
d="M115 59v82l706 383v4l-706 383v82l794 -436v-63z" />
    <glyph glyph-name="question" unicode="?" horiz-adv-x="829" 
d="M240 430q0 92 42 171t158 175q68 54 105.5 90t62.5 85t25 112q0 102 -79 162.5t-212 60.5q-70 0 -146 -17t-135 -44v80q120 59 277 59q175 0 279 -83t104 -222q0 -55 -19 -102t-57 -92t-162 -144q-99 -82 -132.5 -154t-33.5 -166v-16h-75zM213 0v129h119v-129h-119z" />
    <glyph glyph-name="at" unicode="@" horiz-adv-x="2046" 
d="M1309 125h-4q-48 -58 -131 -95.5t-181 -37.5q-140 0 -220.5 72.5t-80.5 201.5q0 133 91 212t249 79q139 0 266 -59h5v75q0 168 -66 239t-211 71q-63 0 -131 -12.5t-115 -32.5v75q114 48 250 48q352 0 352 -367v-424q0 -52 26 -76t81 -24q125 0 205 146.5t80 375.5
q0 207 -97.5 364t-264.5 241.5t-370 84.5q-245 0 -419.5 -113.5t-263.5 -301.5t-89 -410q0 -236 96.5 -413.5t277.5 -274.5t429 -97q138 0 277 28.5t243 72.5v-86q-96 -37 -243.5 -65t-288.5 -28q-250 0 -447.5 97t-311.5 291.5t-114 474.5q0 268 108 472t301.5 315.5
t444.5 111.5q240 0 424.5 -97.5t286.5 -273t102 -403.5q0 -250 -104 -416t-262 -166q-83 0 -126.5 35t-53.5 90zM1303 197v239q-143 47 -261 47q-127 0 -197.5 -56.5t-70.5 -160.5q0 -93 59.5 -149t159.5 -56q84 0 165.5 36.5t144.5 99.5z" />
    <glyph glyph-name="A" unicode="A" horiz-adv-x="1260" 
d="M39 0l547 1337h86l549 -1337h-97l-192 475h-606l-191 -475h-96zM899 555l-51 129q-167 415 -215 549h-4q-41 -114 -135 -339q-29 -69 -138 -339h543z" />
    <glyph glyph-name="B" unicode="B" horiz-adv-x="1159" 
d="M393 1337q168 0 261 -14.5t168 -60t109 -109.5t34 -154q0 -248 -252 -307v-4q145 -3 227 -84.5t82 -226.5q0 -106 -59.5 -196.5t-159 -135.5t-318.5 -45h-307v1337h215zM866 995q0 92 -40.5 148.5t-124.5 85t-267 28.5h-168v-532h275q113 0 183 31.5t106 93t36 145.5z
M924 377q0 104 -49.5 171.5t-169.5 86.5q-55 8 -162 8h-277v-563h232q145 0 241 29t140.5 103.5t44.5 164.5z" />
    <glyph glyph-name="C" unicode="C" horiz-adv-x="1217" 
d="M137 657q0 210 85 370.5t238.5 248.5t352.5 88q82 0 163.5 -16t117.5 -37v-84q-154 55 -273 55q-164 0 -298 -71t-213 -212t-79 -344q0 -288 157.5 -443t453.5 -155q138 0 266 54v-82q-50 -26 -124.5 -40t-154.5 -14q-334 0 -513 177t-179 505z" />
    <glyph glyph-name="D" unicode="D" horiz-adv-x="1339" 
d="M440 1337q177 0 275 -20q247 -63 367 -229.5t120 -411.5q0 -256 -130.5 -432t-356.5 -224q-100 -20 -246 -20h-291v1337h262zM1108 674q0 221 -99.5 364.5t-287.5 194.5q-58 15 -130 19.5t-188 4.5h-137v-1177h144q109 0 172.5 3.5t119.5 16.5q190 42 298 195t108 379z
" />
    <glyph glyph-name="E" unicode="E" horiz-adv-x="1098" 
d="M178 1337h762v-80h-674v-532h617v-80h-617v-565h713v-80h-801v1337z" />
    <glyph glyph-name="F" unicode="F" horiz-adv-x="1001" 
d="M178 1337h750v-80h-662v-528h604v-80h-604v-649h-88v1337z" />
    <glyph glyph-name="G" unicode="G" horiz-adv-x="1360" 
d="M137 639q0 223 93.5 387t258 251t373.5 87q88 0 163.5 -15t107.5 -32v-86q-51 19 -132 34t-151 15q-164 0 -305 -69t-227.5 -210t-86.5 -346q0 -287 161 -445.5t456 -158.5q110 0 246 41v486h-310v84h398v-621q-30 -25 -136.5 -45.5t-214.5 -20.5q-325 0 -509.5 176.5
t-184.5 487.5z" />
    <glyph glyph-name="H" unicode="H" horiz-adv-x="1309" 
d="M178 1337h88v-608h776v608h88v-1337h-88v649h-776v-649h-88v1337z" />
    <glyph glyph-name="I" unicode="I" horiz-adv-x="444" 
d="M178 1337h88v-1337h-88v1337z" />
    <glyph glyph-name="J" unicode="J" horiz-adv-x="715" 
d="M70 4v86q76 -31 155 -31q103 0 165.5 50.5t62.5 185.5v1042h88v-1069q0 -78 -34.5 -147.5t-102.5 -107.5t-173 -38q-115 2 -161 29z" />
    <glyph glyph-name="K" unicode="K" horiz-adv-x="1151" 
d="M1102 0h-121l-713 662h-2v-662h-88v1337h88v-665h2l676 665h107l-670 -669z" />
    <glyph glyph-name="L" unicode="L" horiz-adv-x="1034" 
d="M178 1337h88v-1257h678v-80h-766v1337z" />
    <glyph glyph-name="M" unicode="M" horiz-adv-x="1675" 
d="M315 1337l402 -934l121 -299h4l516 1233h137v-1337h-86v618q0 300 14 637h-8q-149 -333 -184 -417l-346 -838h-86l-355 838q-26 62 -186 417h-6q14 -425 14 -637v-618h-88v1337h137z" />
    <glyph glyph-name="N" unicode="N" horiz-adv-x="1366" 
d="M254 1337l602 -841l252 -361h6q-14 126 -14 414v788h88v-1337h-76l-604 850l-250 354h-4q12 -126 12 -469v-735h-88v1337h76z" />
    <glyph glyph-name="O" unicode="O" horiz-adv-x="1487" 
d="M137 668q0 199 77.5 358t215.5 248.5t313 89.5q183 0 320.5 -89.5t212 -247.5t74.5 -359q0 -198 -77 -356t-214.5 -247.5t-310.5 -89.5q-185 0 -323.5 89t-213 246.5t-74.5 357.5zM1255 668q0 192 -68 331.5t-184.5 212t-259.5 72.5q-141 0 -258 -72.5t-185.5 -212
t-68.5 -331.5q0 -194 69 -332.5t186.5 -209.5t261.5 -71q141 0 256 71t183 209.5t68 332.5z" />
    <glyph glyph-name="P" unicode="P" horiz-adv-x="1110" 
d="M537 1337q224 0 349.5 -91.5t125.5 -266.5q0 -209 -152 -310.5t-440 -101.5q-60 0 -154 11v-578h-88v1337h359zM920 975q0 150 -109 216t-307 66h-238v-600q100 -10 154 -10q264 0 382 84t118 244z" />
    <glyph glyph-name="Q" unicode="Q" horiz-adv-x="1487" 
d="M137 668q0 200 77.5 358.5t215.5 248t313 89.5q182 0 320 -89t212.5 -244t74.5 -347q0 -220 -83.5 -381.5t-224.5 -239.5v-6q202 17 314 17v-82l-129 4l-111 4l-122 -7q-154 -13 -249 -13q-275 0 -441.5 187.5t-166.5 500.5zM1253 668q0 196 -67.5 334.5t-183.5 209
t-259 70.5q-142 0 -258.5 -70.5t-185 -209t-68.5 -334.5q0 -192 68 -330.5t185.5 -210.5t263.5 -72q144 0 258.5 72t180.5 210.5t66 330.5z" />
    <glyph glyph-name="R" unicode="R" horiz-adv-x="1145" 
d="M471 1337q125 0 195 -10q325 -63 325 -344q0 -164 -107 -270t-282 -115v-4l467 -594h-108l-467 588h-228v-588h-88v1337h293zM899 985q0 150 -114 211t-324 61h-195v-589h199q218 0 326 74t108 243z" />
    <glyph glyph-name="S" unicode="S" horiz-adv-x="1081" 
d="M137 47v96q49 -30 160 -58t184 -28q180 0 279.5 67t99.5 228q0 81 -33.5 134t-91.5 85t-208 73q-130 33 -209 65.5t-133 101t-54 184.5q0 167 120.5 268t315.5 101q128 0 250 -37q49 -18 88 -37v-96q-61 28 -104.5 45.5t-105 30.5t-134.5 14q-173 0 -256.5 -80
t-83.5 -213q0 -84 36.5 -132t98.5 -74t185 -60q138 -38 216 -70.5t135.5 -104t57.5 -194.5q0 -180 -123.5 -280.5t-351.5 -100.5q-94 0 -196 25t-142 47z" />
    <glyph glyph-name="T" unicode="T" horiz-adv-x="1110" 
d="M510 1255h-461v82h1012v-82h-463v-1255h-88v1255z" />
    <glyph glyph-name="U" unicode="U" horiz-adv-x="1319" 
d="M174 477v860h88v-897q0 -181 104.5 -283t292.5 -102q190 0 294 98.5t104 286.5v897h88v-860q0 -502 -488 -502q-242 0 -362.5 129.5t-120.5 372.5z" />
    <glyph glyph-name="V" unicode="V" horiz-adv-x="1186" 
d="M147 1337l259 -714q136 -375 186 -533h4q49 161 149 437l291 810h90l-485 -1337h-98l-486 1337h90z" />
    <glyph glyph-name="W" unicode="W" horiz-adv-x="1753" 
d="M152 1337l280 -1013q37 -135 70 -238h2q17 79 54 195l13 45l256 1011h97l258 -1011q53 -212 63 -242h2q49 150 74 240l281 1013h94l-400 -1337h-102l-258 973q-52 192 -59 264h-5q-12 -75 -61 -264l-258 -973h-100l-396 1337h95z" />
    <glyph glyph-name="X" unicode="X" horiz-adv-x="1100" 
d="M57 1337h101l319 -489l76 -109h2l78 107l325 491h99l-439 -659l461 -678h-100l-346 510l-80 113h-4l-82 -117l-348 -506h-99l469 686z" />
    <glyph glyph-name="Y" unicode="Y" horiz-adv-x="1141" 
d="M526 537l-469 800h97l413 -723h6l414 723h96l-469 -800v-537h-88v537z" />
    <glyph glyph-name="Z" unicode="Z" horiz-adv-x="1169" 
d="M109 76l843 1181h-825v80h926v-73l-846 -1184h854v-80h-952v76z" />
    <glyph glyph-name="bracketleft" unicode="[" horiz-adv-x="645" 
d="M178 -299v1636h408v-71h-324v-1493h324v-72h-408z" />
    <glyph glyph-name="backslash" unicode="\" horiz-adv-x="528" 
d="M414 -250l-381 1587h84l379 -1587h-82z" />
    <glyph glyph-name="bracketright" unicode="]" horiz-adv-x="645" 
d="M467 -299h-408v72h324v1493h-324v71h408v-1636z" />
    <glyph glyph-name="asciicircum" unicode="^" 
d="M45 571l428 793h78l428 -793h-88l-379 693h-4l-375 -693h-88z" />
    <glyph glyph-name="underscore" unicode="_" horiz-adv-x="999" 
d="M0 -219v78h999v-78h-999z" />
    <glyph glyph-name="grave" unicode="`" horiz-adv-x="610" 
d="M358 1124l-159 349h104l127 -349h-72z" />
    <glyph glyph-name="a" unicode="a" horiz-adv-x="973" 
d="M104 268q0 127 90.5 205t233.5 78q135 0 287 -55v120q0 133 -69 201t-220 68q-99 0 -240 -47v75q30 18 100.5 31.5t139.5 13.5q187 0 278 -85t91 -257v-317q0 -99 8 -299h-72l-14 109h-4q-47 -54 -134 -94t-171 -40q-137 0 -220.5 73t-83.5 220zM715 193v233
q-75 28 -134.5 39.5t-162.5 11.5q-109 0 -170.5 -54.5t-61.5 -154.5q0 -112 61 -166.5t161 -54.5q109 0 181 43t126 103z" />
    <glyph glyph-name="b" unicode="b" horiz-adv-x="1061" 
d="M256 109h-2l-10 -109h-72q6 147 6 293v1155h80v-631h2q51 65 128 103t167 38q191 0 294 -123.5t103 -365.5q0 -162 -55.5 -273.5t-147.5 -166t-202 -54.5q-100 0 -168.5 38t-122.5 96zM868 469q0 416 -311 416q-175 0 -299 -154v-534q39 -55 111.5 -101.5t173.5 -46.5
q150 0 237.5 113t87.5 307z" />
    <glyph glyph-name="c" unicode="c" horiz-adv-x="893" 
d="M109 459q0 178 64.5 289.5t162.5 160.5t203 49q71 0 137 -14.5t108 -38.5v-82q-52 28 -119.5 45t-127.5 17q-87 0 -165.5 -42.5t-128.5 -138.5t-50 -247q0 -187 98 -297.5t264 -110.5q108 0 244 57v-75q-112 -56 -250 -56q-123 0 -222.5 53t-158.5 161.5t-59 269.5z" />
    <glyph glyph-name="d" unicode="d" horiz-adv-x="1061" 
d="M109 461q0 228 110 362.5t295 134.5q96 0 166.5 -32t122.5 -101h4l-4 113v510h80v-1264q0 -116 6 -184h-60l-22 109h-4q-40 -54 -124.5 -94t-166.5 -40q-110 0 -201 51.5t-146.5 160.5t-55.5 274zM803 211v530q-123 144 -287 144q-150 0 -236.5 -115t-86.5 -313
q0 -191 85.5 -299.5t235.5 -108.5q91 0 170 45.5t119 116.5z" />
    <glyph glyph-name="e" unicode="e" horiz-adv-x="991" 
d="M109 477q0 146 51 255t140 167.5t200 58.5q164 0 262 -107.5t98 -338.5v-35h-667q0 -221 97 -324.5t273 -103.5q150 0 264 53v-75q-93 -52 -264 -52q-218 0 -336 131t-118 371zM500 887q-124 0 -209 -94.5t-96 -243.5h583q-3 166 -73 252t-205 86z" />
    <glyph glyph-name="f" unicode="f" horiz-adv-x="633" 
d="M47 858v76h170v172q0 188 93.5 277.5t244.5 89.5q61 0 113 -9v-75q-60 10 -107 10q-131 0 -197.5 -72t-66.5 -231v-162h297v-76h-297v-858h-80v858h-170z" />
    <glyph glyph-name="g" unicode="g" horiz-adv-x="1061" 
d="M176 -438v88q73 -36 132 -51t143 -15q352 0 352 375v141h-4q-47 -54 -122.5 -89.5t-164.5 -35.5q-188 0 -295.5 129.5t-107.5 356.5q0 232 111.5 364.5t311.5 132.5q97 0 163.5 -40.5t107.5 -86.5h4l12 103h64v-977q0 -159 -49.5 -254.5t-146 -143.5t-241.5 -48
q-85 0 -158 14.5t-112 36.5zM803 184v557q-38 57 -116 100.5t-157 43.5q-159 0 -248 -112.5t-89 -309.5q0 -199 84.5 -306.5t244.5 -107.5q73 0 148.5 36t132.5 99z" />
    <glyph glyph-name="h" unicode="h" horiz-adv-x="1038" 
d="M258 1448v-559l-4 -107h4q128 176 313 176q155 0 227 -90.5t72 -251.5v-616h-79v623q0 123 -54.5 192.5t-169.5 69.5q-179 0 -309 -195v-690h-80v1448h80z" />
    <glyph glyph-name="i" unicode="i" horiz-adv-x="436" 
d="M172 1249h92v-96h-92v96zM178 934h80v-934h-80v934z" />
    <glyph glyph-name="j" unicode="j" horiz-adv-x="436" 
d="M172 1249h92v-96h-92v96zM-102 -473v76q62 -19 122 -19q75 0 116.5 41.5t41.5 112.5v1196h80v-1215q0 -98 -66.5 -153t-173.5 -55q-63 0 -120 16z" />
    <glyph glyph-name="k" unicode="k" horiz-adv-x="905" 
d="M860 934l-502 -422l500 -512h-106l-492 508h-2v-508h-80v1448h80v-922h2l490 408h110z" />
    <glyph glyph-name="l" unicode="l" horiz-adv-x="436" 
d="M178 1448h80v-1448h-80v1448z" />
    <glyph glyph-name="m" unicode="m" horiz-adv-x="1663" 
d="M242 934l16 -131h2q66 78 135 116.5t168 38.5q119 0 193 -55t100 -135h4q68 97 143.5 143.5t176.5 46.5q154 0 234.5 -88.5t80.5 -248.5v-621h-80v602q0 283 -241 283q-97 0 -166.5 -52.5t-130.5 -150.5v-682h-80v631q0 118 -63.5 186t-180.5 68q-90 0 -159 -43
t-136 -125v-717h-80v934h64z" />
    <glyph glyph-name="n" unicode="n" horiz-adv-x="1038" 
d="M242 934l14 -152h2q58 83 138.5 129.5t174.5 46.5q148 0 223.5 -87t75.5 -255v-616h-79v606q0 140 -54 209.5t-176 69.5q-85 0 -165 -52.5t-138 -142.5v-690h-80v934h64z" />
    <glyph glyph-name="o" unicode="o" horiz-adv-x="1053" 
d="M109 465q0 224 114.5 358.5t304.5 134.5q191 0 303.5 -134t112.5 -359q0 -219 -115 -354.5t-301 -135.5q-191 0 -305 133.5t-114 356.5zM860 465q0 193 -90 306.5t-242 113.5q-154 0 -244.5 -113t-90.5 -307q0 -192 89.5 -304t245.5 -112q154 0 243 111.5t89 304.5z" />
    <glyph glyph-name="p" unicode="p" horiz-adv-x="1061" 
d="M233 934l25 -109h2q48 58 129.5 95.5t159.5 37.5q196 0 299.5 -126.5t103.5 -356.5q0 -198 -68 -309.5t-158.5 -151t-176.5 -39.5q-184 0 -291 115h-2l2 -182v-373h-80v1399h55zM868 473q0 196 -84 304t-235 108q-89 0 -168 -44t-123 -112v-557q68 -65 135.5 -94
t153.5 -29q117 0 219 83.5t102 340.5z" />
    <glyph glyph-name="q" unicode="q" horiz-adv-x="1053" 
d="M872 934v-1399h-79v379l2 178h-4q-45 -49 -128 -83t-165 -34q-191 0 -295.5 129.5t-104.5 364.5q0 152 56.5 262.5t153 168.5t214.5 58q170 0 271 -133h4l20 109h55zM793 733q-56 76 -120.5 114t-148.5 38q-160 0 -251 -112t-91 -310q0 -223 87.5 -318.5t240.5 -95.5
q160 0 283 123v561z" />
    <glyph glyph-name="r" unicode="r" horiz-adv-x="670" 
d="M242 934l14 -166h2q55 82 156.5 136t208.5 54h26v-79h-26q-110 0 -211.5 -60t-153.5 -157v-662h-80v934h64z" />
    <glyph glyph-name="s" unicode="s" horiz-adv-x="791" 
d="M104 23v83q108 -59 254 -59q119 0 188.5 55.5t69.5 155.5q0 76 -46 117t-154 67q-99 24 -162 50t-103 76t-40 132q0 131 88 194.5t225 63.5q125 0 233 -53v-78q-58 29 -112.5 44.5t-126.5 15.5q-113 0 -171.5 -47t-58.5 -133q0 -60 27.5 -93.5t75.5 -51.5t145 -42
q135 -34 196.5 -91.5t61.5 -164.5q0 -132 -90 -210.5t-246 -78.5q-168 0 -254 48z" />
    <glyph glyph-name="t" unicode="t" horiz-adv-x="651" 
d="M205 223v635h-185v76h185v250h80v-250h286v-76h-286v-612q0 -108 42 -152.5t132 -44.5q79 0 127 17v-70q-61 -21 -142 -21q-112 0 -175.5 62t-63.5 186z" />
    <glyph glyph-name="u" unicode="u" horiz-adv-x="1008" 
d="M158 358v576h80v-596q0 -154 71.5 -221.5t194.5 -67.5q88 0 147.5 33t89 91t29.5 169v592h80v-578q0 -112 -20 -176t-68 -112.5t-111 -70.5t-143 -22q-86 0 -153 25.5t-111.5 71t-65 106.5t-20.5 180z" />
    <glyph glyph-name="v" unicode="v" horiz-adv-x="891" 
d="M133 934l244 -668q39 -102 65 -188h4l312 856h86l-355 -934h-88l-354 934h86z" />
    <glyph glyph-name="w" unicode="w" horiz-adv-x="1389" 
d="M1321 934l-279 -934h-88l-260 866h-6l-248 -866h-88l-284 934h86l186 -668l53 -184h4l244 852h107l194 -664l53 -188h4l33 111l205 741h84z" />
    <glyph glyph-name="x" unicode="x" horiz-adv-x="809" 
d="M356 473l-336 461h91l290 -404l289 404h86l-325 -459l340 -475h-91l-299 416l-297 -416h-88z" />
    <glyph glyph-name="y" unicode="y" horiz-adv-x="918" 
d="M47 934h86q283 -764 316 -848h8l327 848h86l-565 -1399h-86l187 457z" />
    <glyph glyph-name="z" unicode="z" horiz-adv-x="868" 
d="M76 41l579 817h-565v76h668v-57l-572 -802h607v-75h-717v41z" />
    <glyph glyph-name="braceleft" unicode="{" horiz-adv-x="645" 
d="M426 319q0 -44 -14 -86t-41 -101q-27 -61 -40.5 -102t-13.5 -83q0 -77 54 -122.5t161 -45.5h52v-72h-31q-150 0 -235 61t-85 169q0 64 16.5 114.5t47.5 113.5q25 54 37 87.5t12 71.5q0 67 -27 101t-65.5 44t-89.5 10v86q51 0 89.5 11t65.5 49.5t27 115.5q0 38 -12 69.5
t-37 81.5q-31 57 -47.5 104.5t-16.5 111.5q0 108 85 168.5t235 60.5h31v-71h-52q-106 0 -160.5 -45.5t-54.5 -122.5q0 -42 13.5 -80.5t40.5 -94.5t41 -95.5t14 -82.5q0 -113 -44 -161.5t-91 -59.5v-4q46 -11 90.5 -55.5t44.5 -145.5z" />
    <glyph glyph-name="bar" unicode="|" horiz-adv-x="446" 
d="M180 -465v1913h86v-1913h-86z" />
    <glyph glyph-name="braceright" unicode="}" horiz-adv-x="645" 
d="M354 524q-46 12 -90.5 60t-44.5 161q0 43 14 82.5t41 95.5t40.5 94.5t13.5 80.5q0 77 -54.5 122.5t-160.5 45.5h-52v71h31q151 0 235.5 -59.5t84.5 -169.5q0 -64 -16.5 -111.5t-47.5 -104.5q-25 -50 -37 -81.5t-12 -69.5q0 -77 27 -115.5t65.5 -49.5t89.5 -11v-86
q-100 0 -141 -38.5t-41 -116.5q0 -38 12 -71.5t37 -87.5q31 -63 47.5 -113.5t16.5 -114.5q0 -110 -85 -170t-235 -60h-31v72h52q107 0 161 45.5t54 122.5q0 42 -13.5 83t-40.5 102q-27 59 -41 101t-14 86q0 101 44.5 145.5t90.5 55.5v4z" />
    <glyph glyph-name="asciitilde" unicode="~" 
d="M319 446q-88 0 -145 -94l-65 45q25 51 81.5 90t126.5 39q75 0 203 -53q58 -23 93 -34t65 -11q46 0 86 26t63 68l62 -41q-27 -53 -82 -92t-131 -39q-40 0 -79.5 10.5t-96.5 32.5q-66 27 -105.5 40t-75.5 13z" />
    <glyph glyph-name="uni007F" horiz-adv-x="1229" 
 />
    <glyph glyph-name="uni00A0" unicode="&#xa0;" horiz-adv-x="399" 
 />
    <glyph glyph-name="exclamdown" unicode="&#xa1;" horiz-adv-x="492" 
d="M184 803v131h123v-131h-123zM195 -403l24 946h55l23 -946h-102z" />
    <glyph glyph-name="cent" unicode="&#xa2;" 
d="M868 164q-98 -49 -237 -55v-134h-76v136q-182 16 -284.5 144.5t-102.5 340.5q0 161 55.5 268t143 160.5t188.5 65.5v155h76v-153q63 -4 125.5 -18.5t97.5 -35.5v-82q-43 23 -105 39t-118 21v-832q125 7 237 56v-76zM555 188v824q-147 -17 -226 -125.5t-79 -284.5
q0 -184 78.5 -290.5t226.5 -123.5z" />
    <glyph glyph-name="sterling" unicode="&#xa3;" 
d="M922 76v-76h-797v76h135l53 432h-108v76h117l14 116q22 192 99.5 270.5t223.5 78.5q64 0 126.5 -12.5t101.5 -32.5v-74q-101 43 -234 43q-116 0 -167.5 -72t-71.5 -248l-8 -69h364v-76h-373l-51 -432h576z" />
    <glyph glyph-name="currency" unicode="&#xa4;" 
d="M774 463l164 -164l-57 -53l-166 162q-98 -70 -203 -70q-110 0 -205 70l-162 -162l-61 53l168 168q-70 91 -70 203q0 107 66 204l-160 162l59 56l162 -162q91 69 203 69q115 0 207 -67l158 158l61 -54l-164 -164q68 -89 68 -202q0 -115 -68 -207zM758 670
q0 107 -71.5 179.5t-174.5 72.5t-174.5 -72.5t-71.5 -179.5t71.5 -179.5t174.5 -72.5t174.5 72.5t71.5 179.5z" />
    <glyph glyph-name="yen" unicode="&#xa5;" 
d="M915 1024l-333 -559h252v-74h-281v-149h281v-74h-281v-195h-84v195h-279v74h279v149h-279v74h250l-334 559h93l311 -532h2l311 532h92z" />
    <glyph glyph-name="brokenbar" unicode="&#xa6;" horiz-adv-x="446" 
d="M180 721v727h86v-727h-86zM180 -465v696h86v-696h-86z" />
    <glyph glyph-name="section" unicode="&#xa7;" horiz-adv-x="829" 
d="M94 885q0 253 100.5 366t282.5 113q72 0 126 -13t118 -40v-72q-81 31 -132 45t-120 14q-90 0 -133 -43.5t-43 -119.5q0 -61 33 -144t146 -275q112 -190 158 -278.5t74.5 -182.5t28.5 -189q0 -227 -100.5 -353.5t-282.5 -126.5q-72 0 -127 13.5t-117 40.5v71l59 -22
q96 -37 193 -37q90 0 133.5 44t43.5 120q0 53 -22.5 115.5t-58 127.5t-97.5 170q-171 284 -217 413t-46 243zM223 1118l4 58h-6q-29 -70 -43 -120.5t-14 -117.5q0 -101 19 -182t57.5 -160.5t111.5 -204.5q151 -256 200.5 -376t49.5 -205l-2 -35h6q29 69 43.5 121.5
t14.5 119.5q0 101 -19.5 180.5t-57 157.5t-112.5 205q-161 272 -206.5 379t-45.5 180z" />
    <glyph glyph-name="dieresis" unicode="&#xa8;" horiz-adv-x="610" 
d="M74 1153v119h108v-119h-108zM430 1153v119h107v-119h-107z" />
    <glyph glyph-name="copyright" unicode="&#xa9;" horiz-adv-x="1686" 
d="M158 670q0 194 89.5 350.5t246 246t350.5 89.5q193 0 349 -90t245.5 -246.5t89.5 -349.5q0 -194 -89.5 -351t-245.5 -246t-349 -89q-194 0 -350.5 89t-246 246t-89.5 351zM1456 670q0 173 -80.5 314.5t-220 222.5t-311.5 81q-171 0 -311 -81.5t-220 -222.5t-80 -314
q0 -175 80 -317.5t219.5 -224t311.5 -81.5t312 81.5t220 224t80 317.5zM481 651q0 187 105 300.5t280 113.5q100 0 172 -35v-74q-92 33 -174 33q-142 0 -221.5 -88.5t-79.5 -245.5q0 -151 79.5 -227t221.5 -76q100 0 185 29v-76q-97 -29 -187 -29q-186 0 -283.5 100
t-97.5 275z" />
    <glyph glyph-name="ordfeminine" unicode="&#xaa;" horiz-adv-x="741" 
d="M98 713q0 97 69.5 158t180.5 61q115 0 215 -37v55q0 90 -21 127.5t-66.5 65.5t-127.5 28q-95 0 -188 -36v66q21 14 77.5 25t110.5 11q134 0 209.5 -62.5t75.5 -201.5v-471h-62l-6 80h-4q-32 -35 -97 -67t-134 -32q-111 0 -171.5 60t-60.5 170zM563 649v185
q-100 36 -219 36q-80 0 -127 -41.5t-47 -117.5q0 -88 42 -127t124 -39q128 0 227 104z" />
    <glyph glyph-name="guillemotleft" unicode="&#xab;" horiz-adv-x="948" 
d="M442 109l-301 364l301 367h95l-289 -367l289 -364h-95zM780 109l-280 364l280 367h82l-258 -367l258 -364h-82z" />
    <glyph glyph-name="logicalnot" unicode="&#xac;" 
d="M829 96v379h-714v78h794v-457h-80z" />
    <glyph glyph-name="uni00AD" unicode="&#xad;" horiz-adv-x="682" 
d="M121 455v84h440v-84h-440z" />
    <glyph glyph-name="registered" unicode="&#xae;" horiz-adv-x="1270" 
d="M160 887q0 135 62.5 244t171.5 171t241 62t241 -62t172.5 -171.5t63.5 -243.5t-63.5 -242t-172.5 -169.5t-241 -61.5q-203 0 -339 135t-136 338zM1040 887q0 179 -114 295t-291 116t-289.5 -115.5t-112.5 -295.5q0 -179 113 -293.5t289 -114.5q177 0 291 115t114 293z
M473 1139h160q178 0 178 -148q0 -60 -34 -94.5t-85 -42.5v-4l139 -203h-79l-134 195h-79v-195h-66v492zM610 901q64 0 97.5 24.5t33.5 65.5q0 34 -25 60t-71 26h-106v-176h71z" />
    <glyph glyph-name="macron" unicode="&#xaf;" horiz-adv-x="610" 
d="M43 1180v75h524v-75h-524z" />
    <glyph glyph-name="degree" unicode="&#xb0;" horiz-adv-x="836" 
d="M98 1038q0 136 92 229t228 93q135 0 227 -92.5t92 -229.5q0 -132 -93 -224.5t-226 -92.5t-226.5 92.5t-93.5 224.5zM653 1038q0 107 -66 176.5t-169 69.5q-102 0 -170 -70t-68 -176q0 -102 68 -169.5t170 -67.5q103 0 169 66.5t66 170.5z" />
    <glyph glyph-name="plusminus" unicode="&#xb1;" 
d="M473 242v307h-358v78h358v307h78v-307h358v-78h-358v-307h-78zM115 0v78h794v-78h-794z" />
    <glyph glyph-name="uni00B2" unicode="&#xb2;" horiz-adv-x="600" 
d="M49 557q149 172 223.5 268t112 172.5t37.5 147.5q0 74 -49 111.5t-119 37.5q-82 0 -191 -41v68q39 19 92 31t97 12q133 0 189.5 -62.5t56.5 -156.5q0 -98 -71.5 -216.5t-283.5 -348.5l-2 -7q93 9 148 9h239v-70h-479v45z" />
    <glyph glyph-name="uni00B3" unicode="&#xb3;" horiz-adv-x="561" 
d="M33 530v68q86 -39 188 -39q104 0 152.5 50t48.5 130t-62.5 125t-189.5 45h-33v70h27q125 0 179 45.5t54 120.5q0 79 -43.5 115t-130.5 36t-178 -43v70q23 15 72.5 28t103.5 13q122 0 187 -59.5t65 -155.5q0 -67 -38.5 -120.5t-121.5 -78.5v-4q87 -15 136 -71t49 -140
q0 -114 -76 -178.5t-209 -64.5q-47 0 -102.5 11t-77.5 27z" />
    <glyph glyph-name="acute" unicode="&#xb4;" horiz-adv-x="610" 
d="M193 1124l126 349h105l-160 -349h-71z" />
    <glyph glyph-name="mu" unicode="&#xb5;" horiz-adv-x="1180" 
d="M178 934h80v-615q0 -137 72.5 -203.5t193.5 -66.5q150 0 238 84t88 248v553h80v-721q0 -84 16 -120t60 -36l45 4v-71l-58 -4q-60 0 -96 43t-41 110h-4q-105 -164 -320 -164q-185 0 -272 107h-6l4 -416v-131h-80v1399z" />
    <glyph glyph-name="paragraph" unicode="&#xb6;" horiz-adv-x="1147" 
d="M514 322q-184 35 -293.5 171t-109.5 330q0 229 135.5 371.5t353.5 142.5h352v-1724h-82v1647h-274v-1647h-82v709z" />
    <glyph glyph-name="periodcentered" unicode="&#xb7;" horiz-adv-x="489" 
d="M184 424v129h123v-129h-123z" />
    <glyph glyph-name="cedilla" unicode="&#xb8;" horiz-adv-x="610" 
d="M291 -129q91 -8 149 -48.5t58 -117.5q0 -87 -64 -131.5t-184 -44.5q-80 0 -125 18v66q44 -16 115 -16q78 0 127 25.5t49 80.5q0 111 -211 111l55 184h72z" />
    <glyph glyph-name="uni00B9" unicode="&#xb9;" horiz-adv-x="573" 
d="M78 512v70h213v694l-225 -80v74l225 82h76v-770h168v-70h-457z" />
    <glyph glyph-name="ordmasculine" unicode="&#xba;" horiz-adv-x="803" 
d="M82 860q0 159 89.5 265t227.5 106q140 0 229 -104t89 -267q0 -153 -93 -260.5t-225 -107.5q-137 0 -227 104t-90 264zM643 860q0 138 -68 222.5t-176 84.5q-109 0 -176 -84.5t-67 -222.5q0 -137 67.5 -221t175.5 -84t176 84.5t68 220.5z" />
    <glyph glyph-name="guillemotright" unicode="&#xbb;" horiz-adv-x="948" 
d="M84 109l260 364l-260 367h84l281 -367l-281 -364h-84zM412 109l290 364l-290 367h96l297 -367l-297 -364h-96z" />
    <glyph glyph-name="onequarter" unicode="&#xbc;" horiz-adv-x="1614" 
d="M78 512v70h213v694l-225 -80v74l225 82h76v-770h168v-70h-457zM325 23l979 1312l55 -41l-981 -1308zM1282 215h-352v63l254 551h78l-146 -321q-7 -17 -44 -93q-7 -15 -25 -53t-35 -75v-7q55 5 127 5h143v254h76v-254h94v-70h-94v-211h-76v211z" />
    <glyph glyph-name="onehalf" unicode="&#xbd;" horiz-adv-x="1708" 
d="M78 512v70h213v694l-225 -80v74l225 82h76v-770h168v-70h-457zM305 23l979 1312l55 -41l-981 -1308zM1114 49q149 172 223.5 268t112 172.5t37.5 147.5q0 74 -49 111.5t-119 37.5q-82 0 -191 -41v68q39 19 92 31t97 12q133 0 189.5 -62.5t56.5 -156.5q0 -98 -71.5 -216.5
t-283.5 -348.5l-2 -7q93 9 148 9h239v-70h-479v45z" />
    <glyph glyph-name="threequarters" unicode="&#xbe;" horiz-adv-x="1536" 
d="M129 530v68q86 -39 188 -39q104 0 152.5 50t48.5 130t-62.5 125t-189.5 45h-33v70h27q125 0 179 45.5t54 120.5q0 79 -43.5 115t-130.5 36t-178 -43v70q23 15 72.5 28t103.5 13q122 0 187 -59.5t65 -155.5q0 -67 -38.5 -120.5t-121.5 -78.5v-4q87 -15 136 -71t49 -140
q0 -114 -76 -178.5t-209 -64.5q-47 0 -102.5 11t-77.5 27zM311 23l979 1312l55 -41l-981 -1308zM1255 215h-352v63l254 551h78l-146 -321q-7 -17 -44 -93q-7 -15 -25 -53t-35 -75v-7q55 5 127 5h143v254h76v-254h94v-70h-94v-211h-76v211z" />
    <glyph glyph-name="questiondown" unicode="&#xbf;" horiz-adv-x="829" 
d="M616 934v-129h-118v129h118zM590 504q0 -92 -42.5 -171t-158.5 -175q-68 -55 -105 -90.5t-62 -84.5t-25 -112q0 -102 77.5 -162.5t212.5 -60.5q71 0 146.5 17t134.5 44v-80q-118 -59 -276 -59q-175 0 -279 82.5t-104 222.5q0 68 29 123.5t70 96t107 93.5q78 63 116 106.5
t59.5 101.5t21.5 136v17h76z" />
    <glyph glyph-name="Agrave" unicode="&#xc0;" horiz-adv-x="1260" 
d="M39 0l547 1337h86l549 -1337h-97l-192 475h-606l-191 -475h-96zM899 555l-51 129q-167 415 -215 549h-4q-41 -114 -135 -339q-29 -69 -138 -339h543zM573 1409l-174 248h111l151 -248h-88z" />
    <glyph glyph-name="Aacute" unicode="&#xc1;" horiz-adv-x="1260" 
d="M39 0l547 1337h86l549 -1337h-97l-192 475h-606l-191 -475h-96zM899 555l-51 129q-167 415 -215 549h-4q-41 -114 -135 -339q-29 -69 -138 -339h543zM592 1409l158 248h106l-172 -248h-92z" />
    <glyph glyph-name="Acircumflex" unicode="&#xc2;" horiz-adv-x="1260" 
d="M39 0l547 1337h86l549 -1337h-97l-192 475h-606l-191 -475h-96zM899 555l-51 129q-167 415 -215 549h-4q-41 -114 -135 -339q-29 -69 -138 -339h543zM353 1409l219 248h114l220 -248h-95l-184 184h-4l-174 -184h-96z" />
    <glyph glyph-name="Atilde" unicode="&#xc3;" horiz-adv-x="1260" 
d="M39 0l547 1337h86l549 -1337h-97l-192 475h-606l-191 -475h-96zM899 555l-51 129q-167 415 -215 549h-4q-41 -114 -135 -339q-29 -69 -138 -339h543zM484 1548q-39 0 -59.5 -27.5t-20.5 -74.5h-72v6q0 70 37.5 120t120.5 50q46 0 83 -15.5t84 -44.5q38 -23 63.5 -34.5
t52.5 -11.5q38 0 59.5 29.5t21.5 72.5h74v-10q0 -69 -36 -115.5t-126 -46.5q-46 0 -82.5 14.5t-86.5 43.5q-39 23 -63 33.5t-50 10.5z" />
    <glyph glyph-name="Adieresis" unicode="&#xc4;" horiz-adv-x="1260" 
d="M39 0l547 1337h86l549 -1337h-97l-192 475h-606l-191 -475h-96zM899 555l-51 129q-167 415 -215 549h-4q-41 -114 -135 -339q-29 -69 -138 -339h543zM402 1448v121h106v-121h-106zM760 1448v121h105v-121h-105z" />
    <glyph glyph-name="Aring" unicode="&#xc5;" horiz-adv-x="1260" 
d="M39 0l547 1337h86l549 -1337h-97l-192 475h-606l-191 -475h-96zM899 555l-51 129q-167 415 -215 549h-4q-41 -114 -135 -339q-29 -69 -138 -339h543zM426 1563q0 76 57.5 124t147.5 48q89 0 147 -47.5t58 -124.5q0 -75 -58.5 -122.5t-146.5 -47.5q-90 0 -147.5 47.5
t-57.5 122.5zM766 1563q0 50 -38.5 82t-96.5 32q-56 0 -95.5 -32.5t-39.5 -81.5q0 -51 38 -82t97 -31t97 31t38 82z" />
    <glyph glyph-name="AE" unicode="&#xc6;" horiz-adv-x="1726" 
d="M37 0l741 1337h748v-80h-633l61 -522h541v-80h-530l65 -573h606v-82h-684l-49 475h-506l-266 -475h-94zM438 555h451l-78 702z" />
    <glyph glyph-name="Ccedilla" unicode="&#xc7;" horiz-adv-x="1217" 
d="M586 -453v66q42 -16 114 -16q78 0 127.5 25.5t49.5 80.5q0 111 -211 111l51 168q-279 29 -429.5 201.5t-150.5 473.5q0 210 85.5 370.5t240 248.5t354.5 88q81 0 161 -16t116 -37v-84q-154 55 -273 55q-164 0 -298 -71t-213 -212t-79 -344q0 -288 157.5 -443t453.5 -155
q138 0 266 54v-82q-50 -26 -124.5 -40t-154.5 -14h-43l-34 -104q91 -8 148.5 -48.5t57.5 -117.5q0 -87 -64 -131.5t-183 -44.5q-82 0 -125 18z" />
    <glyph glyph-name="Egrave" unicode="&#xc8;" horiz-adv-x="1098" 
d="M178 1337h762v-80h-674v-532h617v-80h-617v-565h713v-80h-801v1337zM536 1409l-174 248h111l151 -248h-88z" />
    <glyph glyph-name="Eacute" unicode="&#xc9;" horiz-adv-x="1098" 
d="M178 1337h762v-80h-674v-532h617v-80h-617v-565h713v-80h-801v1337zM498 1409l158 248h106l-172 -248h-92z" />
    <glyph glyph-name="Ecircumflex" unicode="&#xca;" horiz-adv-x="1098" 
d="M178 1337h762v-80h-674v-532h617v-80h-617v-565h713v-80h-801v1337zM279 1409l219 248h114l220 -248h-95l-184 184h-4l-174 -184h-96z" />
    <glyph glyph-name="Edieresis" unicode="&#xcb;" horiz-adv-x="1098" 
d="M178 1337h762v-80h-674v-532h617v-80h-617v-565h713v-80h-801v1337zM346 1448v121h106v-121h-106zM704 1448v121h105v-121h-105z" />
    <glyph glyph-name="Igrave" unicode="&#xcc;" horiz-adv-x="444" 
d="M178 1337h88v-1337h-88v1337zM188 1409l-174 248h111l151 -248h-88z" />
    <glyph glyph-name="Iacute" unicode="&#xcd;" horiz-adv-x="444" 
d="M178 1337h88v-1337h-88v1337zM170 1409l158 248h106l-172 -248h-92z" />
    <glyph glyph-name="Icircumflex" unicode="&#xce;" horiz-adv-x="444" 
d="M178 1337h88v-1337h-88v1337zM-49 1409l219 248h114l220 -248h-95l-184 184h-4l-174 -184h-96z" />
    <glyph glyph-name="Idieresis" unicode="&#xcf;" horiz-adv-x="444" 
d="M178 1337h88v-1337h-88v1337zM-2 1448v121h106v-121h-106zM356 1448v121h105v-121h-105z" />
    <glyph glyph-name="Eth" unicode="&#xd0;" horiz-adv-x="1339" 
d="M1202 676q0 -123 -31.5 -229.5t-91 -191t-144 -142.5t-190.5 -85.5t-276 -27.5h-291v655h-119v80h119v602h262q177 0 275 -20q247 -63 367 -229.5t120 -411.5zM1108 674q0 221 -99.5 364.5t-287.5 194.5q-58 15 -130 19.5t-188 4.5h-137v-522h336v-80h-336v-575h144
q109 0 170.5 3.5t121.5 16.5q190 42 298 195t108 379z" />
    <glyph glyph-name="Ntilde" unicode="&#xd1;" horiz-adv-x="1366" 
d="M254 1337l602 -841l252 -361h6q-14 126 -14 414v788h88v-1337h-76l-604 850l-250 354h-4q12 -126 12 -469v-735h-88v1337h76zM553 1548q-39 0 -59.5 -27.5t-20.5 -74.5h-72v6q0 70 37.5 120t120.5 50q46 0 83 -15.5t84 -44.5q38 -23 63.5 -34.5t52.5 -11.5
q38 0 59.5 29.5t21.5 72.5h74v-10q0 -69 -36 -115.5t-126 -46.5q-46 0 -82.5 14.5t-86.5 43.5q-39 23 -63 33.5t-50 10.5z" />
    <glyph glyph-name="Ograve" unicode="&#xd2;" horiz-adv-x="1487" 
d="M137 668q0 199 77.5 358t215.5 248.5t313 89.5q183 0 320.5 -89.5t212 -247.5t74.5 -359q0 -198 -77 -356t-214.5 -247.5t-310.5 -89.5q-185 0 -323.5 89t-213 246.5t-74.5 357.5zM1255 668q0 192 -68 331.5t-184.5 212t-259.5 72.5q-141 0 -258 -72.5t-185.5 -212
t-68.5 -331.5q0 -194 69 -332.5t186.5 -209.5t261.5 -71q141 0 256 71t183 209.5t68 332.5zM716 1409l-174 248h111l151 -248h-88z" />
    <glyph glyph-name="Oacute" unicode="&#xd3;" horiz-adv-x="1487" 
d="M137 668q0 199 77.5 358t215.5 248.5t313 89.5q183 0 320.5 -89.5t212 -247.5t74.5 -359q0 -198 -77 -356t-214.5 -247.5t-310.5 -89.5q-185 0 -323.5 89t-213 246.5t-74.5 357.5zM1255 668q0 192 -68 331.5t-184.5 212t-259.5 72.5q-141 0 -258 -72.5t-185.5 -212
t-68.5 -331.5q0 -194 69 -332.5t186.5 -209.5t261.5 -71q141 0 256 71t183 209.5t68 332.5zM688 1409l158 248h106l-172 -248h-92z" />
    <glyph glyph-name="Ocircumflex" unicode="&#xd4;" horiz-adv-x="1487" 
d="M137 668q0 199 77.5 358t215.5 248.5t313 89.5q183 0 320.5 -89.5t212 -247.5t74.5 -359q0 -198 -77 -356t-214.5 -247.5t-310.5 -89.5q-185 0 -323.5 89t-213 246.5t-74.5 357.5zM1255 668q0 192 -68 331.5t-184.5 212t-259.5 72.5q-141 0 -258 -72.5t-185.5 -212
t-68.5 -331.5q0 -194 69 -332.5t186.5 -209.5t261.5 -71q141 0 256 71t183 209.5t68 332.5zM473 1409l219 248h114l220 -248h-95l-184 184h-4l-174 -184h-96z" />
    <glyph glyph-name="Otilde" unicode="&#xd5;" horiz-adv-x="1487" 
d="M137 668q0 199 77.5 358t215.5 248.5t313 89.5q183 0 320.5 -89.5t212 -247.5t74.5 -359q0 -198 -77 -356t-214.5 -247.5t-310.5 -89.5q-185 0 -323.5 89t-213 246.5t-74.5 357.5zM1255 668q0 192 -68 331.5t-184.5 212t-259.5 72.5q-141 0 -258 -72.5t-185.5 -212
t-68.5 -331.5q0 -194 69 -332.5t186.5 -209.5t261.5 -71q141 0 256 71t183 209.5t68 332.5zM596 1548q-39 0 -59.5 -27.5t-20.5 -74.5h-72v6q0 70 37.5 120t120.5 50q46 0 83 -15.5t84 -44.5q38 -23 63.5 -34.5t52.5 -11.5q38 0 59.5 29.5t21.5 72.5h74v-10
q0 -69 -36 -115.5t-126 -46.5q-46 0 -82.5 14.5t-86.5 43.5q-39 23 -63 33.5t-50 10.5z" />
    <glyph glyph-name="Odieresis" unicode="&#xd6;" horiz-adv-x="1487" 
d="M137 668q0 199 77.5 358t215.5 248.5t313 89.5q183 0 320.5 -89.5t212 -247.5t74.5 -359q0 -198 -77 -356t-214.5 -247.5t-310.5 -89.5q-185 0 -323.5 89t-213 246.5t-74.5 357.5zM1255 668q0 192 -68 331.5t-184.5 212t-259.5 72.5q-141 0 -258 -72.5t-185.5 -212
t-68.5 -331.5q0 -194 69 -332.5t186.5 -209.5t261.5 -71q141 0 256 71t183 209.5t68 332.5zM510 1448v121h106v-121h-106zM868 1448v121h105v-121h-105z" />
    <glyph glyph-name="multiply" unicode="&#xd7;" 
d="M168 111l-53 55l344 344l-344 346l53 55l345 -344l345 344l53 -55l-342 -346l342 -344l-53 -55l-345 346z" />
    <glyph glyph-name="Oslash" unicode="&#xd8;" horiz-adv-x="1487" 
d="M1350 668q0 -198 -77 -356t-214.5 -247.5t-310.5 -89.5q-250 0 -412 160l-139 -160l-60 48l148 170q-148 182 -148 475q0 199 77.5 358t215.5 248.5t313 89.5q254 0 412 -164l131 152l62 -47l-142 -162q144 -191 144 -475zM344 260l754 873q-68 74 -159.5 112.5
t-195.5 38.5q-141 0 -258 -72.5t-185.5 -212t-68.5 -331.5q0 -247 113 -408zM1255 668q0 243 -108 403l-754 -870q138 -146 355 -146q141 0 256 71t183 209.5t68 332.5z" />
    <glyph glyph-name="Ugrave" unicode="&#xd9;" horiz-adv-x="1319" 
d="M174 477v860h88v-897q0 -181 104.5 -283t292.5 -102q190 0 294 98.5t104 286.5v897h88v-860q0 -502 -488 -502q-242 0 -362.5 129.5t-120.5 372.5zM612 1409l-174 248h111l151 -248h-88z" />
    <glyph glyph-name="Uacute" unicode="&#xda;" horiz-adv-x="1319" 
d="M174 477v860h88v-897q0 -181 104.5 -283t292.5 -102q190 0 294 98.5t104 286.5v897h88v-860q0 -502 -488 -502q-242 0 -362.5 129.5t-120.5 372.5zM590 1409l158 248h106l-172 -248h-92z" />
    <glyph glyph-name="Ucircumflex" unicode="&#xdb;" horiz-adv-x="1319" 
d="M174 477v860h88v-897q0 -181 104.5 -283t292.5 -102q190 0 294 98.5t104 286.5v897h88v-860q0 -502 -488 -502q-242 0 -362.5 129.5t-120.5 372.5zM381 1409l219 248h114l220 -248h-95l-184 184h-4l-174 -184h-96z" />
    <glyph glyph-name="Udieresis" unicode="&#xdc;" horiz-adv-x="1319" 
d="M174 477v860h88v-897q0 -181 104.5 -283t292.5 -102q190 0 294 98.5t104 286.5v897h88v-860q0 -502 -488 -502q-242 0 -362.5 129.5t-120.5 372.5zM430 1448v121h106v-121h-106zM788 1448v121h105v-121h-105z" />
    <glyph glyph-name="Yacute" unicode="&#xdd;" horiz-adv-x="1141" 
d="M526 537l-469 800h97l413 -723h6l414 723h96l-469 -800v-537h-88v537zM512 1409l158 248h106l-172 -248h-92z" />
    <glyph glyph-name="Thorn" unicode="&#xde;" horiz-adv-x="1110" 
d="M1012 711q0 -206 -149 -295.5t-443 -89.5q-54 0 -154 10v-336h-88v1337h88v-282h271q218 0 346.5 -93t128.5 -251zM920 707q0 128 -108 198t-308 70h-238v-559q100 -10 154 -10q261 0 380.5 70t119.5 231z" />
    <glyph glyph-name="germandbls" unicode="&#xdf;" horiz-adv-x="1202" 
d="M520 23v83q141 -59 246 -59q127 0 196.5 54.5t69.5 160.5q0 88 -41.5 142.5t-156.5 97.5q-78 29 -126.5 55t-82 73t-33.5 122q0 52 19 95.5t46.5 76.5t72.5 77q76 76 98 118.5t22 86.5q0 90 -68.5 141.5t-189.5 51.5q-176 0 -255 -107.5t-79 -296.5v-995h-80v1004
q0 218 105.5 343.5t312.5 125.5q157 0 245.5 -70t88.5 -193q0 -52 -19 -95.5t-46.5 -76t-73.5 -77.5q-77 -75 -99 -117t-22 -86q0 -64 34 -101t130 -69q80 -27 138.5 -61.5t98 -98.5t39.5 -162q0 -136 -89.5 -213.5t-246.5 -77.5q-77 0 -145.5 14.5t-108.5 33.5z" />
    <glyph glyph-name="agrave" unicode="&#xe0;" horiz-adv-x="973" 
d="M104 268q0 127 90.5 205t233.5 78q135 0 287 -55v120q0 133 -69 201t-220 68q-99 0 -240 -47v75q30 18 100.5 31.5t139.5 13.5q187 0 278 -85t91 -257v-317q0 -99 8 -299h-72l-14 109h-4q-47 -54 -134 -94t-171 -40q-137 0 -220.5 73t-83.5 220zM715 193v233
q-75 28 -134.5 39.5t-162.5 11.5q-109 0 -170.5 -54.5t-61.5 -154.5q0 -112 61 -166.5t161 -54.5q109 0 181 43t126 103zM452 1124l-159 349h104l127 -349h-72z" />
    <glyph glyph-name="aacute" unicode="&#xe1;" horiz-adv-x="973" 
d="M104 268q0 127 90.5 205t233.5 78q135 0 287 -55v120q0 133 -69 201t-220 68q-99 0 -240 -47v75q30 18 100.5 31.5t139.5 13.5q187 0 278 -85t91 -257v-317q0 -99 8 -299h-72l-14 109h-4q-47 -54 -134 -94t-171 -40q-137 0 -220.5 73t-83.5 220zM715 193v233
q-75 28 -134.5 39.5t-162.5 11.5q-109 0 -170.5 -54.5t-61.5 -154.5q0 -112 61 -166.5t161 -54.5q109 0 181 43t126 103zM420 1124l126 349h105l-160 -349h-71z" />
    <glyph glyph-name="acircumflex" unicode="&#xe2;" horiz-adv-x="973" 
d="M104 268q0 127 90.5 205t233.5 78q135 0 287 -55v120q0 133 -69 201t-220 68q-99 0 -240 -47v75q30 18 100.5 31.5t139.5 13.5q187 0 278 -85t91 -257v-317q0 -99 8 -299h-72l-14 109h-4q-47 -54 -134 -94t-171 -40q-137 0 -220.5 73t-83.5 220zM715 193v233
q-75 28 -134.5 39.5t-162.5 11.5q-109 0 -170.5 -54.5t-61.5 -154.5q0 -112 61 -166.5t161 -54.5q109 0 181 43t126 103zM203 1124l217 349h96l221 -349h-77l-191 277h-4l-184 -277h-78z" />
    <glyph glyph-name="atilde" unicode="&#xe3;" horiz-adv-x="973" 
d="M104 268q0 127 90.5 205t233.5 78q135 0 287 -55v120q0 133 -69 201t-220 68q-99 0 -240 -47v75q30 18 100.5 31.5t139.5 13.5q187 0 278 -85t91 -257v-317q0 -99 8 -299h-72l-14 109h-4q-47 -54 -134 -94t-171 -40q-137 0 -220.5 73t-83.5 220zM715 193v233
q-75 28 -134.5 39.5t-162.5 11.5q-109 0 -170.5 -54.5t-61.5 -154.5q0 -112 61 -166.5t161 -54.5q109 0 181 43t126 103zM316 1300q-41 0 -64.5 -27.5t-23.5 -80.5h-68v6q0 70 37.5 120t120.5 50q43 0 80.5 -17t88.5 -49q38 -25 62.5 -37t48.5 -12q46 0 67 32t21 79h70v-10
q0 -70 -35 -118t-125 -48q-44 0 -82.5 17t-87.5 48q-38 24 -62.5 35.5t-47.5 11.5z" />
    <glyph glyph-name="adieresis" unicode="&#xe4;" horiz-adv-x="973" 
d="M104 268q0 127 90.5 205t233.5 78q135 0 287 -55v120q0 133 -69 201t-220 68q-99 0 -240 -47v75q30 18 100.5 31.5t139.5 13.5q187 0 278 -85t91 -257v-317q0 -99 8 -299h-72l-14 109h-4q-47 -54 -134 -94t-171 -40q-137 0 -220.5 73t-83.5 220zM715 193v233
q-75 28 -134.5 39.5t-162.5 11.5q-109 0 -170.5 -54.5t-61.5 -154.5q0 -112 61 -166.5t161 -54.5q109 0 181 43t126 103zM252 1153v119h108v-119h-108zM608 1153v119h107v-119h-107z" />
    <glyph glyph-name="aring" unicode="&#xe5;" horiz-adv-x="973" 
d="M104 268q0 127 90.5 205t233.5 78q135 0 287 -55v120q0 133 -69 201t-220 68q-99 0 -240 -47v75q30 18 100.5 31.5t139.5 13.5q187 0 278 -85t91 -257v-317q0 -99 8 -299h-72l-14 109h-4q-47 -54 -134 -94t-171 -40q-137 0 -220.5 73t-83.5 220zM715 193v233
q-75 28 -134.5 39.5t-162.5 11.5q-109 0 -170.5 -54.5t-61.5 -154.5q0 -112 61 -166.5t161 -54.5q109 0 181 43t126 103zM247 1294q0 78 58 129.5t147 51.5q86 0 145.5 -52t59.5 -129q0 -76 -59 -127t-146 -51t-146 50.5t-59 127.5zM585 1294q0 51 -38 87t-95 36
q-55 0 -94 -36t-39 -87t38 -85.5t95 -34.5q59 0 96 34.5t37 85.5z" />
    <glyph glyph-name="ae" unicode="&#xe6;" horiz-adv-x="1589" 
d="M1458 477h-667q0 -221 97 -324.5t273 -103.5q150 0 264 53v-75q-93 -52 -264 -52q-264 0 -375 191q-83 -82 -173 -136.5t-205 -54.5q-137 0 -220.5 73t-83.5 220q0 127 90.5 205t233.5 78q135 0 287 -55v120q0 133 -69 201t-220 68q-99 0 -240 -47v75q30 18 100.5 31.5
t139.5 13.5q157 0 242 -51t108 -162q50 102 132.5 157.5t189.5 55.5q164 0 262 -107.5t98 -338.5v-35zM1376 549q-3 166 -73 252t-205 86q-124 0 -209 -94.5t-96 -243.5h583zM754 238q-36 89 -39 188q-75 28 -134.5 39.5t-162.5 11.5q-109 0 -170.5 -54.5t-61.5 -154.5
q0 -112 61 -166.5t161 -54.5q86 0 153 32t107 69t86 90z" />
    <glyph glyph-name="ccedilla" unicode="&#xe7;" horiz-adv-x="893" 
d="M373 -453v66q44 -16 114 -16q78 0 127.5 25.5t49.5 80.5q0 111 -211 111l49 163q-185 17 -289 144.5t-104 337.5q0 178 64.5 289.5t162.5 160.5t203 49q71 0 137 -14.5t108 -38.5v-82q-52 28 -119.5 45t-127.5 17q-87 0 -165.5 -42.5t-128.5 -138.5t-50 -247
q0 -187 98 -297.5t264 -110.5q108 0 244 57v-75q-98 -49 -226 -56l-34 -104q91 -8 148.5 -48.5t57.5 -117.5q0 -87 -64 -131.5t-183 -44.5q-82 0 -125 18z" />
    <glyph glyph-name="egrave" unicode="&#xe8;" horiz-adv-x="991" 
d="M109 477q0 146 51 255t140 167.5t200 58.5q164 0 262 -107.5t98 -338.5v-35h-667q0 -221 97 -324.5t273 -103.5q150 0 264 53v-75q-93 -52 -264 -52q-218 0 -336 131t-118 371zM500 887q-124 0 -209 -94.5t-96 -243.5h583q-3 166 -73 252t-205 86zM505 1124l-159 349h104
l127 -349h-72z" />
    <glyph glyph-name="eacute" unicode="&#xe9;" horiz-adv-x="991" 
d="M109 477q0 146 51 255t140 167.5t200 58.5q164 0 262 -107.5t98 -338.5v-35h-667q0 -221 97 -324.5t273 -103.5q150 0 264 53v-75q-93 -52 -264 -52q-218 0 -336 131t-118 371zM500 887q-124 0 -209 -94.5t-96 -243.5h583q-3 166 -73 252t-205 86zM484 1124l126 349h105
l-160 -349h-71z" />
    <glyph glyph-name="ecircumflex" unicode="&#xea;" horiz-adv-x="991" 
d="M109 477q0 146 51 255t140 167.5t200 58.5q164 0 262 -107.5t98 -338.5v-35h-667q0 -221 97 -324.5t273 -103.5q150 0 264 53v-75q-93 -52 -264 -52q-218 0 -336 131t-118 371zM500 887q-124 0 -209 -94.5t-96 -243.5h583q-3 166 -73 252t-205 86zM242 1124l217 349h96
l221 -349h-77l-191 277h-4l-184 -277h-78z" />
    <glyph glyph-name="edieresis" unicode="&#xeb;" horiz-adv-x="991" 
d="M109 477q0 146 51 255t140 167.5t200 58.5q164 0 262 -107.5t98 -338.5v-35h-667q0 -221 97 -324.5t273 -103.5q150 0 264 53v-75q-93 -52 -264 -52q-218 0 -336 131t-118 371zM500 887q-124 0 -209 -94.5t-96 -243.5h583q-3 166 -73 252t-205 86zM297 1153v119h108v-119
h-108zM653 1153v119h107v-119h-107z" />
    <glyph glyph-name="igrave" unicode="&#xec;" horiz-adv-x="436" 
d="M178 0v934h80v-934h-80zM192 1124l-159 349h104l127 -349h-72z" />
    <glyph glyph-name="iacute" unicode="&#xed;" horiz-adv-x="436" 
d="M178 0v934h80v-934h-80zM195 1124l126 349h105l-160 -349h-71z" />
    <glyph glyph-name="icircumflex" unicode="&#xee;" horiz-adv-x="436" 
d="M178 0v934h80v-934h-80zM-49 1124l217 349h96l221 -349h-77l-191 277h-4l-184 -277h-78z" />
    <glyph glyph-name="idieresis" unicode="&#xef;" horiz-adv-x="436" 
d="M178 0v934h80v-934h-80zM-12 1153v119h108v-119h-108zM344 1153v119h107v-119h-107z" />
    <glyph glyph-name="eth" unicode="&#xf0;" horiz-adv-x="1042" 
d="M909 465q0 -134 -48.5 -246t-140.5 -178t-216 -66q-122 0 -212.5 62t-138 168.5t-47.5 234.5q0 221 109 350.5t291 129.5q153 0 268 -111l6 2q-95 216 -215 358l-250 -86l-26 64l225 78q-108 112 -262 223h115q118 -83 227 -195l223 76l27 -65l-199 -68
q264 -314 264 -731zM825 479q0 140 -50.5 222.5t-124 115.5t-150.5 33q-147 0 -228.5 -108.5t-81.5 -301.5q0 -176 86.5 -283.5t227.5 -107.5q150 0 235.5 114.5t85.5 315.5z" />
    <glyph glyph-name="ntilde" unicode="&#xf1;" horiz-adv-x="1038" 
d="M242 934l14 -152h2q58 83 138.5 129.5t174.5 46.5q148 0 223.5 -87t75.5 -255v-616h-79v606q0 140 -54 209.5t-176 69.5q-85 0 -165 -52.5t-138 -142.5v-690h-80v934h64zM355 1300q-41 0 -64.5 -27.5t-23.5 -80.5h-68v6q0 70 37.5 120t120.5 50q43 0 80.5 -17t88.5 -49
q38 -25 62.5 -37t48.5 -12q46 0 67 32t21 79h70v-10q0 -70 -35 -118t-125 -48q-44 0 -82.5 17t-87.5 48q-38 24 -62.5 35.5t-47.5 11.5z" />
    <glyph glyph-name="ograve" unicode="&#xf2;" horiz-adv-x="1053" 
d="M109 465q0 224 114.5 358.5t304.5 134.5q191 0 303.5 -134t112.5 -359q0 -219 -115 -354.5t-301 -135.5q-191 0 -305 133.5t-114 356.5zM860 465q0 193 -90 306.5t-242 113.5q-154 0 -244.5 -113t-90.5 -307q0 -192 89.5 -304t245.5 -112q154 0 243 111.5t89 304.5z
M503 1124l-159 349h104l127 -349h-72z" />
    <glyph glyph-name="oacute" unicode="&#xf3;" horiz-adv-x="1053" 
d="M109 465q0 224 114.5 358.5t304.5 134.5q191 0 303.5 -134t112.5 -359q0 -219 -115 -354.5t-301 -135.5q-191 0 -305 133.5t-114 356.5zM860 465q0 193 -90 306.5t-242 113.5q-154 0 -244.5 -113t-90.5 -307q0 -192 89.5 -304t245.5 -112q154 0 243 111.5t89 304.5z
M500 1124l126 349h105l-160 -349h-71z" />
    <glyph glyph-name="ocircumflex" unicode="&#xf4;" horiz-adv-x="1053" 
d="M109 465q0 224 114.5 358.5t304.5 134.5q191 0 303.5 -134t112.5 -359q0 -219 -115 -354.5t-301 -135.5q-191 0 -305 133.5t-114 356.5zM860 465q0 193 -90 306.5t-242 113.5q-154 0 -244.5 -113t-90.5 -307q0 -192 89.5 -304t245.5 -112q154 0 243 111.5t89 304.5z
M262 1124l217 349h96l221 -349h-77l-191 277h-4l-184 -277h-78z" />
    <glyph glyph-name="otilde" unicode="&#xf5;" horiz-adv-x="1053" 
d="M109 465q0 224 114.5 358.5t304.5 134.5q191 0 303.5 -134t112.5 -359q0 -219 -115 -354.5t-301 -135.5q-191 0 -305 133.5t-114 356.5zM860 465q0 193 -90 306.5t-242 113.5q-154 0 -244.5 -113t-90.5 -307q0 -192 89.5 -304t245.5 -112q154 0 243 111.5t89 304.5z
M375 1300q-41 0 -64.5 -27.5t-23.5 -80.5h-68v6q0 70 37.5 120t120.5 50q43 0 80.5 -17t88.5 -49q38 -25 62.5 -37t48.5 -12q46 0 67 32t21 79h70v-10q0 -70 -35 -118t-125 -48q-44 0 -82.5 17t-87.5 48q-38 24 -62.5 35.5t-47.5 11.5z" />
    <glyph glyph-name="odieresis" unicode="&#xf6;" horiz-adv-x="1053" 
d="M109 465q0 224 114.5 358.5t304.5 134.5q191 0 303.5 -134t112.5 -359q0 -219 -115 -354.5t-301 -135.5q-191 0 -305 133.5t-114 356.5zM860 465q0 193 -90 306.5t-242 113.5q-154 0 -244.5 -113t-90.5 -307q0 -192 89.5 -304t245.5 -112q154 0 243 111.5t89 304.5z
M295 1153v119h108v-119h-108zM651 1153v119h107v-119h-107z" />
    <glyph glyph-name="divide" unicode="&#xf7;" 
d="M453 786v129h116v-129h-116zM115 475v78h794v-78h-794zM453 109v124h116v-124h-116z" />
    <glyph glyph-name="oslash" unicode="&#xf8;" horiz-adv-x="1053" 
d="M944 465q0 -219 -115 -354.5t-301 -135.5q-169 0 -278 107l-84 -102l-55 45l92 110q-94 130 -94 330q0 224 114.5 358.5t304.5 134.5q168 0 271 -100l78 94l55 -45l-84 -102q96 -136 96 -340zM256 201l492 596q-90 88 -220 88q-154 0 -244.5 -113t-90.5 -307
q0 -164 63 -264zM860 465q0 166 -67 274l-494 -598q89 -92 229 -92q154 0 243 111.5t89 304.5z" />
    <glyph glyph-name="ugrave" unicode="&#xf9;" horiz-adv-x="1008" 
d="M158 358v576h80v-596q0 -154 71.5 -221.5t194.5 -67.5q88 0 147.5 33t89 91t29.5 169v592h80v-578q0 -112 -20 -176t-68 -112.5t-111 -70.5t-143 -22q-86 0 -153 25.5t-111.5 71t-65 106.5t-20.5 180zM483 1124l-159 349h104l127 -349h-72z" />
    <glyph glyph-name="uacute" unicode="&#xfa;" horiz-adv-x="1008" 
d="M158 358v576h80v-596q0 -154 71.5 -221.5t194.5 -67.5q88 0 147.5 33t89 91t29.5 169v592h80v-578q0 -112 -20 -176t-68 -112.5t-111 -70.5t-143 -22q-86 0 -153 25.5t-111.5 71t-65 106.5t-20.5 180zM461 1124l126 349h105l-160 -349h-71z" />
    <glyph glyph-name="ucircumflex" unicode="&#xfb;" horiz-adv-x="1008" 
d="M158 358v576h80v-596q0 -154 71.5 -221.5t194.5 -67.5q88 0 147.5 33t89 91t29.5 169v592h80v-578q0 -112 -20 -176t-68 -112.5t-111 -70.5t-143 -22q-86 0 -153 25.5t-111.5 71t-65 106.5t-20.5 180zM240 1124l217 349h96l221 -349h-77l-191 277h-4l-184 -277h-78z" />
    <glyph glyph-name="udieresis" unicode="&#xfc;" horiz-adv-x="1008" 
d="M158 358v576h80v-596q0 -154 71.5 -221.5t194.5 -67.5q88 0 147.5 33t89 91t29.5 169v592h80v-578q0 -112 -20 -176t-68 -112.5t-111 -70.5t-143 -22q-86 0 -153 25.5t-111.5 71t-65 106.5t-20.5 180zM277 1153v119h108v-119h-108zM633 1153v119h107v-119h-107z" />
    <glyph glyph-name="yacute" unicode="&#xfd;" horiz-adv-x="918" 
d="M47 934h86q283 -764 316 -848h8l327 848h86l-565 -1399h-86l187 457zM390 1124l126 349h105l-160 -349h-71z" />
    <glyph glyph-name="thorn" unicode="&#xfe;" horiz-adv-x="1051" 
d="M248 1448v-623h2q47 58 129 95.5t160 37.5q196 0 299.5 -126.5t103.5 -356.5q0 -198 -68 -309.5t-158.5 -151t-176.5 -39.5q-186 0 -291 115h-2l2 -182v-373h-80v1913h80zM858 473q0 196 -84 304t-235 108q-77 0 -138.5 -29.5t-99.5 -65.5t-53 -61v-557q68 -65 135.5 -94
t153.5 -29q117 0 219 83.5t102 340.5z" />
    <glyph glyph-name="ydieresis" unicode="&#xff;" horiz-adv-x="918" 
d="M47 934h86q283 -764 316 -848h8l327 848h86l-565 -1399h-86l187 457zM221 1153v119h108v-119h-108zM577 1153v119h107v-119h-107z" />
    <glyph glyph-name="Amacron" unicode="&#x100;" horiz-adv-x="1260" 
d="M39 0l547 1337h86l549 -1337h-97l-192 475h-606l-191 -475h-96zM899 555l-51 129q-167 415 -215 549h-4q-41 -114 -135 -339q-29 -69 -138 -339h543zM369 1456v80h524v-80h-524z" />
    <glyph glyph-name="amacron" unicode="&#x101;" horiz-adv-x="973" 
d="M104 268q0 127 90.5 205t233.5 78q135 0 287 -55v120q0 133 -69 201t-220 68q-99 0 -240 -47v75q30 18 100.5 31.5t139.5 13.5q187 0 278 -85t91 -257v-317q0 -99 8 -299h-72l-14 109h-4q-47 -54 -134 -94t-171 -40q-137 0 -220.5 73t-83.5 220zM715 193v233
q-75 28 -134.5 39.5t-162.5 11.5q-109 0 -170.5 -54.5t-61.5 -154.5q0 -112 61 -166.5t161 -54.5q109 0 181 43t126 103zM233 1180v75h524v-75h-524z" />
    <glyph glyph-name="Abreve" unicode="&#x102;" horiz-adv-x="1260" 
d="M39 0l547 1337h86l549 -1337h-97l-192 475h-606l-191 -475h-96zM899 555l-51 129q-167 415 -215 549h-4q-41 -114 -135 -339q-29 -69 -138 -339h543zM348 1659h72q13 -87 73 -130.5t134 -43.5q83 0 140.5 47.5t68.5 126.5h72q-12 -110 -90.5 -177t-190.5 -67t-190 67.5
t-89 176.5z" />
    <glyph glyph-name="abreve" unicode="&#x103;" horiz-adv-x="973" 
d="M104 268q0 127 90.5 205t233.5 78q135 0 287 -55v120q0 133 -69 201t-220 68q-99 0 -240 -47v75q30 18 100.5 31.5t139.5 13.5q187 0 278 -85t91 -257v-317q0 -99 8 -299h-72l-14 109h-4q-47 -54 -134 -94t-171 -40q-137 0 -220.5 73t-83.5 220zM715 193v233
q-75 28 -134.5 39.5t-162.5 11.5q-109 0 -170.5 -54.5t-61.5 -154.5q0 -112 61 -166.5t161 -54.5q109 0 181 43t126 103zM195 1436h71q13 -101 69.5 -144t133.5 -43t135.5 43.5t69.5 143.5h72q-12 -118 -87.5 -187t-189.5 -69t-189 69.5t-85 186.5z" />
    <glyph glyph-name="Aogonek" unicode="&#x104;" horiz-adv-x="1260" 
d="M1116 -403q50 0 105 12v-62q-46 -16 -111 -16q-82 0 -130 49t-48 137q0 151 190 285l-190 473h-606l-191 -475h-96l547 1337h86l549 -1337q-109 -75 -161 -140.5t-52 -131.5q0 -60 27.5 -95.5t80.5 -35.5zM899 555l-51 129q-167 415 -215 549h-4q-41 -114 -135 -339
q-29 -69 -138 -339h543z" />
    <glyph glyph-name="aogonek" unicode="&#x105;" horiz-adv-x="973" 
d="M811 -391v-62q-46 -16 -111 -16q-82 0 -130 49t-48 137q0 152 207 291l-12 101h-4q-47 -54 -134 -94t-171 -40q-137 0 -220.5 73t-83.5 220q0 127 90.5 205t233.5 78q135 0 287 -55v120q0 133 -69 201t-220 68q-99 0 -240 -47v75q30 18 100.5 31.5t139.5 13.5
q187 0 278 -85t91 -257v-317q0 -99 8 -299q-93 -68 -149 -133.5t-56 -138.5q0 -60 28 -95.5t81 -35.5q49 0 104 12zM715 426q-75 28 -134.5 39.5t-162.5 11.5q-109 0 -170.5 -54.5t-61.5 -154.5q0 -112 61 -166.5t161 -54.5q109 0 181 43t126 103v233z" />
    <glyph glyph-name="Cacute" unicode="&#x106;" horiz-adv-x="1217" 
d="M137 657q0 210 85 370.5t238.5 248.5t352.5 88q82 0 163.5 -16t117.5 -37v-84q-154 55 -273 55q-164 0 -298 -71t-213 -212t-79 -344q0 -288 157.5 -443t453.5 -155q138 0 266 54v-82q-50 -26 -124.5 -40t-154.5 -14q-334 0 -513 177t-179 505zM717 1409l158 248h106
l-172 -248h-92z" />
    <glyph glyph-name="cacute" unicode="&#x107;" horiz-adv-x="893" 
d="M109 459q0 178 64.5 289.5t162.5 160.5t203 49q71 0 137 -14.5t108 -38.5v-82q-52 28 -119.5 45t-127.5 17q-87 0 -165.5 -42.5t-128.5 -138.5t-50 -247q0 -187 98 -297.5t264 -110.5q108 0 244 57v-75q-112 -56 -250 -56q-123 0 -222.5 53t-158.5 161.5t-59 269.5z
M461 1124l126 349h105l-160 -349h-71z" />
    <glyph glyph-name="Ccircumflex" unicode="&#x108;" horiz-adv-x="1217" 
d="M137 657q0 210 85 370.5t238.5 248.5t352.5 88q82 0 163.5 -16t117.5 -37v-84q-154 55 -273 55q-164 0 -298 -71t-213 -212t-79 -344q0 -288 157.5 -443t453.5 -155q138 0 266 54v-82q-50 -26 -124.5 -40t-154.5 -14q-334 0 -513 177t-179 505zM519 1409l219 248h114
l220 -248h-95l-184 184h-4l-174 -184h-96z" />
    <glyph glyph-name="ccircumflex" unicode="&#x109;" horiz-adv-x="893" 
d="M109 459q0 178 64.5 289.5t162.5 160.5t203 49q71 0 137 -14.5t108 -38.5v-82q-52 28 -119.5 45t-127.5 17q-87 0 -165.5 -42.5t-128.5 -138.5t-50 -247q0 -187 98 -297.5t264 -110.5q108 0 244 57v-75q-112 -56 -250 -56q-123 0 -222.5 53t-158.5 161.5t-59 269.5z
M252 1124l217 349h96l221 -349h-77l-191 277h-4l-184 -277h-78z" />
    <glyph glyph-name="Cdotaccent" unicode="&#x10a;" horiz-adv-x="1217" 
d="M137 657q0 210 85 370.5t238.5 248.5t352.5 88q82 0 163.5 -16t117.5 -37v-84q-154 55 -273 55q-164 0 -298 -71t-213 -212t-79 -344q0 -288 157.5 -443t453.5 -155q138 0 266 54v-82q-50 -26 -124.5 -40t-154.5 -14q-334 0 -513 177t-179 505zM709 1448v121h106v-121
h-106z" />
    <glyph glyph-name="cdotaccent" unicode="&#x10b;" horiz-adv-x="893" 
d="M109 459q0 178 64.5 289.5t162.5 160.5t203 49q71 0 137 -14.5t108 -38.5v-82q-52 28 -119.5 45t-127.5 17q-87 0 -165.5 -42.5t-128.5 -138.5t-50 -247q0 -187 98 -297.5t264 -110.5q108 0 244 57v-75q-112 -56 -250 -56q-123 0 -222.5 53t-158.5 161.5t-59 269.5z
M496 1249h92v-96h-92v96z" />
    <glyph glyph-name="Ccaron" unicode="&#x10c;" horiz-adv-x="1217" 
d="M137 657q0 210 85 370.5t238.5 248.5t352.5 88q82 0 163.5 -16t117.5 -37v-84q-154 55 -273 55q-164 0 -298 -71t-213 -212t-79 -344q0 -288 157.5 -443t453.5 -155q138 0 266 54v-82q-50 -26 -124.5 -40t-154.5 -14q-334 0 -513 177t-179 505zM521 1657h96l172 -184h4
l182 184h95l-218 -248h-114z" />
    <glyph glyph-name="ccaron" unicode="&#x10d;" horiz-adv-x="893" 
d="M109 459q0 178 64.5 289.5t162.5 160.5t203 49q71 0 137 -14.5t108 -38.5v-82q-52 28 -119.5 45t-127.5 17q-87 0 -165.5 -42.5t-128.5 -138.5t-50 -247q0 -187 98 -297.5t264 -110.5q108 0 244 57v-75q-112 -56 -250 -56q-123 0 -222.5 53t-158.5 161.5t-59 269.5z
M254 1473h78l184 -277h4l185 277h83l-221 -349h-96z" />
    <glyph glyph-name="Dcaron" unicode="&#x10e;" horiz-adv-x="1339" 
d="M440 1337q177 0 275 -20q247 -63 367 -229.5t120 -411.5q0 -256 -130.5 -432t-356.5 -224q-100 -20 -246 -20h-291v1337h262zM1108 674q0 221 -99.5 364.5t-287.5 194.5q-58 15 -130 19.5t-188 4.5h-137v-1177h144q109 0 172.5 3.5t119.5 16.5q190 42 298 195t108 379z
M348 1657h96l172 -184h4l182 184h95l-218 -248h-114z" />
    <glyph glyph-name="dcaron" unicode="&#x10f;" horiz-adv-x="1057" 
d="M109 461q0 228 110 362.5t295 134.5q96 0 166.5 -32t122.5 -101h4l-4 113v510h80v-1264q0 -116 6 -184h-60l-22 109h-4q-40 -54 -124.5 -94t-166.5 -40q-110 0 -201 51.5t-146.5 160.5t-55.5 274zM803 211v530q-123 144 -287 144q-150 0 -236.5 -115t-86.5 -313
q0 -191 85.5 -299.5t235.5 -108.5q91 0 170 45.5t119 116.5zM1104 1276q0 48 -33 73t-92 25v70l31 2q78 0 124 -40t46 -114q0 -55 -17 -99.5t-63 -102.5h-76q80 116 80 186z" />
    <glyph glyph-name="Dcroat" unicode="&#x110;" horiz-adv-x="1339" 
d="M1202 676q0 -123 -31.5 -229.5t-91 -191t-144 -142.5t-190.5 -85.5t-276 -27.5h-291v655h-119v80h119v602h262q177 0 275 -20q247 -63 367 -229.5t120 -411.5zM1108 674q0 221 -99.5 364.5t-287.5 194.5q-58 15 -130 19.5t-188 4.5h-137v-522h336v-80h-336v-575h144
q109 0 170.5 3.5t121.5 16.5q190 42 298 195t108 379z" />
    <glyph glyph-name="dcroat" unicode="&#x111;" horiz-adv-x="1057" 
d="M883 1194v-1010q0 -116 6 -184h-60l-22 109h-4q-40 -54 -124.5 -94t-166.5 -40q-110 0 -201 51.5t-146.5 160.5t-55.5 274q0 228 110 362.5t295 134.5q96 0 166.5 -32t122.5 -101h4l-4 113v256h-320v74h320v180h80v-180h180v-74h-180zM803 741q-123 144 -287 144
q-150 0 -236.5 -115t-86.5 -313q0 -191 85.5 -299.5t235.5 -108.5q91 0 170 45.5t119 116.5v530z" />
    <glyph glyph-name="Emacron" unicode="&#x112;" horiz-adv-x="1098" 
d="M178 1337h762v-80h-674v-532h617v-80h-617v-565h713v-80h-801v1337zM315 1456v80h524v-80h-524z" />
    <glyph glyph-name="emacron" unicode="&#x113;" horiz-adv-x="991" 
d="M109 477q0 146 51 255t140 167.5t200 58.5q164 0 262 -107.5t98 -338.5v-35h-667q0 -221 97 -324.5t273 -103.5q150 0 264 53v-75q-93 -52 -264 -52q-218 0 -336 131t-118 371zM500 887q-124 0 -209 -94.5t-96 -243.5h583q-3 166 -73 252t-205 86zM262 1180v75h524v-75
h-524z" />
    <glyph glyph-name="Ebreve" unicode="&#x114;" horiz-adv-x="1098" 
d="M178 1337h762v-80h-674v-532h617v-80h-617v-565h713v-80h-801v1337zM292 1659h72q13 -87 73 -130.5t134 -43.5q83 0 140.5 47.5t68.5 126.5h72q-12 -110 -90.5 -177t-190.5 -67t-190 67.5t-89 176.5z" />
    <glyph glyph-name="ebreve" unicode="&#x115;" horiz-adv-x="991" 
d="M109 477q0 146 51 255t140 167.5t200 58.5q164 0 262 -107.5t98 -338.5v-35h-667q0 -221 97 -324.5t273 -103.5q150 0 264 53v-75q-93 -52 -264 -52q-218 0 -336 131t-118 371zM500 887q-124 0 -209 -94.5t-96 -243.5h583q-3 166 -73 252t-205 86zM232 1436h71
q13 -101 69.5 -144t133.5 -43t135.5 43.5t69.5 143.5h72q-12 -118 -87.5 -187t-189.5 -69t-189 69.5t-85 186.5z" />
    <glyph glyph-name="Edotaccent" unicode="&#x116;" horiz-adv-x="1098" 
d="M178 1337h762v-80h-674v-532h617v-80h-617v-565h713v-80h-801v1337zM510 1448v121h106v-121h-106z" />
    <glyph glyph-name="edotaccent" unicode="&#x117;" horiz-adv-x="991" 
d="M109 477q0 146 51 255t140 167.5t200 58.5q164 0 262 -107.5t98 -338.5v-35h-667q0 -221 97 -324.5t273 -103.5q150 0 264 53v-75q-93 -52 -264 -52q-218 0 -336 131t-118 371zM500 887q-124 0 -209 -94.5t-96 -243.5h583q-3 166 -73 252t-205 86zM479 1249h92v-96h-92
v96z" />
    <glyph glyph-name="Eogonek" unicode="&#x118;" horiz-adv-x="1098" 
d="M983 -391v-62q-46 -16 -111 -16q-82 0 -130 49t-48 137q0 149 187 283h-703v1337h762v-80h-674v-532h617v-80h-617v-565h713v-80h-2q-93 -68 -150 -134.5t-57 -137.5q0 -60 28 -95.5t81 -35.5q48 0 104 12z" />
    <glyph glyph-name="eogonek" unicode="&#x119;" horiz-adv-x="991" 
d="M860 477h-667q0 -221 97 -324.5t273 -103.5q150 0 264 53v-75q-235 -145 -235 -287q0 -60 28 -95.5t80 -35.5q50 0 105 12v-61q-45 -17 -111 -17q-82 0 -130 49.5t-48 137.5q0 132 146 252q-41 -7 -99 -7q-218 0 -336 131t-118 371q0 146 51 255t140 167.5t200 58.5
q164 0 262 -107.5t98 -338.5v-35zM778 549q-3 166 -73 252t-205 86q-124 0 -209 -94.5t-96 -243.5h583z" />
    <glyph glyph-name="Ecaron" unicode="&#x11a;" horiz-adv-x="1098" 
d="M178 1337h762v-80h-674v-532h617v-80h-617v-565h713v-80h-801v1337zM289 1657h96l172 -184h4l182 184h95l-218 -248h-114z" />
    <glyph glyph-name="ecaron" unicode="&#x11b;" horiz-adv-x="991" 
d="M109 477q0 146 51 255t140 167.5t200 58.5q164 0 262 -107.5t98 -338.5v-35h-667q0 -221 97 -324.5t273 -103.5q150 0 264 53v-75q-93 -52 -264 -52q-218 0 -336 131t-118 371zM500 887q-124 0 -209 -94.5t-96 -243.5h583q-3 166 -73 252t-205 86zM266 1473h78l184 -277
h4l185 277h83l-221 -349h-96z" />
    <glyph glyph-name="Gcircumflex" unicode="&#x11c;" horiz-adv-x="1360" 
d="M137 639q0 223 93.5 387t258 251t373.5 87q88 0 163.5 -15t107.5 -32v-86q-51 19 -132 34t-151 15q-164 0 -305 -69t-227.5 -210t-86.5 -346q0 -287 161 -445.5t456 -158.5q110 0 246 41v486h-310v84h398v-621q-30 -25 -136.5 -45.5t-214.5 -20.5q-325 0 -509.5 176.5
t-184.5 487.5zM507 1409l219 248h114l220 -248h-95l-184 184h-4l-174 -184h-96z" />
    <glyph glyph-name="gcircumflex" unicode="&#x11d;" horiz-adv-x="1061" 
d="M176 -438v88q73 -36 132 -51t143 -15q352 0 352 375v141h-4q-47 -54 -122.5 -89.5t-164.5 -35.5q-188 0 -295.5 129.5t-107.5 356.5q0 232 111.5 364.5t311.5 132.5q97 0 163.5 -40.5t107.5 -86.5h4l12 103h64v-977q0 -159 -49.5 -254.5t-146 -143.5t-241.5 -48
q-85 0 -158 14.5t-112 36.5zM803 184v557q-38 57 -116 100.5t-157 43.5q-159 0 -248 -112.5t-89 -309.5q0 -199 84.5 -306.5t244.5 -107.5q73 0 148.5 36t132.5 99zM244 1124l217 349h96l221 -349h-77l-191 277h-4l-184 -277h-78z" />
    <glyph glyph-name="Gbreve" unicode="&#x11e;" horiz-adv-x="1360" 
d="M137 639q0 223 93.5 387t258 251t373.5 87q88 0 163.5 -15t107.5 -32v-86q-51 19 -132 34t-151 15q-164 0 -305 -69t-227.5 -210t-86.5 -346q0 -287 161 -445.5t456 -158.5q110 0 246 41v486h-310v84h398v-621q-30 -25 -136.5 -45.5t-214.5 -20.5q-325 0 -509.5 176.5
t-184.5 487.5zM477 1659h72q13 -87 73 -130.5t134 -43.5q83 0 140.5 47.5t68.5 126.5h72q-12 -110 -90.5 -177t-190.5 -67t-190 67.5t-89 176.5z" />
    <glyph glyph-name="gbreve" unicode="&#x11f;" horiz-adv-x="1061" 
d="M176 -438v88q73 -36 132 -51t143 -15q352 0 352 375v141h-4q-47 -54 -122.5 -89.5t-164.5 -35.5q-188 0 -295.5 129.5t-107.5 356.5q0 232 111.5 364.5t311.5 132.5q97 0 163.5 -40.5t107.5 -86.5h4l12 103h64v-977q0 -159 -49.5 -254.5t-146 -143.5t-241.5 -48
q-85 0 -158 14.5t-112 36.5zM803 184v557q-38 57 -116 100.5t-157 43.5q-159 0 -248 -112.5t-89 -309.5q0 -199 84.5 -306.5t244.5 -107.5q73 0 148.5 36t132.5 99zM234 1436h71q13 -101 69.5 -144t133.5 -43t135.5 43.5t69.5 143.5h72q-12 -118 -87.5 -187t-189.5 -69
t-189 69.5t-85 186.5z" />
    <glyph glyph-name="Gdotaccent" unicode="&#x120;" horiz-adv-x="1360" 
d="M137 639q0 223 93.5 387t258 251t373.5 87q88 0 163.5 -15t107.5 -32v-86q-51 19 -132 34t-151 15q-164 0 -305 -69t-227.5 -210t-86.5 -346q0 -287 161 -445.5t456 -158.5q110 0 246 41v486h-310v84h398v-621q-30 -25 -136.5 -45.5t-214.5 -20.5q-325 0 -509.5 176.5
t-184.5 487.5zM735 1448v121h106v-121h-106z" />
    <glyph glyph-name="gdotaccent" unicode="&#x121;" horiz-adv-x="1061" 
d="M176 -438v88q73 -36 132 -51t143 -15q352 0 352 375v141h-4q-47 -54 -122.5 -89.5t-164.5 -35.5q-188 0 -295.5 129.5t-107.5 356.5q0 232 111.5 364.5t311.5 132.5q97 0 163.5 -40.5t107.5 -86.5h4l12 103h64v-977q0 -159 -49.5 -254.5t-146 -143.5t-241.5 -48
q-85 0 -158 14.5t-112 36.5zM803 184v557q-38 57 -116 100.5t-157 43.5q-159 0 -248 -112.5t-89 -309.5q0 -199 84.5 -306.5t244.5 -107.5q73 0 148.5 36t132.5 99zM487 1249h92v-96h-92v96z" />
    <glyph glyph-name="uni0122" unicode="&#x122;" horiz-adv-x="1360" 
d="M137 639q0 223 93.5 387t258 251t373.5 87q88 0 163.5 -15t107.5 -32v-86q-51 19 -132 34t-151 15q-164 0 -305 -69t-227.5 -210t-86.5 -346q0 -287 161 -445.5t456 -158.5q110 0 246 41v486h-310v84h398v-621q-30 -25 -136.5 -45.5t-214.5 -20.5q-325 0 -509.5 176.5
t-184.5 487.5zM742 -303q0 48 -33 73t-92 25v70l31 2q78 0 124 -40t46 -114q0 -55 -17 -99.5t-63 -102.5h-76q80 116 80 186z" />
    <glyph glyph-name="uni0123" unicode="&#x123;" horiz-adv-x="1051" 
d="M459 1286q0 -48 33 -73t92 -25v-70l-31 -2q-78 0 -124 40t-46 114q0 56 17 100.5t63 102.5h76q-80 -117 -80 -187zM176 -438v88q73 -36 132 -51t143 -15q352 0 352 375v141h-4q-47 -54 -122.5 -89.5t-164.5 -35.5q-188 0 -295.5 129.5t-107.5 356.5q0 232 111.5 364.5
t311.5 132.5q97 0 163.5 -40.5t107.5 -86.5h4l12 103h64v-977q0 -159 -49.5 -254.5t-146 -143.5t-241.5 -48q-85 0 -158 14.5t-112 36.5zM803 184v557q-38 57 -116 100.5t-157 43.5q-159 0 -248 -112.5t-89 -309.5q0 -199 84.5 -306.5t244.5 -107.5q73 0 148.5 36t132.5 99z
" />
    <glyph glyph-name="Hcircumflex" unicode="&#x124;" horiz-adv-x="1309" 
d="M178 1337h88v-608h776v608h88v-1337h-88v649h-776v-649h-88v1337zM377 1409l219 248h114l220 -248h-95l-184 184h-4l-174 -184h-96z" />
    <glyph glyph-name="hcircumflex" unicode="&#x125;" horiz-adv-x="1038" 
d="M258 1448v-559l-4 -107h4q128 176 313 176q155 0 227 -90.5t72 -251.5v-616h-79v623q0 123 -54.5 192.5t-169.5 69.5q-179 0 -309 -195v-690h-80v1448h80zM277 1520l219 248h114l220 -248h-95l-184 184h-4l-174 -184h-96z" />
    <glyph glyph-name="Hbar" unicode="&#x126;" horiz-adv-x="1309" 
d="M1255 1055v-78h-125v-977h-88v649h-776v-649h-88v977h-125v78h125v282h88v-282h776v282h88v-282h125zM1042 729v248h-776v-248h776z" />
    <glyph glyph-name="hbar" unicode="&#x127;" horiz-adv-x="1038" 
d="M870 616v-616h-79v623q0 123 -54.5 192.5t-169.5 69.5q-179 0 -309 -195v-690h-80v1194h-178v74h178v180h80v-180h281v-74h-281v-305l-4 -107h4q128 176 313 176q155 0 227 -90.5t72 -251.5z" />
    <glyph glyph-name="Itilde" unicode="&#x128;" horiz-adv-x="444" 
d="M178 1337h88v-1337h-88v1337zM84 1548q-39 0 -59.5 -27.5t-20.5 -74.5h-72v6q0 70 37.5 120t120.5 50q46 0 83 -15.5t84 -44.5q38 -23 63.5 -34.5t52.5 -11.5q38 0 59.5 29.5t21.5 72.5h74v-10q0 -69 -36 -115.5t-126 -46.5q-46 0 -82.5 14.5t-86.5 43.5q-39 23 -63 33.5
t-50 10.5z" />
    <glyph glyph-name="itilde" unicode="&#x129;" horiz-adv-x="436" 
d="M178 0v934h80v-934h-80zM73 1300q-41 0 -64.5 -27.5t-23.5 -80.5h-68v6q0 70 37.5 120t120.5 50q43 0 80.5 -17t88.5 -49q38 -25 62.5 -37t48.5 -12q46 0 67 32t21 79h70v-10q0 -70 -35 -118t-125 -48q-44 0 -82.5 17t-87.5 48q-38 24 -62.5 35.5t-47.5 11.5z" />
    <glyph glyph-name="Imacron" unicode="&#x12a;" horiz-adv-x="444" 
d="M178 1337h88v-1337h-88v1337zM-35 1456v80h524v-80h-524z" />
    <glyph glyph-name="imacron" unicode="&#x12b;" horiz-adv-x="436" 
d="M178 0v934h80v-934h-80zM-43 1180v75h524v-75h-524z" />
    <glyph glyph-name="Ibreve" unicode="&#x12c;" horiz-adv-x="444" 
d="M178 1337h88v-1337h-88v1337zM-56 1659h72q13 -87 73 -130.5t134 -43.5q83 0 140.5 47.5t68.5 126.5h72q-12 -110 -90.5 -177t-190.5 -67t-190 67.5t-89 176.5z" />
    <glyph glyph-name="ibreve" unicode="&#x12d;" horiz-adv-x="436" 
d="M178 0v934h80v-934h-80zM-61 1436h71q13 -101 69.5 -144t133.5 -43t135.5 43.5t69.5 143.5h72q-12 -118 -87.5 -187t-189.5 -69t-189 69.5t-85 186.5z" />
    <glyph glyph-name="Iogonek" unicode="&#x12e;" horiz-adv-x="444" 
d="M299 -408v-65q-46 -16 -111 -16q-82 0 -132 51.5t-50 134.5q0 94 42.5 162.5t129.5 142.5v1335h88v-1335q-87 -56 -133.5 -130t-46.5 -159q0 -51 26 -92t83 -41q37 0 104 12z" />
    <glyph glyph-name="iogonek" unicode="&#x12f;" horiz-adv-x="436" 
d="M268 1249v-96h-92v96h92zM315 -391v-62q-45 -16 -110 -16q-83 0 -134 50.5t-51 137.5t37.5 156.5t124.5 130.5v928h80v-934q-166 -120 -166 -270q0 -59 31 -96t84 -37q50 0 104 12z" />
    <glyph glyph-name="Idotaccent" unicode="&#x130;" horiz-adv-x="444" 
d="M178 1337h88v-1337h-88v1337zM168 1448v121h106v-121h-106z" />
    <glyph glyph-name="dotlessi" unicode="&#x131;" horiz-adv-x="436" 
d="M178 0v934h80v-934h-80z" />
    <glyph glyph-name="IJ" unicode="&#x132;" horiz-adv-x="1159" 
d="M178 1337h88v-1337h-88v1337zM514 4v86q76 -31 155 -31q103 0 165.5 50.5t62.5 185.5v1042h88v-1069q0 -78 -34.5 -147.5t-102.5 -107.5t-173 -38q-115 2 -161 29z" />
    <glyph glyph-name="ij" unicode="&#x133;" horiz-adv-x="872" 
d="M172 1249h92v-96h-92v96zM178 934h80v-934h-80v934zM608 1249h92v-96h-92v96zM334 -473v76q62 -19 122 -19q75 0 116.5 41.5t41.5 112.5v1196h80v-1215q0 -98 -66.5 -153t-173.5 -55q-63 0 -120 16z" />
    <glyph glyph-name="Jcircumflex" unicode="&#x134;" horiz-adv-x="715" 
d="M70 4v86q76 -31 155 -31q103 0 165.5 50.5t62.5 185.5v1042h88v-1069q0 -78 -34.5 -147.5t-102.5 -107.5t-173 -38q-115 2 -161 29zM227 1409l219 248h114l220 -248h-95l-184 184h-4l-174 -184h-96z" />
    <glyph glyph-name="jcircumflex" unicode="&#x135;" horiz-adv-x="436" 
d="M-102 -473v76q62 -19 122 -19q75 0 116.5 41.5t41.5 112.5v1196h80v-1215q0 -98 -66.5 -153t-173.5 -55q-63 0 -120 16zM-52 1124l217 349h96l221 -349h-77l-191 277h-4l-184 -277h-78z" />
    <glyph glyph-name="uni0136" unicode="&#x136;" horiz-adv-x="1151" 
d="M1102 0h-121l-713 662h-2v-662h-88v1337h88v-665h2l676 665h107l-670 -669zM561 -303q0 48 -33 73t-92 25v70l31 2q78 0 124 -40t46 -114q0 -55 -17 -99.5t-63 -102.5h-76q80 116 80 186z" />
    <glyph glyph-name="uni0137" unicode="&#x137;" horiz-adv-x="905" 
d="M860 934l-502 -422l500 -512h-106l-492 508h-2v-508h-80v1448h80v-922h2l490 408h110zM498 -303q0 48 -33 73t-92 25v70l31 2q78 0 124 -40t46 -114q0 -55 -17 -99.5t-63 -102.5h-76q80 116 80 186z" />
    <glyph glyph-name="kgreenlandic" unicode="&#x138;" horiz-adv-x="932" 
d="M834 934l-478 -455l502 -479h-104l-494 465h-2v-465h-80v934h80v-451h2l465 451h109z" />
    <glyph glyph-name="Lacute" unicode="&#x139;" horiz-adv-x="1034" 
d="M178 1337h88v-1257h678v-80h-766v1337zM184 1409l158 248h106l-172 -248h-92z" />
    <glyph glyph-name="lacute" unicode="&#x13a;" horiz-adv-x="436" 
d="M178 1448h80v-1448h-80v1448zM178 1520l158 248h106l-172 -248h-92z" />
    <glyph glyph-name="uni013B" unicode="&#x13b;" horiz-adv-x="1034" 
d="M178 1337h88v-1257h678v-80h-766v1337zM561 -303q0 48 -33 73t-92 25v70l31 2q78 0 124 -40t46 -114q0 -55 -17 -99.5t-63 -102.5h-76q80 116 80 186z" />
    <glyph glyph-name="uni013C" unicode="&#x13c;" horiz-adv-x="436" 
d="M178 1448h80v-1448h-80v1448zM254 -303q0 48 -33 73t-92 25v70l31 2q78 0 124 -40t46 -114q0 -55 -17 -99.5t-63 -102.5h-76q80 116 80 186z" />
    <glyph glyph-name="Lcaron" unicode="&#x13d;" horiz-adv-x="1034" 
d="M178 1337h88v-1257h678v-80h-766v1337zM701 1178q0 48 -33 73t-92 25v70l31 2q78 0 124 -40t46 -114q0 -55 -17 -99.5t-63 -102.5h-76q80 116 80 186z" />
    <glyph glyph-name="lcaron" unicode="&#x13e;" horiz-adv-x="436" 
d="M178 1448h80v-1448h-80v1448zM481 1278q0 48 -33 73t-92 25v70l31 2q78 0 124 -40t46 -114q0 -55 -17 -99.5t-63 -102.5h-76q80 116 80 186z" />
    <glyph glyph-name="Ldot" unicode="&#x13f;" horiz-adv-x="1034" 
d="M178 1337h88v-1257h678v-80h-766v1337zM584 644v129h123v-129h-123z" />
    <glyph glyph-name="ldot" unicode="&#x140;" horiz-adv-x="527" 
d="M178 1448h80v-1448h-80v1448zM404 644v129h123v-129h-123z" />
    <glyph glyph-name="Lslash" unicode="&#x141;" horiz-adv-x="1034" 
d="M266 80h678v-80h-766v582l-143 -62v84l143 62v671h88v-635l404 175v-84l-404 -175v-538z" />
    <glyph glyph-name="lslash" unicode="&#x142;" horiz-adv-x="438" 
d="M477 975v-90l-219 -146v-739h-80v686l-196 -131v90l196 131v672h80v-619z" />
    <glyph glyph-name="Nacute" unicode="&#x143;" horiz-adv-x="1366" 
d="M254 1337l602 -841l252 -361h6q-14 126 -14 414v788h88v-1337h-76l-604 850l-250 354h-4q12 -126 12 -469v-735h-88v1337h76zM643 1409l158 248h106l-172 -248h-92z" />
    <glyph glyph-name="nacute" unicode="&#x144;" horiz-adv-x="1038" 
d="M242 934l14 -152h2q58 83 138.5 129.5t174.5 46.5q148 0 223.5 -87t75.5 -255v-616h-79v606q0 140 -54 209.5t-176 69.5q-85 0 -165 -52.5t-138 -142.5v-690h-80v934h64zM496 1124l126 349h105l-160 -349h-71z" />
    <glyph glyph-name="uni0145" unicode="&#x145;" horiz-adv-x="1366" 
d="M254 1337l602 -841l252 -361h6q-14 126 -14 414v788h88v-1337h-76l-604 850l-250 354h-4q12 -126 12 -469v-735h-88v1337h76zM705 -303q0 48 -33 73t-92 25v70l31 2q78 0 124 -40t46 -114q0 -55 -17 -99.5t-63 -102.5h-76q80 116 80 186z" />
    <glyph glyph-name="uni0146" unicode="&#x146;" horiz-adv-x="1038" 
d="M242 934l14 -152h2q58 83 138.5 129.5t174.5 46.5q148 0 223.5 -87t75.5 -255v-616h-79v606q0 140 -54 209.5t-176 69.5q-85 0 -165 -52.5t-138 -142.5v-690h-80v934h64zM572 -303q0 48 -33 73t-92 25v70l31 2q78 0 124 -40t46 -114q0 -55 -17 -99.5t-63 -102.5h-76
q80 116 80 186z" />
    <glyph glyph-name="Ncaron" unicode="&#x147;" horiz-adv-x="1366" 
d="M254 1337l602 -841l252 -361h6q-14 126 -14 414v788h88v-1337h-76l-604 850l-250 354h-4q12 -126 12 -469v-735h-88v1337h76zM418 1657h96l172 -184h4l182 184h95l-218 -248h-114z" />
    <glyph glyph-name="ncaron" unicode="&#x148;" horiz-adv-x="1038" 
d="M242 934l14 -152h2q58 83 138.5 129.5t174.5 46.5q148 0 223.5 -87t75.5 -255v-616h-79v606q0 140 -54 209.5t-176 69.5q-85 0 -165 -52.5t-138 -142.5v-690h-80v934h64zM262 1473h78l184 -277h4l185 277h83l-221 -349h-96z" />
    <glyph glyph-name="napostrophe" unicode="&#x149;" horiz-adv-x="1038" 
d="M83 1276q0 48 -33 73t-92 25v70l31 2q78 0 124 -40t46 -114q0 -55 -17 -99.5t-63 -102.5h-76q80 116 80 186zM242 934l14 -152h2q58 83 138.5 129.5t174.5 46.5q148 0 223.5 -87t75.5 -255v-616h-79v606q0 140 -54 209.5t-176 69.5q-85 0 -165 -52.5t-138 -142.5v-690
h-80v934h64z" />
    <glyph glyph-name="Eng" unicode="&#x14a;" horiz-adv-x="1366" 
d="M1188 1337v-1542q0 -209 -256 -209q-35 0 -103 11v79q58 -12 93 -12q97 0 142.5 35t45.5 115v188l-602 848l-250 354h-4q12 -126 12 -469v-735h-88v1337h76l602 -841l252 -361h6q-14 126 -14 414v788h88z" />
    <glyph glyph-name="eng" unicode="&#x14b;" horiz-adv-x="1028" 
d="M870 616v-794q0 -97 -65.5 -149t-173.5 -52q-65 0 -121 8v76q62 -10 123 -10q75 0 116.5 37.5t41.5 107.5v766q0 140 -54 209.5t-176 69.5q-85 0 -165 -52.5t-138 -142.5v-690h-80v934h64l14 -152h2q58 83 138.5 129.5t174.5 46.5q148 0 223.5 -87t75.5 -255z" />
    <glyph glyph-name="Omacron" unicode="&#x14c;" horiz-adv-x="1487" 
d="M137 668q0 199 77.5 358t215.5 248.5t313 89.5q183 0 320.5 -89.5t212 -247.5t74.5 -359q0 -198 -77 -356t-214.5 -247.5t-310.5 -89.5q-185 0 -323.5 89t-213 246.5t-74.5 357.5zM1255 668q0 192 -68 331.5t-184.5 212t-259.5 72.5q-141 0 -258 -72.5t-185.5 -212
t-68.5 -331.5q0 -194 69 -332.5t186.5 -209.5t261.5 -71q141 0 256 71t183 209.5t68 332.5zM479 1456v80h524v-80h-524z" />
    <glyph glyph-name="omacron" unicode="&#x14d;" horiz-adv-x="1053" 
d="M109 465q0 224 114.5 358.5t304.5 134.5q191 0 303.5 -134t112.5 -359q0 -219 -115 -354.5t-301 -135.5q-191 0 -305 133.5t-114 356.5zM860 465q0 193 -90 306.5t-242 113.5q-154 0 -244.5 -113t-90.5 -307q0 -192 89.5 -304t245.5 -112q154 0 243 111.5t89 304.5z
M264 1180v75h524v-75h-524z" />
    <glyph glyph-name="Obreve" unicode="&#x14e;" horiz-adv-x="1487" 
d="M137 668q0 199 77.5 358t215.5 248.5t313 89.5q183 0 320.5 -89.5t212 -247.5t74.5 -359q0 -198 -77 -356t-214.5 -247.5t-310.5 -89.5q-185 0 -323.5 89t-213 246.5t-74.5 357.5zM1255 668q0 192 -68 331.5t-184.5 212t-259.5 72.5q-141 0 -258 -72.5t-185.5 -212
t-68.5 -331.5q0 -194 69 -332.5t186.5 -209.5t261.5 -71q141 0 256 71t183 209.5t68 332.5zM466 1659h72q13 -87 73 -130.5t134 -43.5q83 0 140.5 47.5t68.5 126.5h72q-12 -110 -90.5 -177t-190.5 -67t-190 67.5t-89 176.5z" />
    <glyph glyph-name="obreve" unicode="&#x14f;" horiz-adv-x="1053" 
d="M109 465q0 224 114.5 358.5t304.5 134.5q191 0 303.5 -134t112.5 -359q0 -219 -115 -354.5t-301 -135.5q-191 0 -305 133.5t-114 356.5zM860 465q0 193 -90 306.5t-242 113.5q-154 0 -244.5 -113t-90.5 -307q0 -192 89.5 -304t245.5 -112q154 0 243 111.5t89 304.5z
M252 1436h71q13 -101 69.5 -144t133.5 -43t135.5 43.5t69.5 143.5h72q-12 -118 -87.5 -187t-189.5 -69t-189 69.5t-85 186.5z" />
    <glyph glyph-name="Ohungarumlaut" unicode="&#x150;" horiz-adv-x="1487" 
d="M137 668q0 199 77.5 358t215.5 248.5t313 89.5q183 0 320.5 -89.5t212 -247.5t74.5 -359q0 -198 -77 -356t-214.5 -247.5t-310.5 -89.5q-185 0 -323.5 89t-213 246.5t-74.5 357.5zM1255 668q0 192 -68 331.5t-184.5 212t-259.5 72.5q-141 0 -258 -72.5t-185.5 -212
t-68.5 -331.5q0 -194 69 -332.5t186.5 -209.5t261.5 -71q141 0 256 71t183 209.5t68 332.5zM553 1409l131 248h115l-162 -248h-84zM821 1409l132 248h114l-162 -248h-84z" />
    <glyph glyph-name="ohungarumlaut" unicode="&#x151;" horiz-adv-x="1053" 
d="M109 465q0 224 114.5 358.5t304.5 134.5q191 0 303.5 -134t112.5 -359q0 -219 -115 -354.5t-301 -135.5q-191 0 -305 133.5t-114 356.5zM860 465q0 193 -90 306.5t-242 113.5q-154 0 -244.5 -113t-90.5 -307q0 -192 89.5 -304t245.5 -112q154 0 243 111.5t89 304.5z
M354 1124l127 349h105l-160 -349h-72zM641 1124l127 349h104l-159 -349h-72z" />
    <glyph glyph-name="OE" unicode="&#x152;" horiz-adv-x="2169" 
d="M2050 80v-80h-801v301q-74 -150 -204.5 -238t-296.5 -88q-185 0 -323.5 89t-213 246.5t-74.5 357.5q0 199 77.5 358t215.5 248.5t313 89.5q173 0 303 -86t203 -234v293h762v-80h-674v-532h617v-80h-617v-565h713zM1249 668q0 193 -67 332t-182 211.5t-257 72.5
q-141 0 -258 -72.5t-185.5 -212t-68.5 -331.5q0 -194 69 -332.5t186.5 -209.5t261.5 -71q141 0 254.5 71t180 209t66.5 333z" />
    <glyph glyph-name="oe" unicode="&#x153;" horiz-adv-x="1743" 
d="M1612 477h-668q0 -221 97.5 -324.5t273.5 -103.5q147 0 264 53v-75q-93 -52 -264 -52q-157 0 -262.5 70.5t-151.5 208.5q-44 -130 -140.5 -204.5t-232.5 -74.5q-191 0 -305 133.5t-114 356.5q0 224 114.5 358.5t304.5 134.5q139 0 234 -71.5t139 -200.5q43 129 135 200.5
t215 71.5q164 0 262.5 -107.5t98.5 -338.5v-35zM1530 549q-3 166 -73.5 252t-205.5 86q-123 0 -207.5 -94t-97.5 -244h584zM860 465q0 193 -90 306.5t-242 113.5q-154 0 -244.5 -113t-90.5 -307q0 -192 89.5 -304t245.5 -112q154 0 243 111.5t89 304.5z" />
    <glyph glyph-name="Racute" unicode="&#x154;" horiz-adv-x="1145" 
d="M471 1337q125 0 195 -10q325 -63 325 -344q0 -164 -107 -270t-282 -115v-4l467 -594h-108l-467 588h-228v-588h-88v1337h293zM899 985q0 150 -114 211t-324 61h-195v-589h199q218 0 326 74t108 243zM410 1409l158 248h106l-172 -248h-92z" />
    <glyph glyph-name="racute" unicode="&#x155;" horiz-adv-x="670" 
d="M242 934l14 -166h2q55 82 156.5 136t208.5 54h26v-79h-26q-110 0 -211.5 -60t-153.5 -157v-662h-80v934h64zM312 1124l126 349h105l-160 -349h-71z" />
    <glyph glyph-name="uni0156" unicode="&#x156;" horiz-adv-x="1145" 
d="M471 1337q125 0 195 -10q325 -63 325 -344q0 -164 -107 -270t-282 -115v-4l467 -594h-108l-467 588h-228v-588h-88v1337h293zM899 985q0 150 -114 211t-324 61h-195v-589h199q218 0 326 74t108 243zM629 -303q0 48 -33 73t-92 25v70l31 2q78 0 124 -40t46 -114
q0 -55 -17 -99.5t-63 -102.5h-76q80 116 80 186z" />
    <glyph glyph-name="uni0157" unicode="&#x157;" horiz-adv-x="659" 
d="M295 -303q0 48 -33 73t-92 25v70l31 2q78 0 124 -40t46 -114q0 -55 -17 -99.5t-63 -102.5h-76q80 116 80 186zM242 934l14 -166h2q55 82 156.5 136t208.5 54h26v-79h-26q-110 0 -211.5 -60t-153.5 -157v-662h-80v934h64z" />
    <glyph glyph-name="Rcaron" unicode="&#x158;" horiz-adv-x="1145" 
d="M471 1337q125 0 195 -10q325 -63 325 -344q0 -164 -107 -270t-282 -115v-4l467 -594h-108l-467 588h-228v-588h-88v1337h293zM899 985q0 150 -114 211t-324 61h-195v-589h199q218 0 326 74t108 243zM250 1657h96l172 -184h4l182 184h95l-218 -248h-114z" />
    <glyph glyph-name="rcaron" unicode="&#x159;" horiz-adv-x="670" 
d="M242 934l14 -166h2q55 82 156.5 136t208.5 54h26v-79h-26q-110 0 -211.5 -60t-153.5 -157v-662h-80v934h64zM113 1473h78l184 -277h4l185 277h83l-221 -349h-96z" />
    <glyph glyph-name="Sacute" unicode="&#x15a;" horiz-adv-x="1081" 
d="M137 47v96q49 -30 160 -58t184 -28q180 0 279.5 67t99.5 228q0 81 -33.5 134t-91.5 85t-208 73q-130 33 -209 65.5t-133 101t-54 184.5q0 167 120.5 268t315.5 101q128 0 250 -37q49 -18 88 -37v-96q-61 28 -104.5 45.5t-105 30.5t-134.5 14q-173 0 -256.5 -80
t-83.5 -213q0 -84 36.5 -132t98.5 -74t185 -60q138 -38 216 -70.5t135.5 -104t57.5 -194.5q0 -180 -123.5 -280.5t-351.5 -100.5q-94 0 -196 25t-142 47zM491 1409l158 248h106l-172 -248h-92z" />
    <glyph glyph-name="sacute" unicode="&#x15b;" horiz-adv-x="791" 
d="M104 23v83q108 -59 254 -59q119 0 188.5 55.5t69.5 155.5q0 76 -46 117t-154 67q-99 24 -162 50t-103 76t-40 132q0 131 88 194.5t225 63.5q125 0 233 -53v-78q-58 29 -112.5 44.5t-126.5 15.5q-113 0 -171.5 -47t-58.5 -133q0 -60 27.5 -93.5t75.5 -51.5t145 -42
q135 -34 196.5 -91.5t61.5 -164.5q0 -132 -90 -210.5t-246 -78.5q-168 0 -254 48zM345 1124l126 349h105l-160 -349h-71z" />
    <glyph glyph-name="Scircumflex" unicode="&#x15c;" horiz-adv-x="1081" 
d="M137 47v96q49 -30 160 -58t184 -28q180 0 279.5 67t99.5 228q0 81 -33.5 134t-91.5 85t-208 73q-130 33 -209 65.5t-133 101t-54 184.5q0 167 120.5 268t315.5 101q128 0 250 -37q49 -18 88 -37v-96q-61 28 -104.5 45.5t-105 30.5t-134.5 14q-173 0 -256.5 -80
t-83.5 -213q0 -84 36.5 -132t98.5 -74t185 -60q138 -38 216 -70.5t135.5 -104t57.5 -194.5q0 -180 -123.5 -280.5t-351.5 -100.5q-94 0 -196 25t-142 47zM293 1409l219 248h114l220 -248h-95l-184 184h-4l-174 -184h-96z" />
    <glyph glyph-name="scircumflex" unicode="&#x15d;" horiz-adv-x="791" 
d="M104 23v83q108 -59 254 -59q119 0 188.5 55.5t69.5 155.5q0 76 -46 117t-154 67q-99 24 -162 50t-103 76t-40 132q0 131 88 194.5t225 63.5q125 0 233 -53v-78q-58 29 -112.5 44.5t-126.5 15.5q-113 0 -171.5 -47t-58.5 -133q0 -60 27.5 -93.5t75.5 -51.5t145 -42
q135 -34 196.5 -91.5t61.5 -164.5q0 -132 -90 -210.5t-246 -78.5q-168 0 -254 48zM152 1124l217 349h96l221 -349h-77l-191 277h-4l-184 -277h-78z" />
    <glyph glyph-name="Scedilla" unicode="&#x15e;" horiz-adv-x="1081" 
d="M489 -129q92 -8 149.5 -48.5t57.5 -117.5q0 -87 -64 -131.5t-183 -44.5q-82 0 -125 18v66q42 -16 114 -16q78 0 127 25.5t49 80.5q0 111 -211 111l50 161q-79 3 -174 25t-142 47v96q49 -30 160 -58t184 -28q180 0 279.5 67t99.5 228q0 81 -33.5 134t-91.5 85t-208 73
q-130 33 -209 65.5t-133 101t-54 184.5q0 167 120.5 268t315.5 101q128 0 250 -37q49 -18 88 -37v-96q-61 28 -104.5 45.5t-105 30.5t-134.5 14q-173 0 -256.5 -80t-83.5 -213q0 -84 36.5 -132t98.5 -74t185 -60q138 -38 216 -70.5t135.5 -104t57.5 -194.5q0 -181 -116 -275
t-310 -104z" />
    <glyph glyph-name="scedilla" unicode="&#x15f;" horiz-adv-x="791" 
d="M209 -453v66q44 -16 115 -16q78 0 127 25.5t49 80.5q0 111 -211 111l49 161q-143 3 -234 48v83q108 -59 254 -59q119 0 188.5 55.5t69.5 155.5q0 76 -46 117t-154 67q-99 24 -162 50t-103 76t-40 132q0 131 88 194.5t225 63.5q125 0 233 -53v-78q-58 29 -112.5 44.5
t-126.5 15.5q-113 0 -171.5 -47t-58.5 -133q0 -60 27.5 -93.5t75.5 -51.5t145 -42q135 -34 196.5 -91.5t61.5 -164.5q0 -124 -77 -199t-207 -88l-35 -106q91 -8 149 -48.5t58 -117.5q0 -87 -64 -131.5t-184 -44.5q-82 0 -125 18z" />
    <glyph glyph-name="Scaron" unicode="&#x160;" horiz-adv-x="1081" 
d="M137 47v96q49 -30 160 -58t184 -28q180 0 279.5 67t99.5 228q0 81 -33.5 134t-91.5 85t-208 73q-130 33 -209 65.5t-133 101t-54 184.5q0 167 120.5 268t315.5 101q128 0 250 -37q49 -18 88 -37v-96q-61 28 -104.5 45.5t-105 30.5t-134.5 14q-173 0 -256.5 -80
t-83.5 -213q0 -84 36.5 -132t98.5 -74t185 -60q138 -38 216 -70.5t135.5 -104t57.5 -194.5q0 -180 -123.5 -280.5t-351.5 -100.5q-94 0 -196 25t-142 47zM295 1657h96l172 -184h4l182 184h95l-218 -248h-114z" />
    <glyph glyph-name="scaron" unicode="&#x161;" horiz-adv-x="791" 
d="M104 23v83q108 -59 254 -59q119 0 188.5 55.5t69.5 155.5q0 76 -46 117t-154 67q-99 24 -162 50t-103 76t-40 132q0 131 88 194.5t225 63.5q125 0 233 -53v-78q-58 29 -112.5 44.5t-126.5 15.5q-113 0 -171.5 -47t-58.5 -133q0 -60 27.5 -93.5t75.5 -51.5t145 -42
q135 -34 196.5 -91.5t61.5 -164.5q0 -132 -90 -210.5t-246 -78.5q-168 0 -254 48zM154 1473h78l184 -277h4l185 277h83l-221 -349h-96z" />
    <glyph glyph-name="uni0162" unicode="&#x162;" horiz-adv-x="1110" 
d="M510 1255h-461v82h1012v-82h-463v-1255l-41 -127q92 -8 149.5 -48.5t57.5 -117.5q0 -87 -64 -131.5t-184 -44.5q-80 0 -125 18v66q44 -16 115 -16q78 0 127 25.5t49 80.5q0 111 -211 111l55 184h-16v1255z" />
    <glyph glyph-name="uni0163" unicode="&#x163;" horiz-adv-x="651" 
d="M195 -453v66q42 -16 114 -16q78 0 127 25.5t49 80.5q0 111 -211 111l56 182q-125 56 -125 227v635h-185v76h185v250h80v-250h286v-76h-286v-612q0 -108 42 -152.5t132 -44.5q79 0 127 17v-70q-61 -21 -142 -21q-21 0 -49 5l-35 -109q92 -8 149.5 -48.5t57.5 -117.5
q0 -87 -64 -131.5t-184 -44.5q-81 0 -124 18z" />
    <glyph glyph-name="Tcaron" unicode="&#x164;" horiz-adv-x="1110" 
d="M510 1255h-461v82h1012v-82h-463v-1255h-88v1255zM271 1657h96l172 -184h4l182 184h95l-218 -248h-114z" />
    <glyph glyph-name="tcaron" unicode="&#x165;" horiz-adv-x="651" 
d="M205 223v635h-185v76h185v250h80v-250h286v-76h-286v-612q0 -108 42 -152.5t132 -44.5q79 0 127 17v-70q-61 -21 -142 -21q-112 0 -175.5 62t-63.5 186zM621 1276q0 48 -33 73t-92 25v70l31 2q78 0 124 -40t46 -114q0 -55 -17 -99.5t-63 -102.5h-76q80 116 80 186z" />
    <glyph glyph-name="Tbar" unicode="&#x166;" horiz-adv-x="1110" 
d="M861 727v-82h-263v-645h-88v645h-261v82h261v528h-461v82h1012v-82h-463v-528h263z" />
    <glyph glyph-name="tbar" unicode="&#x167;" horiz-adv-x="651" 
d="M20 858v76h185v250h80v-250h286v-76h-286v-286h216v-76h-216v-250q0 -108 42 -152.5t132 -44.5q79 0 127 17v-70q-61 -21 -142 -21q-112 0 -175.5 62t-63.5 186v273h-165v76h165v286h-185z" />
    <glyph glyph-name="Utilde" unicode="&#x168;" horiz-adv-x="1319" 
d="M174 477v860h88v-897q0 -181 104.5 -283t292.5 -102q190 0 294 98.5t104 286.5v897h88v-860q0 -502 -488 -502q-242 0 -362.5 129.5t-120.5 372.5zM514 1548q-39 0 -59.5 -27.5t-20.5 -74.5h-72v6q0 70 37.5 120t120.5 50q46 0 83 -15.5t84 -44.5q38 -23 63.5 -34.5
t52.5 -11.5q38 0 59.5 29.5t21.5 72.5h74v-10q0 -69 -36 -115.5t-126 -46.5q-46 0 -82.5 14.5t-86.5 43.5q-39 23 -63 33.5t-50 10.5z" />
    <glyph glyph-name="utilde" unicode="&#x169;" horiz-adv-x="1008" 
d="M158 358v576h80v-596q0 -154 71.5 -221.5t194.5 -67.5q88 0 147.5 33t89 91t29.5 169v592h80v-578q0 -112 -20 -176t-68 -112.5t-111 -70.5t-143 -22q-86 0 -153 25.5t-111.5 71t-65 106.5t-20.5 180zM369 1300q-41 0 -64.5 -27.5t-23.5 -80.5h-68v6q0 70 37.5 120
t120.5 50q43 0 80.5 -17t88.5 -49q38 -25 62.5 -37t48.5 -12q46 0 67 32t21 79h70v-10q0 -70 -35 -118t-125 -48q-44 0 -82.5 17t-87.5 48q-38 24 -62.5 35.5t-47.5 11.5z" />
    <glyph glyph-name="Umacron" unicode="&#x16a;" horiz-adv-x="1319" 
d="M174 477v860h88v-897q0 -181 104.5 -283t292.5 -102q190 0 294 98.5t104 286.5v897h88v-860q0 -502 -488 -502q-242 0 -362.5 129.5t-120.5 372.5zM401 1456v80h524v-80h-524z" />
    <glyph glyph-name="umacron" unicode="&#x16b;" horiz-adv-x="1008" 
d="M158 358v576h80v-596q0 -154 71.5 -221.5t194.5 -67.5q88 0 147.5 33t89 91t29.5 169v592h80v-578q0 -112 -20 -176t-68 -112.5t-111 -70.5t-143 -22q-86 0 -153 25.5t-111.5 71t-65 106.5t-20.5 180zM242 1180v75h524v-75h-524z" />
    <glyph glyph-name="Ubreve" unicode="&#x16c;" horiz-adv-x="1319" 
d="M174 477v860h88v-897q0 -181 104.5 -283t292.5 -102q190 0 294 98.5t104 286.5v897h88v-860q0 -502 -488 -502q-242 0 -362.5 129.5t-120.5 372.5zM376 1659h72q13 -87 73 -130.5t134 -43.5q83 0 140.5 47.5t68.5 126.5h72q-12 -110 -90.5 -177t-190.5 -67t-190 67.5
t-89 176.5z" />
    <glyph glyph-name="ubreve" unicode="&#x16d;" horiz-adv-x="1008" 
d="M158 358v576h80v-596q0 -154 71.5 -221.5t194.5 -67.5q88 0 147.5 33t89 91t29.5 169v592h80v-578q0 -112 -20 -176t-68 -112.5t-111 -70.5t-143 -22q-86 0 -153 25.5t-111.5 71t-65 106.5t-20.5 180zM217 1436h71q13 -101 69.5 -144t133.5 -43t135.5 43.5t69.5 143.5h72
q-12 -118 -87.5 -187t-189.5 -69t-189 69.5t-85 186.5z" />
    <glyph glyph-name="Uring" unicode="&#x16e;" horiz-adv-x="1319" 
d="M174 477v860h88v-897q0 -181 104.5 -283t292.5 -102q190 0 294 98.5t104 286.5v897h88v-860q0 -502 -488 -502q-242 0 -362.5 129.5t-120.5 372.5zM448 1563q0 76 57.5 124t147.5 48q89 0 147 -47.5t58 -124.5q0 -75 -58.5 -122.5t-146.5 -47.5q-90 0 -147.5 47.5
t-57.5 122.5zM788 1563q0 50 -38.5 82t-96.5 32q-56 0 -95.5 -32.5t-39.5 -81.5q0 -51 38 -82t97 -31t97 31t38 82z" />
    <glyph glyph-name="uring" unicode="&#x16f;" horiz-adv-x="1008" 
d="M158 358v576h80v-596q0 -154 71.5 -221.5t194.5 -67.5q88 0 147.5 33t89 91t29.5 169v592h80v-578q0 -112 -20 -176t-68 -112.5t-111 -70.5t-143 -22q-86 0 -153 25.5t-111.5 71t-65 106.5t-20.5 180zM299 1294q0 78 58 129.5t147 51.5q86 0 145.5 -52t59.5 -129
q0 -76 -59 -127t-146 -51t-146 50.5t-59 127.5zM637 1294q0 51 -38 87t-95 36q-55 0 -94 -36t-39 -87t38 -85.5t95 -34.5q59 0 96 34.5t37 85.5z" />
    <glyph glyph-name="Uhungarumlaut" unicode="&#x170;" horiz-adv-x="1319" 
d="M174 477v860h88v-897q0 -181 104.5 -283t292.5 -102q190 0 294 98.5t104 286.5v897h88v-860q0 -502 -488 -502q-242 0 -362.5 129.5t-120.5 372.5zM473 1409l131 248h115l-162 -248h-84zM741 1409l132 248h114l-162 -248h-84z" />
    <glyph glyph-name="uhungarumlaut" unicode="&#x171;" horiz-adv-x="1008" 
d="M158 358v576h80v-596q0 -154 71.5 -221.5t194.5 -67.5q88 0 147.5 33t89 91t29.5 169v592h80v-578q0 -112 -20 -176t-68 -112.5t-111 -70.5t-143 -22q-86 0 -153 25.5t-111.5 71t-65 106.5t-20.5 180zM317 1124l127 349h105l-160 -349h-72zM604 1124l127 349h104
l-159 -349h-72z" />
    <glyph glyph-name="Uogonek" unicode="&#x172;" horiz-adv-x="1319" 
d="M1145 1337v-860q0 -328 -209 -442q-92 -68 -148.5 -133.5t-56.5 -137.5q0 -60 28 -95.5t81 -35.5q46 0 104 13v-62q-46 -16 -110 -16q-83 0 -131 49t-48 137q0 118 121 230q-48 -9 -119 -9q-242 0 -362.5 129.5t-120.5 372.5v860h88v-897q0 -181 104.5 -283t292.5 -102
q190 0 294 98.5t104 286.5v897h88z" />
    <glyph glyph-name="uogonek" unicode="&#x173;" horiz-adv-x="1008" 
d="M850 934v-578q0 -110 -19.5 -173.5t-62.5 -108.5q-154 -154 -197 -216.5t-43 -125.5q0 -60 28 -95.5t81 -35.5q50 0 104 12v-62q-45 -16 -110 -16q-82 0 -130 49t-48 137q0 118 141 263q-35 -9 -86 -9q-86 0 -153 25.5t-111.5 71t-65 106.5t-20.5 180v576h80v-596
q0 -154 71.5 -221.5t194.5 -67.5q88 0 147.5 33t89 91t29.5 169v592h80z" />
    <glyph glyph-name="Wcircumflex" unicode="&#x174;" horiz-adv-x="1753" 
d="M152 1337l280 -1013q37 -135 70 -238h2q17 79 54 195l13 45l256 1011h97l258 -1011q53 -212 63 -242h2q49 150 74 240l281 1013h94l-400 -1337h-102l-258 973q-52 192 -59 264h-5q-12 -75 -61 -264l-258 -973h-100l-396 1337h95zM607 1409l219 248h114l220 -248h-95
l-184 184h-4l-174 -184h-96z" />
    <glyph glyph-name="wcircumflex" unicode="&#x175;" horiz-adv-x="1389" 
d="M1321 934l-279 -934h-88l-260 866h-6l-248 -866h-88l-284 934h86l186 -668l53 -184h4l244 852h107l194 -664l53 -188h4l33 111l205 741h84zM419 1124l217 349h96l221 -349h-77l-191 277h-4l-184 -277h-78z" />
    <glyph glyph-name="Ycircumflex" unicode="&#x176;" horiz-adv-x="1141" 
d="M526 537l-469 800h97l413 -723h6l414 723h96l-469 -800v-537h-88v537zM307 1409l219 248h114l220 -248h-95l-184 184h-4l-174 -184h-96z" />
    <glyph glyph-name="ycircumflex" unicode="&#x177;" horiz-adv-x="918" 
d="M47 934h86q283 -764 316 -848h8l327 848h86l-565 -1399h-86l187 457zM199 1124l217 349h96l221 -349h-77l-191 277h-4l-184 -277h-78z" />
    <glyph glyph-name="Ydieresis" unicode="&#x178;" horiz-adv-x="1141" 
d="M526 537l-469 800h97l413 -723h6l414 723h96l-469 -800v-537h-88v537zM342 1448v121h106v-121h-106zM700 1448v121h105v-121h-105z" />
    <glyph glyph-name="Zacute" unicode="&#x179;" horiz-adv-x="1169" 
d="M109 76l843 1181h-825v80h926v-73l-846 -1184h854v-80h-952v76zM520 1409l158 248h106l-172 -248h-92z" />
    <glyph glyph-name="zacute" unicode="&#x17a;" horiz-adv-x="868" 
d="M76 41l579 817h-565v76h668v-57l-572 -802h607v-75h-717v41zM377 1124l126 349h105l-160 -349h-71z" />
    <glyph glyph-name="Zdotaccent" unicode="&#x17b;" horiz-adv-x="1169" 
d="M109 76l843 1181h-825v80h926v-73l-846 -1184h854v-80h-952v76zM535 1448v121h106v-121h-106z" />
    <glyph glyph-name="zdotaccent" unicode="&#x17c;" horiz-adv-x="868" 
d="M76 41l579 817h-565v76h668v-57l-572 -802h607v-75h-717v41zM389 1249h92v-96h-92v96z" />
    <glyph glyph-name="Zcaron" unicode="&#x17d;" horiz-adv-x="1169" 
d="M109 76l843 1181h-825v80h926v-73l-846 -1184h854v-80h-952v76zM303 1657h96l172 -184h4l182 184h95l-218 -248h-114z" />
    <glyph glyph-name="zcaron" unicode="&#x17e;" horiz-adv-x="868" 
d="M76 41l579 817h-565v76h668v-57l-572 -802h607v-75h-717v41zM162 1473h78l184 -277h4l185 277h83l-221 -349h-96z" />
    <glyph glyph-name="longs" unicode="&#x17f;" horiz-adv-x="569" 
d="M178 1106q0 188 93.5 277.5t244.5 89.5q61 0 113 -9v-75q-60 10 -107 10q-131 0 -197.5 -72t-66.5 -231v-1096h-80v1106z" />
    <glyph glyph-name="uni0181" unicode="&#x181;" horiz-adv-x="1288" 
d="M1151 377q0 -106 -59.5 -196.5t-159 -135.5t-318.5 -45h-307v1260h-14q-199 0 -199 -181q0 -61 15 -125h-84q-19 78 -19 138q0 126 78.5 185.5t210.5 59.5h227q168 0 261 -14.5t168 -60t109 -109.5t34 -154q0 -248 -252 -307v-4q145 -3 227 -84.5t82 -226.5zM395 725h275
q113 0 183 31.5t106 93t36 145.5q0 92 -40.5 148.5t-124.5 85t-267 28.5h-168v-532zM1053 377q0 104 -49.5 171.5t-169.5 86.5q-55 8 -162 8h-277v-563h232q148 0 243.5 29.5t139 105t43.5 162.5z" />
    <glyph glyph-name="uni0186" unicode="&#x186;" horiz-adv-x="1217" 
d="M1108 682q0 -210 -85 -370.5t-238.5 -248.5t-352.5 -88q-82 0 -163.5 16t-117.5 37v84q154 -55 273 -55q164 0 298 71t213 212t79 344q0 288 -157.5 443t-453.5 155q-138 0 -266 -54v82q50 26 124.5 40t154.5 14q334 0 513 -177t179 -505z" />
    <glyph glyph-name="uni0189" unicode="&#x189;" horiz-adv-x="1339" 
d="M1202 676q0 -123 -31.5 -229.5t-91 -191t-144 -142.5t-190.5 -85.5t-276 -27.5h-291v655h-119v80h119v602h262q177 0 275 -20q247 -63 367 -229.5t120 -411.5zM1108 674q0 221 -99.5 364.5t-287.5 194.5q-58 15 -130 19.5t-188 4.5h-137v-522h336v-80h-336v-575h144
q109 0 170.5 3.5t121.5 16.5q190 42 298 195t108 379z" />
    <glyph glyph-name="uni018A" unicode="&#x18a;" horiz-adv-x="1468" 
d="M1331 676q0 -153 -48.5 -281t-139.5 -217.5t-213.5 -133.5t-331.5 -44h-291v1260h-14q-199 0 -199 -181q0 -61 15 -125h-84q-19 78 -19 138q0 126 78.5 185.5t210.5 59.5h274q177 0 275 -20q247 -63 367 -229.5t120 -411.5zM1237 674q0 221 -99.5 364.5t-287.5 194.5
q-58 15 -130 19.5t-188 4.5h-137v-1177h144q190 0 292 20q190 42 298 195t108 379z" />
    <glyph glyph-name="uni018E" unicode="&#x18e;" horiz-adv-x="1098" 
d="M920 0h-762v80h674v532h-617v80h617v565h-713v80h801v-1337z" />
    <glyph glyph-name="uni018F" unicode="&#x18f;" horiz-adv-x="1319" 
d="M100 539v75h994q0 323 -135.5 496.5t-401.5 173.5q-111 0 -184 -11.5t-156 -37.5v80q71 25 147.5 37t192.5 12q298 0 461.5 -190t163.5 -535q0 -180 -69 -332t-197.5 -242t-297.5 -90q-140 0 -258 64.5t-189 192t-71 307.5zM1083 535h-895q0 -156 57.5 -265t156 -163
t219.5 -54q117 0 220 61.5t168 171.5t74 249z" />
    <glyph glyph-name="uni0190" unicode="&#x190;" horiz-adv-x="1028" 
d="M123 371q0 143 82 222t207 99v6q-107 28 -177.5 104.5t-70.5 205.5q0 164 109.5 260t295.5 96q113 0 209 -20.5t150 -47.5v-86q-176 74 -359 74q-148 0 -230.5 -73.5t-82.5 -206.5q0 -121 88 -196t293 -75h74v-80h-78q-418 0 -418 -282q0 -158 93.5 -237t295.5 -79
q104 0 201.5 22t150.5 52v-90q-60 -29 -161.5 -46.5t-192.5 -17.5q-252 0 -365.5 103t-113.5 293z" />
    <glyph glyph-name="uni0191" unicode="&#x191;" horiz-adv-x="1001" 
d="M266 1257v-528h604v-80h-604v-897q0 -135 -56 -188t-161 -53q-46 0 -86 16v74q39 -13 86 -13q65 0 97 35.5t32 122.5v1591h750v-80h-662z" />
    <glyph glyph-name="florin" unicode="&#x192;" 
d="M29 -324v68q37 -10 90 -10q98 0 156 99.5t93.5 310.5t69.5 601h-239v76h250q31 301 108.5 422t222.5 121q52 0 90 -14v-66q-43 8 -94 8q-108 0 -165 -108.5t-81 -362.5h283v-76h-293q-36 -405 -75 -625t-116.5 -339t-217.5 -119q-54 0 -82 14z" />
    <glyph glyph-name="uni0194" unicode="&#x194;" horiz-adv-x="1079" 
d="M594 264q116 -251 136 -309t29 -105t9 -96q0 -100 -57 -164.5t-168 -64.5q-116 0 -170 65t-54 168q0 96 40.5 215.5t125.5 309.5l-471 1054h99l434 -977l426 977h98zM682 -238q0 58 -27 131.5t-86 200.5l-37 82q-126 -296 -126 -416q0 -157 137 -157q67 0 103 44t36 115z
" />
    <glyph glyph-name="uni0198" unicode="&#x198;" horiz-adv-x="1151" 
d="M1102 0h-121l-713 662h-2v-662h-88v1337h88v-665h2l594 585q53 51 89 71t85 20q23 0 64 -13l2 -80q-30 13 -64 13q-35 0 -62.5 -16.5t-66.5 -55.5l-528 -528z" />
    <glyph glyph-name="uni0199" unicode="&#x199;" horiz-adv-x="905" 
d="M360 512l498 -512h-104l-494 508h-2v-508h-80v1255q0 117 60 166t165 49q23 0 53 -5t44 -11v-68q-39 13 -97 13q-70 0 -107.5 -37t-37.5 -127v-709h2l492 408h108z" />
    <glyph glyph-name="Ohorn" unicode="&#x1a0;" horiz-adv-x="1530" 
d="M1278 1022q72 -156 72 -354t-77 -356t-214.5 -247.5t-310.5 -89.5q-185 0 -323.5 89t-213 246.5t-74.5 357.5q0 199 77.5 358t215.5 248.5t313 89.5q168 0 298 -75t208 -210q71 29 108.5 70t37.5 108q0 94 -47 170h94q37 -85 37 -161q0 -101 -46.5 -155t-154.5 -89z
M1255 668q0 192 -68 331.5t-184.5 212t-259.5 72.5q-141 0 -258 -72.5t-185.5 -212t-68.5 -331.5q0 -194 69 -332.5t186.5 -209.5t261.5 -71q141 0 256 71t183 209.5t68 332.5z" />
    <glyph glyph-name="ohorn" unicode="&#x1a1;" horiz-adv-x="1155" 
d="M913 670q31 -89 31 -205q0 -219 -115 -354.5t-301 -135.5q-191 0 -305 133.5t-114 356.5q0 224 114.5 358.5t304.5 134.5q126 0 219.5 -60t143.5 -169q75 31 114 72t39 110q0 99 -47 170h95q36 -85 36 -161q0 -102 -50 -158t-165 -92zM860 465q0 193 -90 306.5
t-242 113.5q-154 0 -244.5 -113t-90.5 -307q0 -192 89.5 -304t245.5 -112q154 0 243 111.5t89 304.5z" />
    <glyph glyph-name="Uhorn" unicode="&#x1af;" horiz-adv-x="1458" 
d="M1145 1016v-539q0 -502 -488 -502q-242 0 -362.5 129.5t-120.5 372.5v860h88v-897q0 -181 104.5 -283t292.5 -102q190 0 294 98.5t104 286.5v897h88v-262q188 29 188 182q0 99 -47 170h94q37 -83 37 -161q0 -102 -60.5 -165t-211.5 -85z" />
    <glyph glyph-name="uhorn" unicode="&#x1b0;" horiz-adv-x="1143" 
d="M850 672v-316q0 -112 -20 -176t-68 -112.5t-111 -70.5t-143 -22q-86 0 -153 25.5t-111.5 71t-65 106.5t-20.5 180v576h80v-596q0 -154 71.5 -221.5t194.5 -67.5q88 0 147.5 33t89 91t29.5 169v592h80v-203q96 15 143 62.5t47 119.5q0 99 -47 170h94q37 -83 37 -161
q0 -103 -61.5 -166t-212.5 -84z" />
    <glyph glyph-name="uni01B2" unicode="&#x1b2;" horiz-adv-x="1319" 
d="M1145 477q0 -502 -488 -502q-242 0 -362.5 129.5t-120.5 372.5v860h88v-897q0 -181 104.5 -283t292.5 -102q190 0 294 98.5t104 286.5v359q0 194 -24.5 296.5t-75 140.5t-136.5 38q-73 0 -121 -17v76q53 21 142 21q157 0 230 -104t73 -343v-430z" />
    <glyph glyph-name="uni01B3" unicode="&#x1b3;" horiz-adv-x="1141" 
d="M614 537v-537h-88v537l-469 800h97l413 -723h6l275 619q29 66 71 93.5t99 27.5q36 0 78 -13v-79q-30 12 -72 12q-37 0 -61 -18t-43 -62z" />
    <glyph glyph-name="uni01B4" unicode="&#x1b4;" horiz-adv-x="918" 
d="M305 -465h-86l187 457l-359 942h86q283 -764 316 -848h8l67 172l305 797q32 83 71 119t97 36q41 0 80 -12v-76q-30 13 -71 13q-37 0 -55 -15.5t-42 -68.5z" />
    <glyph glyph-name="uni01B7" unicode="&#x1b7;" horiz-adv-x="1075" 
d="M133 35v84q155 -66 301 -66q393 0 393 353q0 134 -101 218.5t-341 84.5h-70v88l430 460h-618v80h729v-73l-459 -482q135 0 252.5 -37t193 -122t75.5 -220q0 -200 -126.5 -314t-347.5 -114q-91 0 -174 17.5t-137 42.5z" />
    <glyph glyph-name="uni01DD" unicode="&#x1dd;" horiz-adv-x="991" 
d="M882 457q0 -146 -51 -255t-140 -167.5t-200 -58.5q-164 0 -262 107.5t-98 338.5v35h667q0 221 -97 324.5t-273 103.5q-150 0 -264 -53v75q93 52 264 52q218 0 336 -131t118 -371zM491 47q124 0 209 94.5t96 243.5h-583q3 -166 73 -252t205 -86z" />
    <glyph glyph-name="Aringacute" unicode="&#x1fa;" horiz-adv-x="1260" 
d="M39 0l547 1337h86l549 -1337h-97l-192 475h-606l-191 -475h-96zM899 555l-51 129q-167 415 -215 549h-4q-41 -114 -135 -339q-29 -69 -138 -339h543zM423 1540q0 78 58 129.5t147 51.5q86 0 145.5 -52t59.5 -129q0 -76 -59 -127t-146 -51t-146 50.5t-59 127.5zM761 1540
q0 51 -38 87t-95 36q-55 0 -94 -36t-39 -87t38 -85.5t95 -34.5q59 0 96 34.5t37 85.5zM575 1744l138 198h106l-152 -198h-92z" />
    <glyph glyph-name="aringacute" unicode="&#x1fb;" horiz-adv-x="973" 
d="M104 268q0 127 90.5 205t233.5 78q135 0 287 -55v120q0 133 -69 201t-220 68q-99 0 -240 -47v75q30 18 100.5 31.5t139.5 13.5q187 0 278 -85t91 -257v-317q0 -99 8 -299h-72l-14 109h-4q-47 -54 -134 -94t-171 -40q-137 0 -220.5 73t-83.5 220zM715 193v233
q-75 28 -134.5 39.5t-162.5 11.5q-109 0 -170.5 -54.5t-61.5 -154.5q0 -112 61 -166.5t161 -54.5q109 0 181 43t126 103zM247 1294q0 78 58 129.5t147 51.5q86 0 145.5 -52t59.5 -129q0 -76 -59 -127t-146 -51t-146 50.5t-59 127.5zM585 1294q0 51 -38 87t-95 36
q-55 0 -94 -36t-39 -87t38 -85.5t95 -34.5q59 0 96 34.5t37 85.5zM400 1524l126 349h105l-160 -349h-71z" />
    <glyph glyph-name="AEacute" unicode="&#x1fc;" horiz-adv-x="1726" 
d="M37 0l741 1337h748v-80h-633l61 -522h541v-80h-530l65 -573h606v-82h-684l-49 475h-506l-266 -475h-94zM438 555h451l-78 702zM1031 1409l158 248h106l-172 -248h-92z" />
    <glyph glyph-name="aeacute" unicode="&#x1fd;" horiz-adv-x="1589" 
d="M1458 477h-667q0 -221 97 -324.5t273 -103.5q150 0 264 53v-75q-93 -52 -264 -52q-264 0 -375 191q-83 -82 -173 -136.5t-205 -54.5q-137 0 -220.5 73t-83.5 220q0 127 90.5 205t233.5 78q135 0 287 -55v120q0 133 -69 201t-220 68q-99 0 -240 -47v75q30 18 100.5 31.5
t139.5 13.5q157 0 242 -51t108 -162q50 102 132.5 157.5t189.5 55.5q164 0 262 -107.5t98 -338.5v-35zM1376 549q-3 166 -73 252t-205 86q-124 0 -209 -94.5t-96 -243.5h583zM754 238q-36 89 -39 188q-75 28 -134.5 39.5t-162.5 11.5q-109 0 -170.5 -54.5t-61.5 -154.5
q0 -112 61 -166.5t161 -54.5q86 0 153 32t107 69t86 90zM753 1124l126 349h105l-160 -349h-71z" />
    <glyph glyph-name="Oslashacute" unicode="&#x1fe;" horiz-adv-x="1487" 
d="M1350 668q0 -198 -77 -356t-214.5 -247.5t-310.5 -89.5q-250 0 -412 160l-139 -160l-60 48l148 170q-148 182 -148 475q0 199 77.5 358t215.5 248.5t313 89.5q254 0 412 -164l131 152l62 -47l-142 -162q144 -191 144 -475zM344 260l754 873q-68 74 -159.5 112.5
t-195.5 38.5q-141 0 -258 -72.5t-185.5 -212t-68.5 -331.5q0 -247 113 -408zM1255 668q0 243 -108 403l-754 -870q138 -146 355 -146q141 0 256 71t183 209.5t68 332.5zM688 1409l158 248h106l-172 -248h-92z" />
    <glyph glyph-name="oslashacute" unicode="&#x1ff;" horiz-adv-x="1053" 
d="M944 465q0 -219 -115 -354.5t-301 -135.5q-169 0 -278 107l-84 -102l-55 45l92 110q-94 130 -94 330q0 224 114.5 358.5t304.5 134.5q168 0 271 -100l78 94l55 -45l-84 -102q96 -136 96 -340zM256 201l492 596q-90 88 -220 88q-154 0 -244.5 -113t-90.5 -307
q0 -164 63 -264zM860 465q0 166 -67 274l-494 -598q89 -92 229 -92q154 0 243 111.5t89 304.5zM500 1124l126 349h105l-160 -349h-71z" />
    <glyph glyph-name="uni0218" unicode="&#x218;" horiz-adv-x="1081" 
d="M137 47v96q49 -30 160 -58t184 -28q180 0 279.5 67t99.5 228q0 81 -33.5 134t-91.5 85t-208 73q-130 33 -209 65.5t-133 101t-54 184.5q0 167 120.5 268t315.5 101q128 0 250 -37q49 -18 88 -37v-96q-61 28 -104.5 45.5t-105 30.5t-134.5 14q-173 0 -256.5 -80
t-83.5 -213q0 -84 36.5 -132t98.5 -74t185 -60q138 -38 216 -70.5t135.5 -104t57.5 -194.5q0 -180 -123.5 -280.5t-351.5 -100.5q-94 0 -196 25t-142 47zM559 -303q0 48 -33 73t-92 25v70l31 2q78 0 124 -40t46 -114q0 -55 -17 -99.5t-63 -102.5h-76q80 116 80 186z" />
    <glyph glyph-name="uni0219" unicode="&#x219;" horiz-adv-x="791" 
d="M430 -303q0 48 -33 73t-92 25v70l31 2q78 0 124 -40t46 -114q0 -55 -17 -99.5t-63 -102.5h-76q80 116 80 186zM104 23v83q108 -59 254 -59q119 0 188.5 55.5t69.5 155.5q0 76 -46 117t-154 67q-99 24 -162 50t-103 76t-40 132q0 131 88 194.5t225 63.5q125 0 233 -53v-78
q-58 29 -112.5 44.5t-126.5 15.5q-113 0 -171.5 -47t-58.5 -133q0 -60 27.5 -93.5t75.5 -51.5t145 -42q135 -34 196.5 -91.5t61.5 -164.5q0 -132 -90 -210.5t-246 -78.5q-168 0 -254 48z" />
    <glyph glyph-name="uni021A" unicode="&#x21a;" horiz-adv-x="1110" 
d="M510 1255h-461v82h1012v-82h-463v-1255h-88v1255zM580 -303q0 48 -33 73t-92 25v70l31 2q78 0 124 -40t46 -114q0 -55 -17 -99.5t-63 -102.5h-76q80 116 80 186z" />
    <glyph glyph-name="uni021B" unicode="&#x21b;" horiz-adv-x="637" 
d="M205 223v635h-185v76h185v250h80v-250h286v-76h-286v-612q0 -108 42 -152.5t132 -44.5q79 0 127 17v-70q-61 -21 -142 -21q-112 0 -175.5 62t-63.5 186zM365 -303q0 48 -33 73t-92 25v70l31 2q78 0 124 -40t46 -114q0 -55 -17 -99.5t-63 -102.5h-76q80 116 80 186z" />
    <glyph glyph-name="uni0253" unicode="&#x253;" horiz-adv-x="1061" 
d="M952 469q0 -162 -55.5 -273.5t-147.5 -166t-202 -54.5q-100 0 -168.5 38t-122.5 96h-2l-10 -109h-72q6 147 6 293v962q0 117 60 166t165 49q23 0 53 -5t44 -11v-68q-39 13 -97 13q-70 0 -107.5 -37t-37.5 -127v-418h2q51 65 128 103t167 38q191 0 294 -123.5t103 -365.5z
M868 469q0 416 -311 416q-175 0 -299 -154v-534q39 -55 111.5 -101.5t173.5 -46.5q150 0 237.5 113t87.5 307z" />
    <glyph glyph-name="uni0254" unicode="&#x254;" horiz-adv-x="893" 
d="M784 475q0 -178 -64.5 -289.5t-162.5 -160.5t-203 -49q-71 0 -137 14.5t-108 38.5v82q52 -28 119.5 -45t127.5 -17q87 0 165.5 42.5t128.5 138.5t50 247q0 187 -98 297.5t-264 110.5q-108 0 -244 -57v75q112 56 250 56q123 0 222.5 -53t158.5 -161.5t59 -269.5z" />
    <glyph glyph-name="uni0256" unicode="&#x256;" horiz-adv-x="1061" 
d="M1106 -406v-67q-40 -16 -86 -16q-104 0 -160.5 49t-56.5 166v383h-4q-40 -55 -122.5 -94.5t-164.5 -39.5q-110 0 -201 51.5t-146.5 160.5t-55.5 274q0 228 110 362.5t295 134.5q96 0 166.5 -32t122.5 -101h4l-4 113v510h80v-1702q0 -91 34 -127.5t103 -36.5q46 0 86 12z
M803 211v530q-123 144 -287 144q-150 0 -236.5 -115t-86.5 -313q0 -191 85.5 -299.5t235.5 -108.5q91 0 170 45.5t119 116.5z" />
    <glyph glyph-name="uni0257" unicode="&#x257;" horiz-adv-x="1061" 
d="M1110 1454v-68q-39 13 -96 13q-131 0 -131 -182v-1033q0 -116 6 -184h-60l-22 109h-4q-40 -54 -124.5 -94t-166.5 -40q-110 0 -201 51.5t-146.5 160.5t-55.5 274q0 228 110 362.5t295 134.5q96 0 166.5 -32t122.5 -101h4l-4 113v299q0 233 211 233q23 0 52.5 -5t43.5 -11
zM803 741q-123 144 -287 144q-150 0 -236.5 -115t-86.5 -313q0 -191 85.5 -299.5t235.5 -108.5q91 0 170 45.5t119 116.5v530z" />
    <glyph glyph-name="uni0259" unicode="&#x259;" horiz-adv-x="991" 
d="M882 457q0 -146 -51 -255t-140 -167.5t-200 -58.5q-164 0 -262 107.5t-98 338.5v35h667q0 221 -97 324.5t-273 103.5q-150 0 -264 -53v75q93 52 264 52q218 0 336 -131t118 -371zM491 47q124 0 209 94.5t96 243.5h-583q3 -166 73 -252t205 -86z" />
    <glyph glyph-name="uni025B" unicode="&#x25b;" horiz-adv-x="897" 
d="M109 254q0 90 58 154t146 77v4q-70 18 -123 71.5t-53 150.5q0 116 98 181.5t269 65.5q148 0 287 -38v-76q-93 22 -156.5 31.5t-132.5 9.5q-281 0 -281 -178q0 -183 281 -183q94 0 164 4v-82q-65 5 -181 5q-142 0 -217 -50.5t-75 -142.5q0 -209 303 -209q100 0 174 15.5
t145 44.5v-76q-118 -58 -332 -58q-190 0 -282 75t-92 204z" />
    <glyph glyph-name="uni0263" unicode="&#x263;" horiz-adv-x="737" 
d="M418 219q84 -171 114 -235t43.5 -123.5t10.5 -100.5q0 -98 -51 -166.5t-164 -68.5q-114 0 -164.5 68t-50.5 163q0 87 28 177.5t124 271.5l16 33l-289 696h86l254 -612l241 612h86zM508 -242q0 58 -31 144.5t-112 244.5q-127 -254 -127 -370q0 -178 133 -178q61 0 99 46.5
t38 112.5z" />
    <glyph glyph-name="uni0283" unicode="&#x283;" horiz-adv-x="463" 
d="M-63 -467v78l41 -10q53 -15 75 -15q65 0 101.5 25.5t53.5 91t17 188.5q0 235 -12 501q-20 530 -20 745q0 174 60.5 255t188.5 81q54 0 123 -23v-78q-97 25 -112 25q-67 0 -102.5 -24.5t-52.5 -96.5t-17 -217q0 -77 11 -407l11 -309q10 -236 10 -462q0 -200 -58 -285
t-196 -85q-56 0 -122 22z" />
    <glyph glyph-name="uni028B" unicode="&#x28b;" horiz-adv-x="1008" 
d="M850 356q0 -112 -20 -176t-68 -112.5t-111 -70.5t-143 -22q-86 0 -153 25.5t-111.5 71t-65 106.5t-20.5 180v576h80v-596q0 -154 71.5 -221.5t194.5 -67.5q88 0 147.5 33t89 91t29.5 169v213q0 116 -8.5 186t-39 112t-91.5 42q-34 0 -72 -6.5t-59 -16.5v70q46 29 127 29
q101 0 149.5 -55.5t61 -138.5t12.5 -212v-209z" />
    <glyph glyph-name="uni0292" unicode="&#x292;" horiz-adv-x="977" 
d="M137 -369v74q140 -59 271 -59q99 0 188.5 42t145 122t55.5 188q0 135 -97 220t-311 85h-70v72l400 483h-588v76h688v-70l-403 -485q115 0 221 -38t175 -123t69 -216q0 -184 -135.5 -307t-342.5 -123q-152 0 -266 59z" />
    <glyph glyph-name="uni02BB" unicode="&#x2bb;" horiz-adv-x="403" 
d="M225 895l-143 442h80l162 -442h-99z" />
    <glyph glyph-name="uni02BC" unicode="&#x2bc;" horiz-adv-x="403" 
d="M80 895l137 442h102l-159 -442h-80z" />
    <glyph glyph-name="circumflex" unicode="&#x2c6;" horiz-adv-x="610" 
d="M39 1124l217 349h96l221 -349h-77l-191 277h-4l-184 -277h-78z" />
    <glyph glyph-name="caron" unicode="&#x2c7;" horiz-adv-x="610" 
d="M41 1473h78l184 -277h4l185 277h83l-221 -349h-96z" />
    <glyph glyph-name="uni02C9" unicode="&#x2c9;" horiz-adv-x="610" 
d="M43 1180v75h524v-75h-524z" />
    <glyph glyph-name="breve" unicode="&#x2d8;" horiz-adv-x="610" 
d="M29 1436h71q13 -101 69.5 -144t133.5 -43t135.5 43.5t69.5 143.5h72q-12 -118 -87.5 -187t-189.5 -69t-189 69.5t-85 186.5z" />
    <glyph glyph-name="dotaccent" unicode="&#x2d9;" horiz-adv-x="610" 
d="M260 1249h92v-96h-92v96z" />
    <glyph glyph-name="ring" unicode="&#x2da;" horiz-adv-x="610" 
d="M100 1294q0 78 58 129.5t147 51.5q86 0 145.5 -52t59.5 -129q0 -76 -59 -127t-146 -51t-146 50.5t-59 127.5zM438 1294q0 51 -38 87t-95 36q-55 0 -94 -36t-39 -87t38 -85.5t95 -34.5q59 0 96 34.5t37 85.5z" />
    <glyph glyph-name="ogonek" unicode="&#x2db;" horiz-adv-x="610" 
d="M248 -272q0 -60 28 -95.5t80 -35.5q50 0 105 12v-62q-46 -16 -111 -16q-82 0 -130 49t-48 137q0 161 223 308l62 -23q-94 -68 -151.5 -134.5t-57.5 -139.5z" />
    <glyph glyph-name="tilde" unicode="&#x2dc;" horiz-adv-x="610" 
d="M199 1300q-41 0 -64.5 -27.5t-23.5 -80.5h-68v6q0 70 37.5 120t120.5 50q43 0 80.5 -17t88.5 -49q38 -25 62.5 -37t48.5 -12q46 0 67 32t21 79h70v-10q0 -70 -35 -118t-125 -48q-44 0 -82.5 17t-87.5 48q-38 24 -62.5 35.5t-47.5 11.5z" />
    <glyph glyph-name="hungarumlaut" unicode="&#x2dd;" horiz-adv-x="610" 
d="M51 1124l127 349h105l-160 -349h-72zM338 1124l127 349h104l-159 -349h-72z" />
    <glyph glyph-name="gravecomb" unicode="&#x300;" horiz-adv-x="0" 
d="M-576 1124l-159 349h104l127 -349h-72z" />
    <glyph glyph-name="acutecomb" unicode="&#x301;" horiz-adv-x="0" 
d="M-610 1124l126 349h105l-160 -349h-71z" />
    <glyph glyph-name="uni0302" unicode="&#x302;" horiz-adv-x="0" 
d="M-819 1124l217 349h96l221 -349h-77l-191 277h-4l-184 -277h-78z" />
    <glyph glyph-name="tildecomb" unicode="&#x303;" horiz-adv-x="0" 
d="M-694 1300q-41 0 -64.5 -27.5t-23.5 -80.5h-68v6q0 70 37.5 120t120.5 50q43 0 80.5 -17t88.5 -49q38 -25 62.5 -37t48.5 -12q46 0 67 32t21 79h70v-10q0 -70 -35 -118t-125 -48q-44 0 -82.5 17t-87.5 48q-38 24 -62.5 35.5t-47.5 11.5z" />
    <glyph glyph-name="uni0304" unicode="&#x304;" horiz-adv-x="0" 
d="M-817 1180v75h524v-75h-524z" />
    <glyph glyph-name="uni0306" unicode="&#x306;" horiz-adv-x="0" 
d="M-815 1436h71q13 -101 69.5 -144t133.5 -43t135.5 43.5t69.5 143.5h72q-12 -118 -87.5 -187t-189.5 -69t-189 69.5t-85 186.5z" />
    <glyph glyph-name="uni0307" unicode="&#x307;" horiz-adv-x="0" 
d="M-619 1249h92v-96h-92v96z" />
    <glyph glyph-name="uni0308" unicode="&#x308;" horiz-adv-x="0" 
d="M-782 1153v119h108v-119h-108zM-426 1153v119h107v-119h-107z" />
    <glyph glyph-name="hookabovecomb" unicode="&#x309;" horiz-adv-x="610" 
d="M229 1247q75 6 117.5 39.5t42.5 83.5q0 41 -33 65.5t-88 24.5q-45 0 -121 -24v63q63 23 133 23q79 0 126.5 -43t47.5 -111q0 -59 -41.5 -103t-103.5 -59l-12 -76h-54z" />
    <glyph glyph-name="uni030A" unicode="&#x30a;" horiz-adv-x="0" 
d="M-774 1294q0 78 58 129.5t147 51.5q86 0 145.5 -52t59.5 -129q0 -76 -59 -127t-146 -51t-146 50.5t-59 127.5zM-436 1294q0 51 -38 87t-95 36q-55 0 -94 -36t-39 -87t38 -85.5t95 -34.5q59 0 96 34.5t37 85.5z" />
    <glyph glyph-name="uni030B" unicode="&#x30b;" horiz-adv-x="0" 
d="M-776 1124l127 349h105l-160 -349h-72zM-489 1124l127 349h104l-159 -349h-72z" />
    <glyph glyph-name="uni030C" unicode="&#x30c;" horiz-adv-x="0" 
d="M-831 1473h78l184 -277h4l185 277h83l-221 -349h-96z" />
    <glyph glyph-name="uni0312" unicode="&#x312;" horiz-adv-x="0" 
d="M-524 1286q0 -48 33 -73t92 -25v-70l-31 -2q-78 0 -124 40t-46 114q0 56 17 100.5t63 102.5h76q-80 -117 -80 -187z" />
    <glyph glyph-name="uni0315" unicode="&#x315;" horiz-adv-x="0" 
d="M6 1276q0 48 -33 73t-92 25v70l31 2q78 0 124 -40t46 -114q0 -55 -17 -99.5t-63 -102.5h-76q80 116 80 186z" />
    <glyph glyph-name="dotbelowcomb" unicode="&#x323;" horiz-adv-x="492" 
d="M184 -270v129h123v-129h-123z" />
    <glyph glyph-name="uni0326" unicode="&#x326;" horiz-adv-x="0" 
d="M-276 -303q0 48 -33 73t-92 25v70l31 2q78 0 124 -40t46 -114q0 -55 -17 -99.5t-63 -102.5h-76q80 116 80 186z" />
    <glyph glyph-name="uni0327" unicode="&#x327;" horiz-adv-x="0" 
d="M-487 -129q91 -8 149 -48.5t58 -117.5q0 -87 -64 -131.5t-184 -44.5q-80 0 -125 18v66q44 -16 115 -16q78 0 127 25.5t49 80.5q0 111 -211 111l55 184h72z" />
    <glyph glyph-name="uni0328" unicode="&#x328;" horiz-adv-x="0" 
d="M-491 -272q0 -60 28 -95.5t80 -35.5q50 0 105 12v-62q-46 -16 -111 -16q-82 0 -130 49t-48 137q0 161 223 308l62 -23q-94 -68 -151.5 -134.5t-57.5 -139.5z" />
    <glyph glyph-name="uni0344" unicode="&#x344;" horiz-adv-x="0" 
d="M-612 1124l75 349h93l-99 -349h-69zM-809 1157v127h107v-127h-107zM-391 1157v127h104v-127h-104z" />
    <glyph glyph-name="uni0374" unicode="&#x374;" horiz-adv-x="420" 
d="M139 1073l176 324h113l-215 -324h-74z" />
    <glyph glyph-name="uni0375" unicode="&#x375;" horiz-adv-x="420" 
d="M-33 -324l213 324h76l-178 -324h-111z" />
    <glyph glyph-name="uni037E" unicode="&#x37e;" horiz-adv-x="455" 
d="M158 594v129h123v-129h-123zM27 -369l141 541h90l-166 -541h-65z" />
    <glyph glyph-name="tonos" unicode="&#x384;" horiz-adv-x="610" 
d="M172 1124l182 349h111l-219 -349h-74z" />
    <glyph glyph-name="dieresistonos" unicode="&#x385;" horiz-adv-x="610" 
d="M244 1124l75 349h93l-99 -349h-69zM47 1157v127h107v-127h-107zM465 1157v127h104v-127h-104z" />
    <glyph glyph-name="Alphatonos" unicode="&#x386;" horiz-adv-x="1260" 
d="M39 0l547 1337h86l549 -1337h-97l-192 475h-606l-191 -475h-96zM899 555l-51 129q-167 415 -215 549h-4q-41 -114 -135 -339q-29 -69 -138 -339h543zM100 989l182 349h111l-219 -349h-74z" />
    <glyph glyph-name="anoteleia" unicode="&#x387;" horiz-adv-x="492" 
d="M184 805v129h123v-129h-123z" />
    <glyph glyph-name="Epsilontonos" unicode="&#x388;" horiz-adv-x="1210" 
d="M291 1337h762v-80h-674v-532h617v-80h-617v-565h713v-80h-801v1337zM-66 989l182 349h111l-219 -349h-74z" />
    <glyph glyph-name="Etatonos" unicode="&#x389;" horiz-adv-x="1421" 
d="M291 1337h88v-608h776v608h88v-1337h-88v649h-776v-649h-88v1337zM-66 989l182 349h111l-219 -349h-74z" />
    <glyph glyph-name="Iotatonos" unicode="&#x38a;" horiz-adv-x="555" 
d="M289 1337h88v-1337h-88v1337zM-66 989l182 349h111l-219 -349h-74z" />
    <glyph glyph-name="Omicrontonos" unicode="&#x38c;" horiz-adv-x="1542" 
d="M192 668q0 199 77.5 358t215.5 248.5t313 89.5q183 0 320.5 -89.5t212 -247.5t74.5 -359q0 -198 -77 -356t-214.5 -247.5t-310.5 -89.5q-185 0 -323.5 89t-213 246.5t-74.5 357.5zM1310 668q0 192 -68 331.5t-184.5 212t-259.5 72.5q-141 0 -258 -72.5t-185.5 -212
t-68.5 -331.5q0 -194 69 -332.5t186.5 -209.5t261.5 -71q141 0 256 71t183 209.5t68 332.5zM-25 989l182 349h111l-219 -349h-74z" />
    <glyph glyph-name="Upsilontonos" unicode="&#x38e;" horiz-adv-x="1348" 
d="M725 414q0 139 -59.5 284.5t-161 298t-241.5 340.5h102q168 -228 261 -380t147 -312q61 172 153.5 329t249.5 363h102q-160 -213 -250.5 -348.5t-152 -283t-61.5 -291.5v-414h-89v414zM-66 989l182 349h111l-219 -349h-74z" />
    <glyph glyph-name="Omegatonos" unicode="&#x38f;" horiz-adv-x="1528" 
d="M303 719q0 -177 97 -342.5t272 -300.5v-76h-489v80h372q-185 151 -265.5 313t-80.5 338q0 293 159 463t431 170t431 -170t159 -463q0 -176 -80.5 -338t-265.5 -313h373v-80h-490v76q175 135 272 300.5t97 342.5q0 266 -130.5 415.5t-365.5 149.5q-234 0 -365 -149
t-131 -416zM-25 989l182 349h111l-219 -349h-74z" />
    <glyph glyph-name="iotadieresistonos" unicode="&#x390;" horiz-adv-x="494" 
d="M160 160v774h80v-750q0 -83 19.5 -105t68.5 -22q67 0 102 15v-68q-48 -18 -115 -18q-81 0 -118 43t-37 131zM152 1124l75 349h93l-99 -349h-69zM-45 1157v127h107v-127h-107zM373 1157v127h104v-127h-104z" />
    <glyph glyph-name="Alpha" unicode="&#x391;" horiz-adv-x="1260" 
d="M39 0l547 1337h86l549 -1337h-97l-192 475h-606l-191 -475h-96zM899 555l-51 129q-167 415 -215 549h-4q-41 -114 -135 -339q-29 -69 -138 -339h543z" />
    <glyph glyph-name="Beta" unicode="&#x392;" horiz-adv-x="1159" 
d="M403 1337q168 0 261 -14.5t168 -60t109 -109.5t34 -154q0 -248 -252 -307v-4q145 -3 227 -84.5t82 -226.5q0 -106 -59.5 -196.5t-159 -135.5t-318.5 -45h-307v1337h215zM876 995q0 92 -40.5 148.5t-124.5 85t-267 28.5h-168v-532h275q113 0 183 31.5t106 93t36 145.5z
M934 377q0 104 -49.5 171.5t-169.5 86.5q-55 8 -162 8h-277v-563h232q145 0 241 29t140.5 103.5t44.5 164.5z" />
    <glyph glyph-name="Gamma" unicode="&#x393;" horiz-adv-x="1016" 
d="M180 0v1337h801v-88l-713 8v-1257h-88z" />
    <glyph glyph-name="uni0394" unicode="&#x394;" horiz-adv-x="1257" 
d="M59 0v51l519 1286h108l514 -1286v-51h-1141zM1100 80l-293 743l-68 167q-71 171 -106 265h-8l-110 -280l-56 -144l-301 -751h942z" />
    <glyph glyph-name="Epsilon" unicode="&#x395;" horiz-adv-x="1098" 
d="M178 1337h762v-80h-674v-532h617v-80h-617v-565h713v-80h-801v1337z" />
    <glyph glyph-name="Zeta" unicode="&#x396;" horiz-adv-x="1169" 
d="M109 76l843 1181h-825v80h926v-73l-846 -1184h854v-80h-952v76z" />
    <glyph glyph-name="Eta" unicode="&#x397;" horiz-adv-x="1309" 
d="M178 1337h88v-608h776v608h88v-1337h-88v649h-776v-649h-88v1337z" />
    <glyph glyph-name="Theta" unicode="&#x398;" horiz-adv-x="1487" 
d="M137 668q0 199 77.5 358t215.5 248.5t313 89.5q183 0 320.5 -89.5t212 -247.5t74.5 -359q0 -198 -77 -356t-214.5 -247.5t-310.5 -89.5q-185 0 -323.5 89t-213 246.5t-74.5 357.5zM1255 668q0 192 -68 331.5t-184.5 212t-259.5 72.5q-141 0 -258 -72.5t-185.5 -212
t-68.5 -331.5q0 -194 69 -332.5t186.5 -209.5t261.5 -71q141 0 256 71t183 209.5t68 332.5zM424 649v80h639v-80h-639z" />
    <glyph glyph-name="Iota" unicode="&#x399;" horiz-adv-x="449" 
d="M178 1337h88v-1337h-88v1337z" />
    <glyph glyph-name="Kappa" unicode="&#x39a;" horiz-adv-x="1190" 
d="M1102 0h-121l-713 662h-2v-662h-88v1337h88v-665h2l676 665h107l-670 -669z" />
    <glyph glyph-name="Lambda" unicode="&#x39b;" horiz-adv-x="1253" 
d="M633 1233h-4q-41 -114 -135 -339q-39 -92 -359 -894h-96l541 1337h98l536 -1337h-96l-276 684q-101 253 -209 549z" />
    <glyph glyph-name="Mu" unicode="&#x39c;" horiz-adv-x="1673" 
d="M315 1337l402 -934l121 -299h4l516 1233h137v-1337h-86v618q0 300 14 637h-8q-149 -333 -184 -417l-346 -838h-86l-355 838q-26 62 -186 417h-6q14 -425 14 -637v-618h-88v1337h137z" />
    <glyph glyph-name="Nu" unicode="&#x39d;" horiz-adv-x="1366" 
d="M254 1337l602 -841l252 -361h6q-14 126 -14 414v788h88v-1337h-76l-604 850l-250 354h-4q12 -126 12 -469v-735h-88v1337h76z" />
    <glyph glyph-name="Xi" unicode="&#x39e;" horiz-adv-x="1120" 
d="M145 1257v80h830v-80h-830zM217 649v80h686v-80h-686zM111 0v80h899v-80h-899z" />
    <glyph glyph-name="Omicron" unicode="&#x39f;" horiz-adv-x="1487" 
d="M137 668q0 199 77.5 358t215.5 248.5t313 89.5q183 0 320.5 -89.5t212 -247.5t74.5 -359q0 -198 -77 -356t-214.5 -247.5t-310.5 -89.5q-185 0 -323.5 89t-213 246.5t-74.5 357.5zM1255 668q0 192 -68 331.5t-184.5 212t-259.5 72.5q-141 0 -258 -72.5t-185.5 -212
t-68.5 -331.5q0 -194 69 -332.5t186.5 -209.5t261.5 -71q141 0 256 71t183 209.5t68 332.5z" />
    <glyph glyph-name="Pi" unicode="&#x3a0;" horiz-adv-x="1325" 
d="M178 0v1337h969v-1337h-88v1257h-793v-1257h-88z" />
    <glyph glyph-name="Rho" unicode="&#x3a1;" horiz-adv-x="1110" 
d="M537 1337q224 0 349.5 -91.5t125.5 -266.5q0 -209 -152 -310.5t-440 -101.5q-60 0 -154 11v-578h-88v1337h359zM920 975q0 150 -109 216t-307 66h-238v-600q100 -10 154 -10q264 0 382 84t118 244z" />
    <glyph glyph-name="Sigma" unicode="&#x3a3;" horiz-adv-x="1174" 
d="M123 59l557 625v10l-543 578v65h912v-77h-557l-240 4l536 -576l-550 -612l247 4h572v-80h-934v59z" />
    <glyph glyph-name="Tau" unicode="&#x3a4;" horiz-adv-x="1110" 
d="M510 1255h-461v82h1012v-82h-463v-1255h-88v1255z" />
    <glyph glyph-name="Upsilon" unicode="&#x3a5;" horiz-adv-x="1155" 
d="M532 414q0 139 -59.5 284.5t-161 298t-241.5 340.5h102q168 -228 261 -380t147 -312q61 172 153.5 329t249.5 363h102q-160 -213 -250.5 -348.5t-152 -283t-61.5 -291.5v-414h-89v414z" />
    <glyph glyph-name="Phi" unicode="&#x3a6;" horiz-adv-x="1542" 
d="M727 94q-273 12 -431.5 169t-158.5 417q0 256 160 414t430 172v151h88v-151q277 -13 433.5 -169t156.5 -417q0 -255 -161 -414.5t-429 -171.5v-153h-88v153zM727 1186q-138 -4 -250.5 -61.5t-179 -170t-66.5 -274.5t66.5 -274t178.5 -169.5t251 -62.5v1012zM1311 680
q0 164 -66 275.5t-178 168.5t-252 62v-1012q140 3 252 60t178 169.5t66 276.5z" />
    <glyph glyph-name="Chi" unicode="&#x3a7;" horiz-adv-x="1100" 
d="M57 1337h101l319 -489l76 -109h2l78 107l325 491h99l-439 -659l461 -678h-100l-346 510l-80 113h-4l-82 -117l-348 -506h-99l469 686z" />
    <glyph glyph-name="Psi" unicode="&#x3a8;" horiz-adv-x="1425" 
d="M668 465q-233 7 -351 89.5t-159 249.5t-41 470l2 63h88l-2 -77q0 -283 39.5 -431.5t137 -212.5t286.5 -71v792h88v-792q190 7 289 71t139.5 213t40.5 431l-2 77h88l2 -63q0 -302 -42 -469.5t-161 -250t-354 -89.5v-465h-88v465z" />
    <glyph glyph-name="uni03A9" unicode="&#x3a9;" horiz-adv-x="1458" 
d="M233 719q0 -177 97 -342.5t272 -300.5v-76h-489v80h372q-185 151 -265.5 313t-80.5 338q0 293 159 463t431 170t431 -170t159 -463q0 -176 -80.5 -338t-265.5 -313h373v-80h-490v76q175 135 272 300.5t97 342.5q0 266 -130.5 415.5t-365.5 149.5q-234 0 -365 -149
t-131 -416z" />
    <glyph glyph-name="uni03A9" unicode="&#x2126;" horiz-adv-x="1458" 
d="M233 719q0 -177 97 -342.5t272 -300.5v-76h-489v80h372q-185 151 -265.5 313t-80.5 338q0 293 159 463t431 170t431 -170t159 -463q0 -176 -80.5 -338t-265.5 -313h373v-80h-490v76q175 135 272 300.5t97 342.5q0 266 -130.5 415.5t-365.5 149.5q-234 0 -365 -149
t-131 -416z" />
    <glyph glyph-name="Iotadieresis" unicode="&#x3aa;" horiz-adv-x="449" 
d="M178 1337h88v-1337h-88v1337zM-24 1448v121h106v-121h-106zM334 1448v121h105v-121h-105z" />
    <glyph glyph-name="Upsilondieresis" unicode="&#x3ab;" horiz-adv-x="1155" 
d="M532 414q0 139 -59.5 284.5t-161 298t-241.5 340.5h102q168 -228 261 -380t147 -312q61 172 153.5 329t249.5 363h102q-160 -213 -250.5 -348.5t-152 -283t-61.5 -291.5v-414h-89v414zM344 1448v121h106v-121h-106zM702 1448v121h105v-121h-105z" />
    <glyph glyph-name="alphatonos" unicode="&#x3ac;" horiz-adv-x="1108" 
d="M106 457q0 175 56.5 287.5t139.5 163t167 50.5q117 0 201 -88t123 -239h4q15 60 46.5 154.5t57.5 148.5h80q-70 -190 -95 -268.5t-50 -198.5q0 -226 40 -317t115 -91q33 0 51 4v-71q-27 -6 -49 -6q-98 0 -155 77t-62 213h-6q-90 -301 -311 -301q-93 0 -173.5 52.5
t-130 161t-49.5 268.5zM750 524q-23 161 -101 261t-182 100q-118 0 -197.5 -118.5t-79.5 -297.5q0 -193 73.5 -306.5t195.5 -113.5q89 0 153 71t98.5 180.5t39.5 223.5zM412 1124l182 349h111l-219 -349h-74z" />
    <glyph glyph-name="epsilontonos" unicode="&#x3ad;" horiz-adv-x="897" 
d="M109 254q0 90 58 154t146 77v4q-70 18 -123 71.5t-53 150.5q0 116 98 181.5t269 65.5q148 0 287 -38v-76q-93 22 -156.5 31.5t-132.5 9.5q-281 0 -281 -178q0 -183 281 -183q94 0 164 4v-82q-65 5 -181 5q-142 0 -217 -50.5t-75 -142.5q0 -209 303 -209q100 0 174 15.5
t145 44.5v-76q-118 -58 -332 -58q-190 0 -282 75t-92 204zM426 1124l182 349h111l-219 -349h-74z" />
    <glyph glyph-name="etatonos" unicode="&#x3ae;" horiz-adv-x="1081" 
d="M844 623q0 122 -65 192t-195 70q-93 0 -172.5 -49.5t-137.5 -139.5v-696h-79v733q0 87 -16.5 113t-67.5 26q-31 0 -54 -6v74q23 8 56 8q63 0 95.5 -17.5t44.5 -48t17 -83.5h6q53 74 136 116.5t170 42.5q172 0 257 -82.5t85 -234.5v-1106h-80v1088zM541 1124l182 349h111
l-219 -349h-74z" />
    <glyph glyph-name="iotatonos" unicode="&#x3af;" horiz-adv-x="494" 
d="M160 160v774h80v-750q0 -83 19.5 -105t68.5 -22q67 0 102 15v-68q-48 -18 -115 -18q-81 0 -118 43t-37 131zM186 1124l182 349h111l-219 -349h-74z" />
    <glyph glyph-name="upsilondieresistonos" unicode="&#x3b0;" horiz-adv-x="1094" 
d="M199 395l6 344q0 70 -24 102.5t-79 32.5q-35 0 -55 -10v72q19 12 70 12q72 0 109 -30.5t48 -76t11 -110.5l-6 -338q0 -177 57.5 -260.5t198.5 -83.5q162 0 252 120.5t90 336.5q0 210 -76 428h88q67 -230 67 -426q0 -244 -113 -388.5t-302 -144.5q-176 0 -259 95t-83 325z
M461 1124l75 349h93l-99 -349h-69zM264 1157v127h107v-127h-107zM682 1157v127h104v-127h-104z" />
    <glyph glyph-name="alpha" unicode="&#x3b1;" horiz-adv-x="1108" 
d="M106 457q0 175 56.5 287.5t139.5 163t167 50.5q117 0 201 -88t123 -239h4q15 60 46.5 154.5t57.5 148.5h80q-70 -190 -95 -268.5t-50 -198.5q0 -226 40 -317t115 -91q33 0 51 4v-71q-27 -6 -49 -6q-98 0 -155 77t-62 213h-6q-90 -301 -311 -301q-93 0 -173.5 52.5
t-130 161t-49.5 268.5zM750 524q-23 161 -101 261t-182 100q-118 0 -197.5 -118.5t-79.5 -297.5q0 -193 73.5 -306.5t195.5 -113.5q89 0 153 71t98.5 180.5t39.5 223.5z" />
    <glyph glyph-name="beta" unicode="&#x3b2;" horiz-adv-x="1053" 
d="M178 1057q0 145 38 232.5t116 135.5t184 48q164 0 257 -93t93 -260q0 -124 -54 -212.5t-157 -131.5v-4q134 -34 211.5 -139.5t77.5 -257.5q0 -187 -105.5 -293.5t-289.5 -106.5q-101 0 -175.5 26.5t-113.5 55.5h-2v-522h-80v1522zM860 373q0 131 -57.5 209.5t-136 110.5
t-150.5 32q-78 0 -131 -4v84q37 -4 115 -4q128 0 205 89t77 232q0 129 -71 203t-193 74q-105 0 -182.5 -67t-77.5 -238v-940q46 -45 124 -75t167 -30q143 0 227 88.5t84 235.5z" />
    <glyph glyph-name="gamma" unicode="&#x3b3;" horiz-adv-x="918" 
d="M367 -190q0 238 -86.5 543t-229.5 581h92q92 -180 172.5 -412t106.5 -469h4q110 184 206 413.5t140 467.5h88q-43 -250 -163 -513t-255 -482l2 -152q0 -132 -16 -252h-80q19 157 19 275z" />
    <glyph glyph-name="delta" unicode="&#x3b4;" horiz-adv-x="1051" 
d="M106 387q0 189 118.5 334t328.5 211v4l-45 42q-126 113 -168.5 177t-42.5 119q0 199 295 199q88 0 179.5 -25t168.5 -64v-84q-192 99 -346 99q-101 0 -157 -25.5t-56 -91.5q0 -39 25.5 -80t64.5 -80t111 -104q140 -125 213.5 -212t111 -181.5t37.5 -212.5
q0 -195 -118 -316t-308 -121q-183 0 -297.5 114.5t-114.5 297.5zM860 424q0 103 -34 183t-83 137t-135 139q-197 -64 -307.5 -193.5t-110.5 -292.5q0 -153 91 -250.5t235 -97.5q158 0 251 101.5t93 273.5z" />
    <glyph glyph-name="epsilon" unicode="&#x3b5;" horiz-adv-x="897" 
d="M109 254q0 90 58 154t146 77v4q-70 18 -123 71.5t-53 150.5q0 116 98 181.5t269 65.5q148 0 287 -38v-76q-93 22 -156.5 31.5t-132.5 9.5q-281 0 -281 -178q0 -183 281 -183q94 0 164 4v-82q-65 5 -181 5q-142 0 -217 -50.5t-75 -142.5q0 -209 303 -209q100 0 174 15.5
t145 44.5v-76q-118 -58 -332 -58q-190 0 -282 75t-92 204z" />
    <glyph glyph-name="zeta" unicode="&#x3b6;" horiz-adv-x="895" 
d="M791 -162q0 60 -26 95.5t-71.5 56.5t-182.5 57q-123 31 -212.5 77.5t-141 132t-51.5 222.5q0 191 97.5 375.5t254 328.5t328.5 222v4q-137 -42 -262.5 -57t-296.5 -15v76q190 0 302 9t327 48v-69q-141 -79 -295 -218.5t-262.5 -320.5t-108.5 -368q0 -114 35 -184.5
t108 -113t240 -86.5q104 -28 162 -53t96.5 -77t38.5 -142q0 -70 -21.5 -125t-62.5 -114h-88q47 64 70 127t23 112z" />
    <glyph glyph-name="eta" unicode="&#x3b7;" horiz-adv-x="1081" 
d="M844 623q0 122 -65 192t-195 70q-93 0 -172.5 -49.5t-137.5 -139.5v-696h-79v733q0 87 -16.5 113t-67.5 26q-31 0 -54 -6v74q23 8 56 8q63 0 95.5 -17.5t44.5 -48t17 -83.5h6q53 74 136 116.5t170 42.5q172 0 257 -82.5t85 -234.5v-1106h-80v1088z" />
    <glyph glyph-name="theta" unicode="&#x3b8;" horiz-adv-x="1061" 
d="M109 715q0 378 108 568t311 190q205 0 314.5 -182t109.5 -558q0 -377 -109.5 -567.5t-312.5 -190.5q-204 0 -312.5 182t-108.5 558zM872 770q-18 629 -344 629q-153 0 -242 -155.5t-98 -473.5h684zM872 696h-684q8 -330 89 -488.5t251 -158.5q162 0 248.5 153.5
t95.5 493.5z" />
    <glyph glyph-name="iota" unicode="&#x3b9;" horiz-adv-x="494" 
d="M160 160v774h80v-750q0 -83 19.5 -105t68.5 -22q67 0 102 15v-68q-48 -18 -115 -18q-81 0 -118 43t-37 131z" />
    <glyph glyph-name="kappa" unicode="&#x3ba;" horiz-adv-x="1032" 
d="M963 0h-105l-428 498l-172 -152v-346h-80v934h80v-498l518 463q42 37 77.5 48t86.5 11v-75q-40 0 -67.5 -12.5t-65.5 -45.5l-315 -276z" />
    <glyph glyph-name="lambda" unicode="&#x3bb;" horiz-adv-x="930" 
d="M461 899q-110 310 -141 375t-67 93t-93 28q-54 0 -97 -13v72q57 19 105 19q75 0 128 -39.5t87.5 -103t67.5 -156.5l417 -1174h-88l-221 631l-57 172h-4l-70 -172l-287 -631h-90z" />
    <glyph glyph-name="uni03BC" unicode="&#x3bc;" horiz-adv-x="1139" 
d="M178 934h80v-615q0 -137 72.5 -203.5t193.5 -66.5q150 0 238 84t88 248v553h80v-721q0 -84 16 -120t60 -36l45 4v-71l-58 -4q-60 0 -96 43t-41 110h-4q-105 -164 -320 -164q-185 0 -272 107h-6l4 -416v-131h-80v1399z" />
    <glyph glyph-name="nu" unicode="&#x3bd;" horiz-adv-x="920" 
d="M57 934h93q165 -322 282 -846h6q123 172 208 379t85 434v33h84q-4 -457 -358 -934h-74q-140 590 -326 934z" />
    <glyph glyph-name="xi" unicode="&#x3be;" horiz-adv-x="840" 
d="M733 -162q0 69 -27 110t-79.5 67t-149.5 55q-143 43 -220.5 84.5t-112.5 100.5t-35 153q0 95 46 159t119 103t177 73v5q-126 10 -203.5 83t-77.5 183q0 153 127.5 242.5t351.5 146.5v4q-263 -37 -483 -37v76q225 0 357.5 5.5t264.5 21.5v-72q-261 -72 -397.5 -164.5
t-136.5 -222.5q0 -95 68.5 -143.5t164 -63t215.5 -14.5h21v-72h-18q-115 0 -234 -34t-198.5 -103.5t-79.5 -169.5q0 -76 22 -119t80 -75t180 -70q129 -41 195.5 -71.5t105.5 -84t39 -144.5q0 -71 -22.5 -130.5t-65.5 -120.5h-86q92 127 92 239z" />
    <glyph glyph-name="omicron" unicode="&#x3bf;" horiz-adv-x="1053" 
d="M109 465q0 224 114.5 358.5t304.5 134.5q191 0 303.5 -134t112.5 -359q0 -219 -115 -354.5t-301 -135.5q-191 0 -305 133.5t-114 356.5zM860 465q0 193 -90 306.5t-242 113.5q-154 0 -244.5 -113t-90.5 -307q0 -192 89.5 -304t245.5 -112q154 0 243 111.5t89 304.5z" />
    <glyph glyph-name="pi" unicode="&#x3c0;" horiz-adv-x="1116" 
d="M795 160v700h-459v-860h-80v860h-190v74h987v-74h-179v-672q0 -64 18.5 -98.5t70.5 -34.5l38 4v-71l-47 -2q-90 0 -124.5 43.5t-34.5 130.5z" />
    <glyph glyph-name="rho" unicode="&#x3c1;" horiz-adv-x="1073" 
d="M178 494q0 464 381 464q193 0 299.5 -125.5t106.5 -359.5q0 -189 -67.5 -300.5t-161.5 -154.5t-187 -43q-89 0 -169.5 32.5t-121.5 82.5h-4l4 -221v-334h-80v959zM881 475q0 187 -86 298.5t-232 111.5q-305 0 -305 -400v-290q41 -62 121 -104t168 -42q86 0 162 46
t124 142t48 238z" />
    <glyph glyph-name="sigma1" unicode="&#x3c2;" horiz-adv-x="819" 
d="M776 -137q0 -71 -24 -126t-80 -138h-88q58 82 84 140.5t26 113.5q0 59 -29.5 97t-89 68t-184.5 78q-152 60 -217 155t-65 234q0 177 64.5 282.5t161 148t204.5 42.5q71 0 137 -14.5t108 -38.5v-82q-52 28 -119.5 45t-127.5 17q-144 0 -244 -91t-100 -311
q0 -124 62.5 -199t186.5 -124q121 -48 188 -84t106.5 -87t39.5 -126z" />
    <glyph glyph-name="sigma" unicode="&#x3c3;" horiz-adv-x="1081" 
d="M109 455q0 226 116 352.5t320 126.5h489v-76h-157q-114 0 -142 6v-4q85 -61 138 -181t53 -253q0 -204 -113.5 -327.5t-300.5 -123.5q-183 0 -293 132t-110 348zM842 438q0 137 -59 238.5t-156 181.5h-68q-174 0 -270 -100.5t-96 -302.5q0 -184 85.5 -295t227.5 -111
q156 0 246 103t90 286z" />
    <glyph glyph-name="tau" unicode="&#x3c4;" horiz-adv-x="891" 
d="M367 193v665h-314v76h781v-76h-388v-625q0 -103 31.5 -144.5t108.5 -41.5q58 0 106 8v-65q-48 -15 -123 -15q-202 0 -202 218z" />
    <glyph glyph-name="upsilon" unicode="&#x3c5;" horiz-adv-x="1094" 
d="M199 395l6 344q0 70 -24 102.5t-79 32.5q-35 0 -55 -10v72q19 12 70 12q72 0 109 -30.5t48 -76t11 -110.5l-6 -338q0 -177 57.5 -260.5t198.5 -83.5q162 0 252 120.5t90 336.5q0 210 -76 428h88q67 -230 67 -426q0 -244 -113 -388.5t-302 -144.5q-176 0 -259 95t-83 325z
" />
    <glyph glyph-name="phi" unicode="&#x3c6;" horiz-adv-x="1366" 
d="M641 -41q-239 14 -385.5 153.5t-146.5 350.5q0 219 145.5 359.5t386.5 154.5v471h80v-471q238 -14 387 -154.5t149 -357.5q0 -215 -147.5 -354t-388.5 -152v-424h-80v424zM641 903q-198 -11 -323 -134t-125 -306q0 -181 125 -300.5t323 -133.5v874zM1174 465
q0 185 -126 306t-327 132v-874q203 14 328 134.5t125 301.5z" />
    <glyph glyph-name="chi" unicode="&#x3c7;" horiz-adv-x="893" 
d="M432 211h-4q-8 -21 -28.5 -61t-348.5 -615h-90l436 768q-81 309 -161.5 439t-190.5 130h-33v74h35q94 0 159 -50.5t121 -172.5t124 -352h4q40 87 73 145l238 418h90l-371 -643q83 -325 131 -466t96 -188t130 -47l32 2v-73q-16 -4 -53 -4q-92 0 -148 53t-108 194.5
t-133 448.5z" />
    <glyph glyph-name="psi" unicode="&#x3c8;" horiz-adv-x="1368" 
d="M645 -29q-225 7 -338 101t-150.5 271.5t-37.5 490.5l4 100h82l-2 -88q0 -312 36 -479.5t130 -243t276 -80.5v1167h80v-1167q182 5 276 79.5t130 242t36 481.5q0 50 -4 88h82l4 -100q0 -313 -37 -490.5t-149.5 -271.5t-337.5 -101v-436h-80v436z" />
    <glyph glyph-name="omega" unicode="&#x3c9;" horiz-adv-x="1554" 
d="M125 428q0 122 29.5 235.5t113.5 270.5h84l-13 -25q-41 -82 -67.5 -144.5t-45.5 -149.5t-19 -191q0 -179 66 -277t194 -98q116 0 192 99.5t76 252.5q0 144 -10 244h98l-4 -244q0 -153 75 -252.5t191 -99.5q132 0 197.5 101t65.5 294q0 78 -12.5 147.5t-37 136.5
t-96.5 206h84q86 -161 115 -273t29 -229q0 -213 -91 -335t-249 -122q-104 0 -170 45t-94.5 95t-49.5 106q-11 -43 -44.5 -99t-102 -101.5t-172.5 -45.5q-158 0 -245 119t-87 334z" />
    <glyph glyph-name="iotadieresis" unicode="&#x3ca;" horiz-adv-x="494" 
d="M160 160v774h80v-750q0 -83 19.5 -105t68.5 -22q67 0 102 15v-68q-48 -18 -115 -18q-81 0 -118 43t-37 131zM-24 1153v119h108v-119h-108zM332 1153v119h107v-119h-107z" />
    <glyph glyph-name="upsilondieresis" unicode="&#x3cb;" horiz-adv-x="1094" 
d="M199 395l6 344q0 70 -24 102.5t-79 32.5q-35 0 -55 -10v72q19 12 70 12q72 0 109 -30.5t48 -76t11 -110.5l-6 -338q0 -177 57.5 -260.5t198.5 -83.5q162 0 252 120.5t90 336.5q0 210 -76 428h88q67 -230 67 -426q0 -244 -113 -388.5t-302 -144.5q-176 0 -259 95t-83 325z
M305 1153v119h108v-119h-108zM661 1153v119h107v-119h-107z" />
    <glyph glyph-name="omicrontonos" unicode="&#x3cc;" horiz-adv-x="1053" 
d="M109 465q0 224 114.5 358.5t304.5 134.5q191 0 303.5 -134t112.5 -359q0 -219 -115 -354.5t-301 -135.5q-191 0 -305 133.5t-114 356.5zM860 465q0 193 -90 306.5t-242 113.5q-154 0 -244.5 -113t-90.5 -307q0 -192 89.5 -304t245.5 -112q154 0 243 111.5t89 304.5z
M489 1124l182 349h111l-219 -349h-74z" />
    <glyph glyph-name="upsilontonos" unicode="&#x3cd;" horiz-adv-x="1094" 
d="M199 395l6 344q0 70 -24 102.5t-79 32.5q-35 0 -55 -10v72q19 12 70 12q72 0 109 -30.5t48 -76t11 -110.5l-6 -338q0 -177 57.5 -260.5t198.5 -83.5q162 0 252 120.5t90 336.5q0 210 -76 428h88q67 -230 67 -426q0 -244 -113 -388.5t-302 -144.5q-176 0 -259 95t-83 325z
M483 1124l182 349h111l-219 -349h-74z" />
    <glyph glyph-name="omegatonos" unicode="&#x3ce;" horiz-adv-x="1554" 
d="M125 428q0 122 29.5 235.5t113.5 270.5h84l-13 -25q-41 -82 -67.5 -144.5t-45.5 -149.5t-19 -191q0 -179 66 -277t194 -98q116 0 192 99.5t76 252.5q0 144 -10 244h98l-4 -244q0 -153 75 -252.5t191 -99.5q132 0 197.5 101t65.5 294q0 78 -12.5 147.5t-37 136.5
t-96.5 206h84q86 -161 115 -273t29 -229q0 -213 -91 -335t-249 -122q-104 0 -170 45t-94.5 95t-49.5 106q-11 -43 -44.5 -99t-102 -101.5t-172.5 -45.5q-158 0 -245 119t-87 334zM739 1124l182 349h111l-219 -349h-74z" />
    <glyph glyph-name="uni03DE" unicode="&#x3de;" horiz-adv-x="1020" 
d="M426 1338h103l-327 -609h738v-44l-364 -685h-104l344 641h-736v44z" />
    <glyph glyph-name="uni03DF" unicode="&#x3df;" horiz-adv-x="906" 
d="M426 950h89l-343 -644h674v-36l-392 -735h-90l369 691h-673v36z" />
    <glyph glyph-name="uni03E0" unicode="&#x3e0;" horiz-adv-x="1110" 
d="M862 816q-9 48 -23.5 90.5t-33.5 82.5l-470 -274l-44 76l469 273q-73 104 -186 162t-260 58q-70 0 -139 -12.5t-135 -34.5v78q30 13 66.5 22t74 15t75 8.5t70.5 2.5q159 0 280 -52.5t202.5 -146.5t123 -225t41.5 -287q0 -185 -61.5 -345.5t-174.5 -306.5h-117
q68 81 116.5 158t80 156t46 162t14.5 176q0 35 -3 68l-406 -235l-44 76z" />
    <glyph glyph-name="uni03E1" unicode="&#x3e1;" horiz-adv-x="1088" 
d="M906 842q-16 92 -50 176l-521 -303l-44 76l527 307q-37 68 -86.5 124t-111.5 95.5t-136 61t-160 21.5q-70 0 -144 -12.5t-140 -34.5v75q63 23 139.5 34t143.5 11q118 0 215 -31t173 -86.5t132 -132t92.5 -167t54.5 -192.5t18 -208q0 -169 -22.5 -314.5t-69.5 -279.5
t-119 -262.5t-170 -264.5h-109q98 137 173.5 264t126.5 259t77.5 276.5t26.5 318.5q0 23 -1 46.5t-3 46.5l-450 -261l-44 76z" />
    <glyph glyph-name="uni03F0" unicode="&#x3f0;" horiz-adv-x="1139" 
d="M256 0h-74q38 176 65 375.5t27 355.5q0 96 -21.5 128t-72.5 32q-56 0 -98 -19v74q54 19 113 19q163 0 163 -185q0 -87 -27.5 -301.5t-54.5 -339.5l615 811h76q-37 -170 -65 -372.5t-28 -358.5q0 -97 22.5 -128.5t72.5 -31.5q52 0 98 19v-74q-48 -18 -113 -18
q-163 0 -163 184q0 90 26 298.5t53 330.5z" />
    <glyph glyph-name="uni03F1" unicode="&#x3f1;" horiz-adv-x="1018" 
d="M117 313q0 318 101 490t304 172q187 0 296.5 -133.5t109.5 -358.5q0 -125 -53.5 -237.5t-152.5 -182t-230 -69.5q-84 0 -172.5 40.5t-112.5 88.5h-4q4 -159 43 -246t126 -125t246 -41q96 -1 135.5 -34t39.5 -121l-2 -21h-80q0 58 -21 81t-80 24q-197 5 -301.5 66
t-148 202.5t-43.5 404.5zM844 492q0 187 -88.5 300t-235.5 113q-153 0 -238 -148t-85 -435l2 -107q31 -62 115 -104.5t175 -42.5q116 0 196 62t119.5 159.5t39.5 202.5z" />
    <glyph glyph-name="uni0400" unicode="&#x400;" horiz-adv-x="1098" 
d="M178 1337h762v-80h-674v-532h617v-80h-617v-565h713v-80h-801v1337zM506 1409l-174 248h111l151 -248h-88z" />
    <glyph glyph-name="uni0401" unicode="&#x401;" horiz-adv-x="1098" 
d="M178 1337h762v-80h-674v-532h617v-80h-617v-565h713v-80h-801v1337zM312 1448v121h106v-121h-106zM670 1448v121h105v-121h-105z" />
    <glyph glyph-name="uni0402" unicode="&#x402;" horiz-adv-x="1483" 
d="M860 -25v80l45 -2q123 0 205 45.5t121 119.5t39 161q0 174 -114 246.5t-312 72.5q-131 0 -271 -10v-688h-88v1257h-434v80h1043v-80h-521v-491q129 12 269 12q240 0 381 -90.5t141 -310.5q0 -123 -62.5 -214.5t-164 -140.5t-213.5 -49z" />
    <glyph glyph-name="uni0403" unicode="&#x403;" horiz-adv-x="1032" 
d="M178 0v1337h801v-88l-713 8v-1257h-88zM506 1409l158 248h106l-172 -248h-92z" />
    <glyph glyph-name="uni0404" unicode="&#x404;" horiz-adv-x="1124" 
d="M137 649q0 347 152.5 531t439.5 184q77 0 160.5 -14.5t136.5 -38.5v-84q-135 57 -295 57q-234 0 -366 -146t-132 -405h699v-80h-699q0 -300 121 -449t377 -149q193 0 322 58v-86q-49 -23 -143.5 -37.5t-188.5 -14.5q-294 0 -439 173.5t-145 500.5z" />
    <glyph glyph-name="uni0405" unicode="&#x405;" horiz-adv-x="1081" 
d="M137 47v96q49 -30 160 -58t184 -28q180 0 279.5 67t99.5 228q0 81 -33.5 134t-91.5 85t-208 73q-130 33 -209 65.5t-133 101t-54 184.5q0 167 120.5 268t315.5 101q128 0 250 -37q49 -18 88 -37v-96q-61 28 -104.5 45.5t-105 30.5t-134.5 14q-173 0 -256.5 -80
t-83.5 -213q0 -84 36.5 -132t98.5 -74t185 -60q138 -38 216 -70.5t135.5 -104t57.5 -194.5q0 -180 -123.5 -280.5t-351.5 -100.5q-94 0 -196 25t-142 47z" />
    <glyph glyph-name="uni0406" unicode="&#x406;" horiz-adv-x="444" 
d="M178 1337h88v-1337h-88v1337z" />
    <glyph glyph-name="uni0407" unicode="&#x407;" horiz-adv-x="444" 
d="M178 1337h88v-1337h-88v1337zM2 1448v121h106v-121h-106zM360 1448v121h105v-121h-105z" />
    <glyph glyph-name="uni0408" unicode="&#x408;" horiz-adv-x="719" 
d="M70 4v86q76 -31 155 -31q103 0 165.5 50.5t62.5 185.5v1042h88v-1069q0 -78 -34.5 -147.5t-102.5 -107.5t-173 -38q-115 2 -161 29z" />
    <glyph glyph-name="uni0409" unicode="&#x409;" horiz-adv-x="2028" 
d="M1929 401q0 -191 -148.5 -296t-422.5 -105h-299v1257h-406q-83 -507 -180 -787t-196.5 -382t-213.5 -102h-32v86h14q92 0 180.5 91t182 370.5t172.5 803.5h567v-551q150 15 268 15q260 0 387 -103.5t127 -296.5zM1835 401q0 320 -426 320q-150 0 -262 -14v-627h209
q479 0 479 321z" />
    <glyph glyph-name="uni040A" unicode="&#x40a;" horiz-adv-x="1923" 
d="M1825 401q0 -192 -149.5 -296.5t-422.5 -104.5h-299v702h-688v-702h-88v1337h88v-555h688v555h88v-551q150 15 269 15q260 0 387 -103.5t127 -296.5zM1731 401q0 320 -426 320q-153 0 -265 -14v-627h211q480 0 480 321z" />
    <glyph glyph-name="uni040B" unicode="&#x40b;" horiz-adv-x="1485" 
d="M485 1257h-434v80h1043v-80h-521v-532q184 82 367 82q200 0 291.5 -93t91.5 -315v-399h-88v414q0 170 -72.5 241.5t-232.5 71.5q-172 0 -357 -82v-645h-88v1257z" />
    <glyph glyph-name="uni040C" unicode="&#x40c;" horiz-adv-x="1151" 
d="M1102 0h-121l-713 662h-2v-662h-88v1337h88v-665h2l676 665h107l-670 -669zM514 1409l158 248h106l-172 -248h-92z" />
    <glyph glyph-name="uni040D" unicode="&#x40d;" horiz-adv-x="1366" 
d="M1188 0h-88v739q0 343 12 469h-4l-250 -358l-604 -850h-76v1337h88v-796q0 -288 -14 -414h6l252 365l602 845h76v-1337zM643 1409l-174 248h111l151 -248h-88z" />
    <glyph glyph-name="uni040E" unicode="&#x40e;" horiz-adv-x="1153" 
d="M147 63q26 -4 78 -4q113 0 184 65t162 253l-508 960h91l456 -868h6l381 868h90l-434 -968q-99 -225 -194 -307t-242 -82l-70 4v79zM227 1882h82q15 -117 86.5 -180.5t175.5 -63.5q105 0 176.5 63.5t86.5 180.5h82q-16 -147 -108.5 -230t-238.5 -83q-145 0 -235 82.5
t-107 230.5z" />
    <glyph glyph-name="uni040F" unicode="&#x40f;" horiz-adv-x="1307" 
d="M610 -442v442h-432v1337h88v-1257h774v1257h88v-1337h-430v-442h-88z" />
    <glyph glyph-name="uni0410" unicode="&#x410;" horiz-adv-x="1260" 
d="M39 0l547 1337h86l549 -1337h-97l-192 475h-606l-191 -475h-96zM899 555l-51 129q-167 415 -215 549h-4q-41 -114 -135 -339q-29 -69 -138 -339h543z" />
    <glyph glyph-name="uni0411" unicode="&#x411;" horiz-adv-x="1192" 
d="M180 1337h807v-80h-719v-471q150 15 289 15q504 0 504 -400q0 -194 -153.5 -297.5t-440.5 -103.5h-287v1337zM489 80q480 0 480 321q0 161 -102.5 240.5t-313.5 79.5q-173 0 -285 -14v-627h221z" />
    <glyph glyph-name="uni0412" unicode="&#x412;" horiz-adv-x="1159" 
d="M393 1337q168 0 261 -14.5t168 -60t109 -109.5t34 -154q0 -248 -252 -307v-4q145 -3 227 -84.5t82 -226.5q0 -106 -59.5 -196.5t-159 -135.5t-318.5 -45h-307v1337h215zM866 995q0 92 -40.5 148.5t-124.5 85t-267 28.5h-168v-532h275q113 0 183 31.5t106 93t36 145.5z
M924 377q0 104 -49.5 171.5t-169.5 86.5q-55 8 -162 8h-277v-563h232q145 0 241 29t140.5 103.5t44.5 164.5z" />
    <glyph glyph-name="uni0413" unicode="&#x413;" horiz-adv-x="1016" 
d="M180 0v1337h801v-88l-713 8v-1257h-88z" />
    <glyph glyph-name="uni0414" unicode="&#x414;" horiz-adv-x="1483" 
d="M100 80h68q181 237 301.5 554.5t157.5 702.5h551v-1257h165v-522h-88v442h-1067v-442h-88v522zM1090 80v1177h-385q-81 -666 -426 -1173v-4h811z" />
    <glyph glyph-name="uni0415" unicode="&#x415;" horiz-adv-x="1098" 
d="M178 1337h762v-80h-674v-532h617v-80h-617v-565h713v-80h-801v1337z" />
    <glyph glyph-name="uni0416" unicode="&#x416;" horiz-adv-x="1651" 
d="M971 670l592 -670h-115l-576 657h-2v-657h-88v657h-2l-575 -657h-115l592 670l-541 667h101l538 -661h2v661h88v-661h2l539 661h100z" />
    <glyph glyph-name="uni0417" unicode="&#x417;" horiz-adv-x="1028" 
d="M72 39v90q55 -31 139.5 -52.5t185.5 -21.5q206 0 311 80t105 236q0 282 -418 282h-78v80h74q205 0 293 75t88 196q0 132 -82.5 206t-230.5 74q-181 0 -359 -74v80q57 29 152.5 51.5t206.5 22.5q187 0 296 -96.5t109 -259.5q0 -129 -70.5 -205.5t-177.5 -104.5v-6
q125 -20 207 -99t82 -222q0 -186 -129 -291t-385 -105q-87 0 -172 17t-147 47z" />
    <glyph glyph-name="uni0418" unicode="&#x418;" horiz-adv-x="1366" 
d="M1188 0h-88v739q0 343 12 469h-4l-250 -358l-604 -850h-76v1337h88v-796q0 -288 -14 -414h6l252 365l602 845h76v-1337z" />
    <glyph glyph-name="uni0419" unicode="&#x419;" horiz-adv-x="1366" 
d="M1188 0h-88v739q0 343 12 469h-4l-250 -358l-604 -850h-76v1337h88v-796q0 -288 -14 -414h6l252 365l602 845h76v-1337zM362 1882h82q15 -117 86.5 -180.5t175.5 -63.5q105 0 176.5 63.5t86.5 180.5h82q-16 -147 -108.5 -230t-238.5 -83q-145 0 -235 82.5t-107 230.5z
" />
    <glyph glyph-name="uni041A" unicode="&#x41a;" horiz-adv-x="1151" 
d="M1102 0h-121l-713 662h-2v-662h-88v1337h88v-665h2l676 665h107l-670 -669z" />
    <glyph glyph-name="uni041B" unicode="&#x41b;" horiz-adv-x="1325" 
d="M31 -14v86h14q92 0 180.5 91t182 370.5t172.5 803.5h567v-1337h-88v1257h-406q-78 -505 -175 -786t-199 -383t-216 -102h-32z" />
    <glyph glyph-name="uni041C" unicode="&#x41c;" horiz-adv-x="1675" 
d="M315 1337l402 -934l121 -299h4l516 1233h137v-1337h-86v618q0 300 14 637h-8q-149 -333 -184 -417l-346 -838h-86l-355 838q-26 62 -186 417h-6q14 -425 14 -637v-618h-88v1337h137z" />
    <glyph glyph-name="uni041D" unicode="&#x41d;" horiz-adv-x="1309" 
d="M178 1337h88v-608h776v608h88v-1337h-88v649h-776v-649h-88v1337z" />
    <glyph glyph-name="uni041E" unicode="&#x41e;" horiz-adv-x="1487" 
d="M137 668q0 199 77.5 358t215.5 248.5t313 89.5q183 0 320.5 -89.5t212 -247.5t74.5 -359q0 -198 -77 -356t-214.5 -247.5t-310.5 -89.5q-185 0 -323.5 89t-213 246.5t-74.5 357.5zM1255 668q0 192 -68 331.5t-184.5 212t-259.5 72.5q-141 0 -258 -72.5t-185.5 -212
t-68.5 -331.5q0 -194 69 -332.5t186.5 -209.5t261.5 -71q141 0 256 71t183 209.5t68 332.5z" />
    <glyph glyph-name="uni041F" unicode="&#x41f;" horiz-adv-x="1325" 
d="M178 0v1337h969v-1337h-88v1257h-793v-1257h-88z" />
    <glyph glyph-name="uni0420" unicode="&#x420;" horiz-adv-x="1110" 
d="M537 1337q224 0 349.5 -91.5t125.5 -266.5q0 -209 -152 -310.5t-440 -101.5q-60 0 -154 11v-578h-88v1337h359zM920 975q0 150 -109 216t-307 66h-238v-600q100 -10 154 -10q264 0 382 84t118 244z" />
    <glyph glyph-name="uni0421" unicode="&#x421;" horiz-adv-x="1217" 
d="M137 657q0 210 85 370.5t238.5 248.5t352.5 88q82 0 163.5 -16t117.5 -37v-84q-154 55 -273 55q-164 0 -298 -71t-213 -212t-79 -344q0 -288 157.5 -443t453.5 -155q138 0 266 54v-82q-50 -26 -124.5 -40t-154.5 -14q-334 0 -513 177t-179 505z" />
    <glyph glyph-name="uni0422" unicode="&#x422;" horiz-adv-x="1110" 
d="M510 1255h-461v82h1012v-82h-463v-1255h-88v1255z" />
    <glyph glyph-name="uni0423" unicode="&#x423;" horiz-adv-x="1153" 
d="M147 63q26 -4 78 -4q113 0 184 65t162 253l-508 960h91l456 -868h6l381 868h90l-434 -968q-99 -225 -194 -307t-242 -82l-70 4v79z" />
    <glyph glyph-name="uni0424" unicode="&#x424;" horiz-adv-x="1509" 
d="M711 92q-271 12 -427.5 169t-156.5 419q0 254 154.5 405.5t429.5 165.5v191h88v-191q279 -13 431 -162.5t152 -408.5q0 -257 -159.5 -416.5t-423.5 -171.5v-203h-88v203zM711 1171q-232 -7 -361 -137t-129 -354q0 -227 131.5 -363.5t358.5 -144.5v999zM1288 680
q0 225 -126.5 353.5t-362.5 137.5v-999q139 3 249.5 60t175 170.5t64.5 277.5z" />
    <glyph glyph-name="uni0425" unicode="&#x425;" horiz-adv-x="1100" 
d="M57 1337h101l319 -489l76 -109h2l78 107l325 491h99l-439 -659l461 -678h-100l-346 510l-80 113h-4l-82 -117l-348 -506h-99l469 686z" />
    <glyph glyph-name="uni0426" unicode="&#x426;" horiz-adv-x="1415" 
d="M1188 -442v442h-1010v1337h88v-1257h754v1257h88v-1257h168v-522h-88z" />
    <glyph glyph-name="uni0427" unicode="&#x427;" horiz-adv-x="1231" 
d="M965 633q-208 -72 -418 -72q-202 0 -294.5 101.5t-92.5 295.5v379h88v-379q0 -164 77 -240.5t238 -76.5q197 0 402 74v622h88v-1337h-88v633z" />
    <glyph glyph-name="uni0428" unicode="&#x428;" horiz-adv-x="1851" 
d="M180 0v1337h88v-1257h615v1257h88v-1257h614v1257h88v-1337h-1493z" />
    <glyph glyph-name="uni0429" unicode="&#x429;" horiz-adv-x="1952" 
d="M1724 -442v442h-1546v1337h88v-1257h604v1257h88v-1257h603v1257h88v-1257h163v-522h-88z" />
    <glyph glyph-name="uni042A" unicode="&#x42a;" horiz-adv-x="1403" 
d="M780 801q504 0 504 -400q0 -194 -153.5 -297.5t-440.5 -103.5h-287v1255h-403v82h492v-551q148 15 288 15zM713 80q479 0 479 321q0 161 -102.5 240.5t-313.5 79.5q-173 0 -284 -14v-627h221z" />
    <glyph glyph-name="uni042B" unicode="&#x42b;" horiz-adv-x="1511" 
d="M532 801q504 0 504 -400q0 -191 -148.5 -296t-422.5 -105h-287v1337h88v-551q150 15 266 15zM1245 1337h88v-1337h-88v1337zM463 80q479 0 479 321q0 161 -102.5 240.5t-313.5 79.5q-150 0 -262 -14v-627h199z" />
    <glyph glyph-name="uni042C" unicode="&#x42c;" horiz-adv-x="1178" 
d="M555 801q504 0 504 -400q0 -194 -153.5 -297.5t-440.5 -103.5h-287v1337h88v-551q150 15 289 15zM485 80q480 0 480 321q0 320 -416 320q-173 0 -285 -14v-627h221z" />
    <glyph glyph-name="uni042D" unicode="&#x42d;" horiz-adv-x="1137" 
d="M82 27v86q89 -31 162 -44.5t174 -13.5q251 0 366 153.5t115 444.5h-696v80h696q0 260 -130 405.5t-366 145.5q-164 0 -294 -57v84q52 22 134 37.5t165 15.5q304 0 446.5 -190.5t142.5 -524.5q0 -325 -152 -499.5t-431 -174.5q-101 0 -192 14.5t-140 37.5z" />
    <glyph glyph-name="uni042E" unicode="&#x42e;" horiz-adv-x="1802" 
d="M584 649h-318v-649h-88v1337h88v-608h322q9 179 74 323t182 228t276 84q178 0 300.5 -93.5t183.5 -252t61 -352.5q0 -189 -63.5 -346.5t-186 -251t-291.5 -93.5q-172 0 -292.5 90.5t-182 243t-65.5 340.5zM1571 666q0 195 -58.5 334.5t-160.5 211.5t-232 72
q-203 0 -322.5 -167t-119.5 -447q0 -195 56.5 -334t157.5 -210t232 -71q129 0 230.5 71t159 209t57.5 331z" />
    <glyph glyph-name="uni042F" unicode="&#x42f;" horiz-adv-x="1184" 
d="M430 575v5q-149 36 -222 133.5t-73 228.5q0 189 120 292t339 103h412v-1337h-88v571h-388l-331 -571h-101zM918 651v606h-314q-193 0 -285 -81t-92 -226q0 -140 81 -219.5t272 -79.5h338z" />
    <glyph glyph-name="uni0430" unicode="&#x430;" horiz-adv-x="973" 
d="M104 268q0 127 90.5 205t233.5 78q135 0 287 -55v120q0 133 -69 201t-220 68q-99 0 -240 -47v75q30 18 100.5 31.5t139.5 13.5q187 0 278 -85t91 -257v-317q0 -99 8 -299h-72l-14 109h-4q-47 -54 -134 -94t-171 -40q-137 0 -220.5 73t-83.5 220zM715 193v233
q-75 28 -134.5 39.5t-162.5 11.5q-109 0 -170.5 -54.5t-61.5 -154.5q0 -112 61 -166.5t161 -54.5q109 0 181 43t126 103z" />
    <glyph glyph-name="uni0431" unicode="&#x431;" horiz-adv-x="1057" 
d="M137 672q0 240 49 382.5t160 219t307 108.5l191 33v-86l-162 -24q-165 -25 -257.5 -66t-146 -145.5t-53.5 -305.5h6q89 69 169.5 100.5t172.5 31.5q176 0 275.5 -115t99.5 -316q0 -237 -110 -375.5t-297 -138.5q-218 0 -311 167.5t-93 529.5zM864 489q0 165 -81.5 261
t-221.5 96q-81 0 -175 -39.5t-165 -108.5q0 -256 38 -398t108 -196.5t178 -54.5q149 0 234 117t85 323z" />
    <glyph glyph-name="uni0432" unicode="&#x432;" horiz-adv-x="987" 
d="M178 934h340q163 0 248.5 -54t85.5 -188q0 -93 -52.5 -141t-121.5 -59v-5q40 -2 86.5 -25t80.5 -72.5t34 -125.5q0 -135 -95 -199.5t-260 -64.5h-346v934zM553 526q103 0 160 42t57 124q0 92 -65.5 131t-180.5 39h-266v-336h295zM500 74q138 0 217.5 42.5t79.5 145.5
q0 99 -73.5 145t-199.5 46h-266v-379h242z" />
    <glyph glyph-name="uni0433" unicode="&#x433;" horiz-adv-x="866" 
d="M178 0v934h613v-76h-533v-858h-80z" />
    <glyph glyph-name="uni0434" unicode="&#x434;" horiz-adv-x="1155" 
d="M61 74h58q144 166 218.5 374t86.5 486h436v-860h152v-414h-80v340h-791v-340h-80v414zM780 74v784h-282q-21 -254 -90 -438.5t-191 -341.5v-4h563z" />
    <glyph glyph-name="uni0435" unicode="&#x435;" horiz-adv-x="991" 
d="M109 477q0 146 51 255t140 167.5t200 58.5q164 0 262 -107.5t98 -338.5v-35h-667q0 -221 97 -324.5t273 -103.5q150 0 264 53v-75q-93 -52 -264 -52q-218 0 -336 131t-118 371zM500 887q-124 0 -209 -94.5t-96 -243.5h583q-3 166 -73 252t-205 86z" />
    <glyph glyph-name="uni0436" unicode="&#x436;" horiz-adv-x="1260" 
d="M760 475l426 -475h-101l-413 465h-2v-465h-80v465h-2l-414 -465h-100l426 473l-398 461h99l387 -451h2v451h80v-451h2l387 451h98z" />
    <glyph glyph-name="uni0437" unicode="&#x437;" horiz-adv-x="834" 
d="M100 18v74q48 -18 122.5 -30.5t156.5 -12.5q126 0 200 55.5t74 153.5q0 83 -70.5 140t-172.5 57h-191v73h191q97 0 157 49t60 128q0 83 -61.5 132.5t-182.5 49.5q-75 0 -134.5 -12t-131.5 -37v73q121 47 272 47q163 0 241.5 -68t78.5 -185q0 -93 -55 -142.5t-132 -66.5
v-4q95 -12 154 -73t59 -163q0 -128 -99 -204.5t-269 -76.5q-144 0 -267 43z" />
    <glyph glyph-name="uni0438" unicode="&#x438;" horiz-adv-x="1110" 
d="M178 934h80v-688l-4 -119h4l129 176l481 631h64v-934h-80v723l2 82h-4q-32 -49 -129 -178l-479 -627h-64v934z" />
    <glyph glyph-name="uni0439" unicode="&#x439;" horiz-adv-x="1110" 
d="M178 934h80v-688l-4 -119h4l129 176l481 631h64v-934h-80v723l2 82h-4q-32 -49 -129 -178l-479 -627h-64v934zM303 1458h72q29 -203 208 -203q182 0 211 203h74q-13 -124 -91 -197t-198 -73q-123 0 -193 74t-83 196z" />
    <glyph glyph-name="uni043A" unicode="&#x43a;" horiz-adv-x="932" 
d="M834 934l-478 -455l502 -479h-104l-494 465h-2v-465h-80v934h80v-451h2l465 451h109z" />
    <glyph glyph-name="uni043B" unicode="&#x43b;" horiz-adv-x="1055" 
d="M41 -12v78l29 -3q131 0 208 201t125 670h474v-934h-80v858h-324q-43 -338 -97.5 -527.5t-128.5 -267t-181 -77.5z" />
    <glyph glyph-name="uni043C" unicode="&#x43c;" horiz-adv-x="1282" 
d="M178 934h111l350 -834h10l336 834h119v-934h-80v559q0 180 4 252h-12l-338 -811h-72l-346 811h-8l4 -252v-559h-78v934z" />
    <glyph glyph-name="uni043D" unicode="&#x43d;" horiz-adv-x="1075" 
d="M178 0v934h80v-406h559v406h80v-934h-80v455h-559v-455h-80z" />
    <glyph glyph-name="uni043E" unicode="&#x43e;" horiz-adv-x="1053" 
d="M109 465q0 224 114.5 358.5t304.5 134.5q191 0 303.5 -134t112.5 -359q0 -219 -115 -354.5t-301 -135.5q-191 0 -305 133.5t-114 356.5zM860 465q0 193 -90 306.5t-242 113.5q-154 0 -244.5 -113t-90.5 -307q0 -192 89.5 -304t245.5 -112q154 0 243 111.5t89 304.5z" />
    <glyph glyph-name="uni043F" unicode="&#x43f;" horiz-adv-x="1057" 
d="M178 0v934h701v-934h-80v858h-541v-858h-80z" />
    <glyph glyph-name="uni0440" unicode="&#x440;" horiz-adv-x="1051" 
d="M233 934l25 -109h2q48 58 129.5 95.5t159.5 37.5q196 0 299.5 -126.5t103.5 -356.5q0 -198 -68 -309.5t-158.5 -151t-176.5 -39.5q-184 0 -291 115h-2l2 -182v-373h-80v1399h55zM868 473q0 196 -84 304t-235 108q-89 0 -168 -44t-123 -112v-557q68 -65 135.5 -94
t153.5 -29q117 0 219 83.5t102 340.5z" />
    <glyph glyph-name="uni0441" unicode="&#x441;" horiz-adv-x="893" 
d="M109 459q0 178 64.5 289.5t162.5 160.5t203 49q71 0 137 -14.5t108 -38.5v-82q-52 28 -119.5 45t-127.5 17q-87 0 -165.5 -42.5t-128.5 -138.5t-50 -247q0 -187 98 -297.5t264 -110.5q108 0 244 57v-75q-112 -56 -250 -56q-123 0 -222.5 53t-158.5 161.5t-59 269.5z" />
    <glyph glyph-name="uni0442" unicode="&#x442;" horiz-adv-x="907" 
d="M414 0v858h-338v76h755v-76h-337v-858h-80z" />
    <glyph glyph-name="uni0443" unicode="&#x443;" horiz-adv-x="918" 
d="M47 934h86q283 -764 316 -848h8l327 848h86l-565 -1399h-86l187 457z" />
    <glyph glyph-name="uni0444" unicode="&#x444;" horiz-adv-x="1325" 
d="M621 -23q-238 14 -375 144t-137 342q0 220 135.5 350.5t376.5 144.5v490h79v-490q239 -14 378 -146t139 -347t-138 -345t-379 -143v-442h-79v442zM621 885q-201 -13 -314.5 -126.5t-113.5 -295.5q0 -178 113.5 -289t314.5 -127v838zM1133 465q0 183 -115.5 295.5
t-317.5 124.5v-838q203 16 318 126.5t115 291.5z" />
    <glyph glyph-name="uni0445" unicode="&#x445;" horiz-adv-x="809" 
d="M356 473l-336 461h91l290 -404l289 404h86l-325 -459l340 -475h-91l-299 416l-297 -416h-88z" />
    <glyph glyph-name="uni0446" unicode="&#x446;" horiz-adv-x="1135" 
d="M915 -340v340h-747v934h80v-860h518v860h80v-860h145v-414h-76z" />
    <glyph glyph-name="uni0447" unicode="&#x447;" horiz-adv-x="967" 
d="M709 446h-4q-46 -34 -129.5 -61t-157.5 -27q-158 0 -226.5 77t-68.5 229v270h80v-252q0 -135 51.5 -192.5t155.5 -57.5q174 0 299 94v408h79v-934h-79v446z" />
    <glyph glyph-name="uni0448" unicode="&#x448;" horiz-adv-x="1458" 
d="M178 0v934h80v-860h432v860h80v-860h430v860h80v-934h-1102z" />
    <glyph glyph-name="uni0449" unicode="&#x449;" horiz-adv-x="1552" 
d="M1333 -340v340h-1155v934h80v-860h428v860h80v-860h412v860h79v-860h152v-414h-76z" />
    <glyph glyph-name="uni044A" unicode="&#x44a;" horiz-adv-x="1044" 
d="M276 35v829h-276v70h356v-391q107 24 260 24q155 0 241.5 -73.5t86.5 -204.5q0 -137 -109 -217t-296 -80q-60 0 -141 13.5t-122 29.5zM862 291q0 94 -64.5 148.5t-195.5 54.5q-139 0 -246 -23v-385q87 -23 189 -23q154 0 235.5 60.5t81.5 167.5z" />
    <glyph glyph-name="uni044B" unicode="&#x44b;" horiz-adv-x="1278" 
d="M258 934v-391q107 24 260 24q155 0 241.5 -73.5t86.5 -204.5q0 -138 -109.5 -217.5t-296.5 -79.5q-60 0 -140.5 13.5t-121.5 29.5v899h80zM1018 0v934h82v-934h-82zM764 291q0 94 -64.5 148.5t-195.5 54.5q-139 0 -246 -23v-385q87 -23 188 -23q155 0 236.5 60.5
t81.5 167.5z" />
    <glyph glyph-name="uni044C" unicode="&#x44c;" horiz-adv-x="967" 
d="M258 934v-391q104 24 281 24q154 0 240.5 -73.5t86.5 -204.5q0 -137 -109 -217t-296 -80q-62 0 -153 13.5t-130 29.5v899h80zM784 291q0 94 -64 148.5t-196 54.5q-160 0 -266 -23v-385q90 -23 209 -23q154 0 235.5 60.5t81.5 167.5z" />
    <glyph glyph-name="uni044D" unicode="&#x44d;" horiz-adv-x="922" 
d="M98 27v71q55 -24 111.5 -36.5t142.5 -12.5q377 0 377 404h-549v73h547q-10 170 -100 264.5t-240 94.5q-66 0 -138.5 -14t-129.5 -40v70q98 57 278 57q195 0 305.5 -127t110.5 -352q0 -243 -119.5 -373.5t-343.5 -130.5q-62 0 -140.5 16t-111.5 36z" />
    <glyph glyph-name="uni044E" unicode="&#x44e;" horiz-adv-x="1466" 
d="M502 451h-244v-451h-80v934h80v-412h242q14 199 130.5 317.5t299.5 118.5q196 0 312 -134.5t116 -358.5q0 -220 -117.5 -355t-308.5 -135q-192 0 -307.5 127t-122.5 349zM1274 465q0 194 -91.5 307t-252.5 113q-164 0 -255 -111t-91 -309q0 -197 91.5 -306.5
t256.5 -109.5q162 0 252 110.5t90 305.5z" />
    <glyph glyph-name="uni044F" unicode="&#x44f;" horiz-adv-x="991" 
d="M356 403q-215 38 -215 248q0 142 93 212.5t260 70.5h319v-934h-80v393h-287l-227 -393h-96zM733 467v393h-235q-126 0 -200.5 -46t-74.5 -163q0 -98 58.5 -141t183.5 -43h268z" />
    <glyph glyph-name="uni0450" unicode="&#x450;" horiz-adv-x="991" 
d="M109 477q0 146 51 255t140 167.5t200 58.5q164 0 262 -107.5t98 -338.5v-35h-667q0 -221 97 -324.5t273 -103.5q150 0 264 53v-75q-93 -52 -264 -52q-218 0 -336 131t-118 371zM500 887q-124 0 -209 -94.5t-96 -243.5h583q-3 166 -73 252t-205 86zM505 1124l-159 349h104
l127 -349h-72z" />
    <glyph glyph-name="uni0451" unicode="&#x451;" horiz-adv-x="991" 
d="M109 477q0 146 51 255t140 167.5t200 58.5q164 0 262 -107.5t98 -338.5v-35h-667q0 -221 97 -324.5t273 -103.5q150 0 264 53v-75q-93 -52 -264 -52q-218 0 -336 131t-118 371zM500 887q-124 0 -209 -94.5t-96 -243.5h583q-3 166 -73 252t-205 86zM297 1153v119h108v-119
h-108zM653 1153v119h107v-119h-107z" />
    <glyph glyph-name="uni0452" unicode="&#x452;" horiz-adv-x="1118" 
d="M559 -307v74h16q181 0 256.5 163.5t75.5 405.5q0 253 -76 365t-229 112q-156 0 -295 -123v-690h-80v1202h-168v76h168v170h80v-170h406v-76h-406v-227q0 -133 -4 -199h6q144 113 295 113q190 0 287.5 -129.5t97.5 -423.5q0 -179 -39 -323t-129.5 -232t-236.5 -88h-25z
" />
    <glyph glyph-name="uni0453" unicode="&#x453;" horiz-adv-x="866" 
d="M178 0v934h613v-76h-533v-858h-80zM412 1124l126 349h105l-160 -349h-71z" />
    <glyph glyph-name="uni0454" unicode="&#x454;" horiz-adv-x="918" 
d="M109 459q0 187 71 298.5t172 156t201 44.5q75 0 141.5 -16.5t108.5 -40.5v-70q-120 54 -250 54q-90 0 -171 -41t-132.5 -122.5t-54.5 -197.5h546v-73h-548q0 -191 98 -296.5t276 -105.5q146 0 256 49v-71q-33 -21 -107.5 -36.5t-150.5 -15.5q-218 0 -337 127.5
t-119 356.5z" />
    <glyph glyph-name="uni0455" unicode="&#x455;" horiz-adv-x="791" 
d="M104 23v83q108 -59 254 -59q119 0 188.5 55.5t69.5 155.5q0 76 -46 117t-154 67q-99 24 -162 50t-103 76t-40 132q0 131 88 194.5t225 63.5q125 0 233 -53v-78q-58 29 -112.5 44.5t-126.5 15.5q-113 0 -171.5 -47t-58.5 -133q0 -60 27.5 -93.5t75.5 -51.5t145 -42
q135 -34 196.5 -91.5t61.5 -164.5q0 -132 -90 -210.5t-246 -78.5q-168 0 -254 48z" />
    <glyph glyph-name="uni0456" unicode="&#x456;" horiz-adv-x="436" 
d="M172 1249h92v-96h-92v96zM178 934h80v-934h-80v934z" />
    <glyph glyph-name="uni0457" unicode="&#x457;" horiz-adv-x="436" 
d="M178 0v934h80v-934h-80zM-12 1153v119h108v-119h-108zM344 1153v119h107v-119h-107z" />
    <glyph glyph-name="uni0458" unicode="&#x458;" horiz-adv-x="436" 
d="M172 1249h92v-96h-92v96zM-102 -473v76q62 -19 122 -19q75 0 116.5 41.5t41.5 112.5v1196h80v-1215q0 -98 -66.5 -153t-173.5 -55q-63 0 -120 16z" />
    <glyph glyph-name="uni0459" unicode="&#x459;" horiz-adv-x="1573" 
d="M1473 289q0 -138 -109.5 -217.5t-296.5 -79.5q-60 0 -140.5 13.5t-121.5 29.5v823h-324q-43 -338 -97.5 -527.5t-128 -267t-181.5 -77.5l-25 2v78l29 -3q131 0 209 203.5t125 667.5h473v-391q107 24 260 24q154 0 241 -73t87 -205zM1391 291q0 94 -64.5 148.5
t-196.5 54.5q-140 0 -245 -23v-385q87 -23 188 -23q155 0 236.5 60.5t81.5 167.5z" />
    <glyph glyph-name="uni045A" unicode="&#x45a;" horiz-adv-x="1503" 
d="M1403 289q0 -138 -109.5 -217.5t-296.5 -79.5q-60 0 -140.5 13.5t-121.5 29.5v430h-487v-465h-80v934h80v-395h487v395h80v-391q107 24 260 24q155 0 241.5 -73.5t86.5 -204.5zM1321 291q0 94 -64.5 148.5t-195.5 54.5q-139 0 -246 -23v-385q87 -23 189 -23
q154 0 235.5 60.5t81.5 167.5z" />
    <glyph glyph-name="uni045B" unicode="&#x45b;" horiz-adv-x="1124" 
d="M225 1192h-166v78h166v178h80v-178h397v-78h-397v-256l-4 -236h2q82 101 159.5 141t176.5 40q159 0 238 -86.5t79 -243.5v-551h-79v532q0 275 -240 275q-100 0 -187.5 -57t-144.5 -152v-598h-80v1192z" />
    <glyph glyph-name="uni045C" unicode="&#x45c;" horiz-adv-x="932" 
d="M834 934l-478 -455l502 -479h-104l-494 465h-2v-465h-80v934h80v-451h2l465 451h109zM416 1124l126 349h105l-160 -349h-71z" />
    <glyph glyph-name="uni045D" unicode="&#x45d;" horiz-adv-x="1110" 
d="M178 934h80v-688l-4 -119h4l129 176l481 631h64v-934h-80v723l2 82h-4q-32 -49 -129 -178l-479 -627h-64v934zM514 1124l-159 349h104l127 -349h-72z" />
    <glyph glyph-name="uni045E" unicode="&#x45e;" horiz-adv-x="918" 
d="M47 934h86q283 -764 316 -848h8l327 848h86l-565 -1399h-86l187 457zM160 1458h72q29 -203 208 -203q182 0 211 203h74q-13 -124 -91 -197t-198 -73q-123 0 -193 74t-83 196z" />
    <glyph glyph-name="uni045F" unicode="&#x45f;" horiz-adv-x="1059" 
d="M492 -340v340h-314v934h80v-860h543v860h80v-934h-312v-340h-77z" />
    <glyph glyph-name="uni0462" unicode="&#x462;" horiz-adv-x="1178" 
d="M549 721q-87 0 -157.5 -3.5t-127.5 -10.5v-627h221q480 0 480 321q0 320 -416 320zM266 786q150 15 289 15q504 0 504 -400q0 -81 -25.5 -142.5t-69.5 -106t-102.5 -74t-124.5 -47t-136 -24.5t-136 -7h-287v1065h-158v82h158v190h88v-190h486v-82h-486v-279z" />
    <glyph glyph-name="uni0463" unicode="&#x463;" horiz-adv-x="967" 
d="M258 86q92 -23 209 -23q56 0 112.5 10.5t102 36.5t74 70t28.5 111q0 59 -21.5 98t-57.5 62t-83 33t-98 10q-81 0 -146.5 -6t-119.5 -17v-385zM666.5 551.5q59.5 -15.5 103.5 -49.5t70 -86.5t26 -126.5q0 -84 -36.5 -140.5t-95 -91.5t-130.5 -50t-143 -15q-25 0 -64 3
t-80 9t-78.5 14t-60.5 17v821h-166v78h166v514h80v-514h397v-78h-397v-313q104 24 281 24q68 0 127.5 -15.5z" />
    <glyph glyph-name="uni0472" unicode="&#x472;" horiz-adv-x="1487" 
d="M1010 129q113 74 177 207q65 132 68 313h-1024q3 -183 69 -313q66 -134 181.5 -207.5t266.5 -73.5q149 0 262 74zM1212 939q-35 100 -99 177t-156.5 122.5t-213.5 45.5q-118 0 -210 -45t-156.5 -121t-101 -177t-42.5 -212h1020q-6 110 -41 210zM1310 407
q-40 -125 -117 -221t-189 -153.5t-256 -57.5q-148 0 -262 55t-191.5 149.5t-117.5 220.5t-40 268q0 134 39.5 259.5t116 222.5t190 155.5t260.5 58.5q148 0 261.5 -55.5t190 -151t116 -222t39.5 -267.5q0 -136 -40 -261z" />
    <glyph glyph-name="uni0473" unicode="&#x473;" horiz-adv-x="1053" 
d="M674.5 81q61.5 32 101.5 85.5t60.5 124t23.5 146.5h-666q3 -77 23.5 -147t61 -123.5t102.5 -85.5t147 -32t146.5 32zM386.5 854.5q-60.5 -30.5 -102 -81.5t-63.5 -118.5t-27 -141.5h665q-5 73 -27 140.5t-62.5 119t-100.5 82t-141 30.5t-141.5 -30.5zM528 -25
q-106 0 -185 40t-131 107.5t-77.5 156t-25.5 186.5q0 225 115 358q114 135 304 135q107 0 185.5 -40.5t129.5 -108.5t76 -157t25 -187q0 -220 -115 -354q-115 -136 -301 -136z" />
    <glyph glyph-name="uni0474" unicode="&#x474;" horiz-adv-x="1250" 
d="M1250 1269q-16 3 -30.5 4t-30.5 1q-47 0 -73 -17.5t-42 -62.5l-432 -1193h-98l-486 1337h90l259 -714q48 -133 95.5 -265.5t90.5 -267.5h4q34 111 72 219.5t77 217.5l253 705q23 62 68 91.5t111 29.5q18 0 37 -2t35 -5v-78z" />
    <glyph glyph-name="uni0475" unicode="&#x475;" horiz-adv-x="969" 
d="M968 951l1 -71q-15 3 -30.5 4t-30.5 1q-47 0 -72 -18t-42 -62l-305 -805h-88l-354 934h86l244 -668q17 -47 34 -93.5t31 -94.5h4l277 759q44 121 173 121q38 0 72 -7z" />
    <glyph glyph-name="uni0490" unicode="&#x490;" horiz-adv-x="1069" 
d="M178 0v1337h742v387h88v-467h-742v-1257h-88z" />
    <glyph glyph-name="uni0491" unicode="&#x491;" horiz-adv-x="883" 
d="M178 0v934h543v303h78v-379h-541v-858h-80z" />
    <glyph glyph-name="uni0492" unicode="&#x492;" horiz-adv-x="1016" 
d="M981 1249l-713 8v-528h404v-80h-404v-649h-88v649h-121v80h121v608h801v-88z" />
    <glyph glyph-name="uni0493" unicode="&#x493;" horiz-adv-x="866" 
d="M791 858h-533v-418h266v-73h-266v-367h-80v367h-119v73h119v494h613v-76z" />
    <glyph glyph-name="uni0496" unicode="&#x496;" horiz-adv-x="1645" 
d="M1479 96h88v-538h-88v442h-31l-576 657h-2v-657h-88v657h-2l-575 -657h-115l592 670l-541 667h101l538 -661h2v661h88v-661h2l539 661h100l-540 -667z" />
    <glyph glyph-name="uni0497" unicode="&#x497;" horiz-adv-x="1294" 
d="M1122 72h74v-412h-76v340h-35l-413 465h-2v-465h-80v465h-2l-414 -465h-100l426 473l-398 461h99l387 -451h2v451h80v-451h2l387 451h98l-397 -459z" />
    <glyph glyph-name="uni049A" unicode="&#x49a;" horiz-adv-x="1159" 
d="M1100 -442h-88v442h-31l-713 662h-2v-662h-88v1337h88v-665h2l676 665h107l-670 -669l616 -572h103v-538z" />
    <glyph glyph-name="uni049B" unicode="&#x49b;" horiz-adv-x="946" 
d="M782 72h76v-412h-76v340h-28l-494 465h-2v-465h-80v934h80v-451h2l465 451h109l-478 -455z" />
    <glyph glyph-name="uni04B0" unicode="&#x4b0;" horiz-adv-x="1141" 
d="M614 537v-56h267v-75h-267v-406h-88v406h-258v75h258v56l-469 800h97l413 -723h6l414 723h96z" />
    <glyph glyph-name="uni04B1" unicode="&#x4b1;" horiz-adv-x="891" 
d="M512 74h201v-74h-230v-465h-80v465h-225v74h199l-330 860h86l244 -653q53 -141 65 -181h4l312 834h86z" />
    <glyph glyph-name="uni04B2" unicode="&#x4b2;" horiz-adv-x="1147" 
d="M1100 96v-538h-88v442h-33l-426 623h-4l-82 -117l-348 -506h-99l469 686l-432 651h101l319 -489l76 -109h2l78 107l325 491h99l-439 -659l396 -582h86z" />
    <glyph glyph-name="uni04B3" unicode="&#x4b3;" horiz-adv-x="877" 
d="M739 72h68v-412h-74v340h-33l-299 416l-297 -416h-88l340 473l-336 461h91l290 -404l289 404h86l-325 -459z" />
    <glyph glyph-name="uni04B6" unicode="&#x4b6;" horiz-adv-x="1282" 
d="M1139 96v-538h-88v442h-86v633q-208 -72 -418 -72q-202 0 -294.5 101.5t-92.5 295.5v379h88v-379q0 -164 77 -240.5t238 -76.5q197 0 402 74v622h88v-1241h86z" />
    <glyph glyph-name="uni04B7" unicode="&#x4b7;" horiz-adv-x="932" 
d="M858 72v-412h-76v340h-73v446h-4q-46 -34 -129.5 -61t-157.5 -27q-158 0 -226.5 77t-68.5 229v270h80v-252q0 -135 51.5 -192.5t155.5 -57.5q174 0 299 94v408h79v-862h70z" />
    <glyph glyph-name="uni051A" unicode="&#x51a;" horiz-adv-x="1487" 
d="M137 668q0 200 77.5 358.5t215.5 248t313 89.5q182 0 320 -89t212.5 -244t74.5 -347q0 -220 -83.5 -381.5t-224.5 -239.5v-6q202 17 314 17v-82l-129 4l-111 4l-122 -7q-154 -13 -249 -13q-275 0 -441.5 187.5t-166.5 500.5zM1253 668q0 196 -67.5 334.5t-183.5 209
t-259 70.5q-142 0 -258.5 -70.5t-185 -209t-68.5 -334.5q0 -192 68 -330.5t185.5 -210.5t263.5 -72q144 0 258.5 72t180.5 210.5t66 330.5z" />
    <glyph glyph-name="uni051B" unicode="&#x51b;" horiz-adv-x="1053" 
d="M872 934v-1399h-79v379l2 178h-4q-45 -49 -128 -83t-165 -34q-191 0 -295.5 129.5t-104.5 364.5q0 152 56.5 262.5t153 168.5t214.5 58q170 0 271 -133h4l20 109h55zM793 733q-56 76 -120.5 114t-148.5 38q-160 0 -251 -112t-91 -310q0 -223 87.5 -318.5t240.5 -95.5
q160 0 283 123v561z" />
    <glyph glyph-name="uni051C" unicode="&#x51c;" horiz-adv-x="1753" 
d="M152 1337l280 -1013q37 -135 70 -238h2q17 79 54 195l13 45l256 1011h97l258 -1011q53 -212 63 -242h2q49 150 74 240l281 1013h94l-400 -1337h-102l-258 973q-52 192 -59 264h-5q-12 -75 -61 -264l-258 -973h-100l-396 1337h95z" />
    <glyph glyph-name="uni051D" unicode="&#x51d;" horiz-adv-x="1389" 
d="M1321 934l-279 -934h-88l-260 866h-6l-248 -866h-88l-284 934h86l186 -668l53 -184h4l244 852h107l194 -664l53 -188h4l33 111l205 741h84z" />
    <glyph glyph-name="uni058F" unicode="&#x58f;" 
d="M815 700v-165h133v-76h-133v-459h-82v459h-297v76h297v165h-297v76h297v246q0 184 -70 264t-198 80q-122 0 -197 -81.5t-75 -262.5v-244h-82v277q0 190 93 290.5t261 100.5q174 0 262 -99t88 -292v-279h133v-76h-133z" />
    <glyph glyph-name="uni060B" unicode="&#x60b;" 
d="M526 1001v125h95v-125h-95zM186 76h621v94q-232 0 -349.5 79.5t-117.5 262.5q0 114 69 182t183 68q152 0 224.5 -123t72.5 -379v-260h-703v76zM586 684q-72 0 -117 -49.5t-45 -124.5q0 -141 93.5 -203.5t283.5 -62.5q0 232 -52.5 336t-162.5 104zM524 -465v350h70v-350
h-70z" />
    <glyph glyph-name="uni09F2" unicode="&#x9f2;" horiz-adv-x="985" 
d="M913 567q0 -148 -53.5 -294t-144.5 -275l-58 49q79 118 126.5 257.5t47.5 277.5q0 194 -97.5 350.5t-272 259t-402.5 141.5l25 56q246 -32 433.5 -140t291.5 -282.5t104 -399.5z" />
    <glyph glyph-name="uni09F3" unicode="&#x9f3;" 
d="M918 565v-223q0 -367 -343 -367q-186 0 -271 91t-85 278v475h-180v78h180v129q0 100 -5.5 149t-28.5 76t-74 27q-45 0 -103 -12v73q49 17 109 17q99 0 141.5 -61.5t42.5 -176.5v-221h137v-78h-137v-495q0 -142 68 -207.5t202 -65.5q140 0 202.5 74.5t62.5 216.5v213
q0 114 -10 184t-44 111t-102 41q-71 0 -113 -19v70q48 29 127 29q101 0 149.5 -55.5t61.5 -138.5t13 -212z" />
    <glyph glyph-name="uni0AF1" unicode="&#xaf1;" horiz-adv-x="1550" 
d="M90 344q231 35 371.5 119.5t140.5 224.5q0 94 -61 154.5t-154 60.5q-60 0 -133.5 -8t-120.5 -18l6 69q150 8 240 63.5t90 139.5q0 59 -35.5 89.5t-94.5 40t-149 9.5l-116 -4l8 80l106 4q369 0 369 -225q0 -103 -121 -182q119 -13 188.5 -83.5t69.5 -185.5
q0 -160 -143.5 -263t-368.5 -148q20 -230 113.5 -372.5t273.5 -164.5l-18 -72q-145 5 -246.5 99.5t-155 245.5t-59.5 327zM793 606q0 147 93.5 241.5t239.5 94.5q147 0 242.5 -90.5t95.5 -230.5q0 -150 -93 -243t-241 -93q-145 0 -241 92t-96 229zM1382 623
q0 110 -69.5 176.5t-186.5 66.5q-115 0 -183.5 -69.5t-68.5 -186.5q0 -109 71.5 -179.5t182.5 -70.5q115 0 184.5 72t69.5 191z" />
    <glyph glyph-name="uni0BF9" unicode="&#xbf9;" horiz-adv-x="2216" 
d="M94 496q0 273 123 473.5t353 307.5t542 107q348 0 588.5 -138.5t304.5 -377.5q135 -40 252 -145l-33 -64q-88 99 -213 136q0 -180 -79 -294t-206 -114q-94 0 -156.5 62.5t-62.5 160.5q0 125 98.5 203t254.5 78l57 -4q-52 190 -275 307t-530 117q-282 0 -491 -100
t-321 -284t-112 -429q0 -358 181.5 -555t509.5 -197q244 0 387 117t143 315q0 129 -45 205t-143 76q-122 0 -183 -58v-401h-86v754h-235v-754h-88v831h753v-77h-344v-279q47 31 83 43t100 12q127 0 199.5 -93.5t72.5 -258.5q0 -145 -75 -260t-212 -180.5t-317 -65.5
q-258 0 -436.5 103t-268.5 288.5t-90 432.5zM1931 819q-10 4 -43 4q-136 0 -215.5 -58t-79.5 -155q0 -69 40 -110t102 -41q85 0 140.5 102.5t55.5 257.5z" />
    <glyph glyph-name="uni0E3F" unicode="&#xe3f;" 
d="M940 377q0 -107 -55 -195.5t-147.5 -129.5t-213.5 -48v-188h-82v184h-284v1337h153l131 -2v162h82v-168q161 -14 260 -97.5t99 -232.5q0 -248 -252 -307v-4q145 -3 227 -84.5t82 -226.5zM246 725h196v530l-90 2h-106v-532zM524 1249v-522q119 9 189.5 79t70.5 189
q0 114 -63 175t-197 79zM442 80v563h-196v-563h196zM842 377q0 104 -49.5 171.5t-169.5 86.5l-99 8v-559q121 12 186 46t98.5 103.5t33.5 143.5z" />
    <glyph glyph-name="uni17DB" unicode="&#x17db;" 
d="M877 580h-181v-580h-170q-183 0 -285 57t-102 191q0 104 64 170.5t162 66.5v-79q-54 0 -94 -45.5t-40 -112.5q0 -92 85.5 -131t297.5 -39v502h-208v79h208v158q-203 2 -310 66t-107 204q0 126 97 200.5t257 74.5q72 0 117.5 -10t67.5 -18.5t28 -10.5l-8 -82
q-48 23 -94 32t-117 9q-118 0 -187 -52t-69 -143q0 -95 77 -142.5t203 -47.5h127v-238h181v-79z" />
    <glyph glyph-name="uni1E62" unicode="&#x1e62;" horiz-adv-x="1081" 
d="M137 47v96q49 -30 160 -58t184 -28q180 0 279.5 67t99.5 228q0 81 -33.5 134t-91.5 85t-208 73q-130 33 -209 65.5t-133 101t-54 184.5q0 167 120.5 268t315.5 101q128 0 250 -37q49 -18 88 -37v-96q-61 28 -104.5 45.5t-105 30.5t-134.5 14q-173 0 -256.5 -80
t-83.5 -213q0 -84 36.5 -132t98.5 -74t185 -60q138 -38 216 -70.5t135.5 -104t57.5 -194.5q0 -180 -123.5 -280.5t-351.5 -100.5q-94 0 -196 25t-142 47zM512 -141h92v-97h-92v97z" />
    <glyph glyph-name="uni1E63" unicode="&#x1e63;" horiz-adv-x="791" 
d="M104 23v83q108 -59 254 -59q119 0 188.5 55.5t69.5 155.5q0 76 -46 117t-154 67q-99 24 -162 50t-103 76t-40 132q0 131 88 194.5t225 63.5q125 0 233 -53v-78q-58 29 -112.5 44.5t-126.5 15.5q-113 0 -171.5 -47t-58.5 -133q0 -60 27.5 -93.5t75.5 -51.5t145 -42
q135 -34 196.5 -91.5t61.5 -164.5q0 -132 -90 -210.5t-246 -78.5q-168 0 -254 48zM359 -141h92v-97h-92v97z" />
    <glyph glyph-name="Wgrave" unicode="&#x1e80;" horiz-adv-x="1753" 
d="M152 1337l280 -1013q37 -135 70 -238h2q17 79 54 195l13 45l256 1011h97l258 -1011q53 -212 63 -242h2q49 150 74 240l281 1013h94l-400 -1337h-102l-258 973q-52 192 -59 264h-5q-12 -75 -61 -264l-258 -973h-100l-396 1337h95zM833 1409l-174 248h111l151 -248h-88z
" />
    <glyph glyph-name="wgrave" unicode="&#x1e81;" horiz-adv-x="1389" 
d="M1321 934l-279 -934h-88l-260 866h-6l-248 -866h-88l-284 934h86l186 -668l53 -184h4l244 852h107l194 -664l53 -188h4l33 111l205 741h84zM658 1124l-159 349h104l127 -349h-72z" />
    <glyph glyph-name="Wacute" unicode="&#x1e82;" horiz-adv-x="1753" 
d="M152 1337l280 -1013q37 -135 70 -238h2q17 79 54 195l13 45l256 1011h97l258 -1011q53 -212 63 -242h2q49 150 74 240l281 1013h94l-400 -1337h-102l-258 973q-52 192 -59 264h-5q-12 -75 -61 -264l-258 -973h-100l-396 1337h95zM831 1409l158 248h106l-172 -248h-92z
" />
    <glyph glyph-name="wacute" unicode="&#x1e83;" horiz-adv-x="1389" 
d="M1321 934l-279 -934h-88l-260 866h-6l-248 -866h-88l-284 934h86l186 -668l53 -184h4l244 852h107l194 -664l53 -188h4l33 111l205 741h84zM653 1124l126 349h105l-160 -349h-71z" />
    <glyph glyph-name="Wdieresis" unicode="&#x1e84;" horiz-adv-x="1753" 
d="M152 1337l280 -1013q37 -135 70 -238h2q17 79 54 195l13 45l256 1011h97l258 -1011q53 -212 63 -242h2q49 150 74 240l281 1013h94l-400 -1337h-102l-258 973q-52 192 -59 264h-5q-12 -75 -61 -264l-258 -973h-100l-396 1337h95zM644 1448v121h106v-121h-106zM1002 1448
v121h105v-121h-105z" />
    <glyph glyph-name="wdieresis" unicode="&#x1e85;" horiz-adv-x="1389" 
d="M1321 934l-279 -934h-88l-260 866h-6l-248 -866h-88l-284 934h86l186 -668l53 -184h4l244 852h107l194 -664l53 -188h4l33 111l205 741h84zM454 1153v119h108v-119h-108zM810 1153v119h107v-119h-107z" />
    <glyph glyph-name="uni1EA0" unicode="&#x1ea0;" horiz-adv-x="1260" 
d="M39 0l547 1337h86l549 -1337h-97l-192 475h-606l-191 -475h-96zM899 555l-51 129q-167 415 -215 549h-4q-41 -114 -135 -339q-29 -69 -138 -339h543zM566 -141h92v-97h-92v97z" />
    <glyph glyph-name="uni1EA1" unicode="&#x1ea1;" horiz-adv-x="973" 
d="M104 268q0 127 90.5 205t233.5 78q135 0 287 -55v120q0 133 -69 201t-220 68q-99 0 -240 -47v75q30 18 100.5 31.5t139.5 13.5q187 0 278 -85t91 -257v-317q0 -99 8 -299h-72l-14 109h-4q-47 -54 -134 -94t-171 -40q-137 0 -220.5 73t-83.5 220zM715 193v233
q-75 28 -134.5 39.5t-162.5 11.5q-109 0 -170.5 -54.5t-61.5 -154.5q0 -112 61 -166.5t161 -54.5q109 0 181 43t126 103zM439 -141h92v-97h-92v97z" />
    <glyph glyph-name="uni1EA2" unicode="&#x1ea2;" horiz-adv-x="1260" 
d="M39 0l547 1337h86l549 -1337h-97l-192 475h-606l-191 -475h-96zM899 555l-51 129q-167 415 -215 549h-4q-41 -114 -135 -339q-29 -69 -138 -339h543zM589 1526q75 6 117.5 39.5t42.5 83.5q0 41 -33 65.5t-88 24.5q-45 0 -121 -24v63q63 23 133 23q79 0 126.5 -43
t47.5 -111q0 -59 -41.5 -103t-103.5 -59l-12 -76h-54z" />
    <glyph glyph-name="uni1EA3" unicode="&#x1ea3;" horiz-adv-x="973" 
d="M104 268q0 127 90.5 205t233.5 78q135 0 287 -55v120q0 133 -69 201t-220 68q-99 0 -240 -47v75q30 18 100.5 31.5t139.5 13.5q187 0 278 -85t91 -257v-317q0 -99 8 -299h-72l-14 109h-4q-47 -54 -134 -94t-171 -40q-137 0 -220.5 73t-83.5 220zM715 193v233
q-75 28 -134.5 39.5t-162.5 11.5q-109 0 -170.5 -54.5t-61.5 -154.5q0 -112 61 -166.5t161 -54.5q109 0 181 43t126 103zM409 1247q75 6 117.5 39.5t42.5 83.5q0 41 -33 65.5t-88 24.5q-45 0 -121 -24v63q63 23 133 23q79 0 126.5 -43t47.5 -111q0 -59 -41.5 -103
t-103.5 -59l-12 -76h-54z" />
    <glyph glyph-name="uni1EA4" unicode="&#x1ea4;" horiz-adv-x="1260" 
d="M39 0l547 1337h86l549 -1337h-97l-192 475h-606l-191 -475h-96zM899 555l-51 129q-167 415 -215 549h-4q-41 -114 -135 -339q-29 -69 -138 -339h543zM347 1409l219 248h114l220 -248h-95l-184 184h-4l-174 -184h-96zM823 1557l158 248h106l-172 -248h-92z" />
    <glyph glyph-name="uni1EA5" unicode="&#x1ea5;" horiz-adv-x="973" 
d="M104 268q0 127 90.5 205t233.5 78q135 0 287 -55v120q0 133 -69 201t-220 68q-99 0 -240 -47v75q30 18 100.5 31.5t139.5 13.5q187 0 278 -85t91 -257v-317q0 -99 8 -299h-72l-14 109h-4q-47 -54 -134 -94t-171 -40q-137 0 -220.5 73t-83.5 220zM715 193v233
q-75 28 -134.5 39.5t-162.5 11.5q-109 0 -170.5 -54.5t-61.5 -154.5q0 -112 61 -166.5t161 -54.5q109 0 181 43t126 103zM179 1124l217 349h96l221 -349h-77l-191 277h-4l-184 -277h-78zM659 1293l115 248h106l-149 -248h-72z" />
    <glyph glyph-name="uni1EA6" unicode="&#x1ea6;" horiz-adv-x="1260" 
d="M39 0l547 1337h86l549 -1337h-97l-192 475h-606l-191 -475h-96zM899 555l-51 129q-167 415 -215 549h-4q-41 -114 -135 -339q-29 -69 -138 -339h543zM806 1409l-174 184h-4l-184 -184h-95l220 248h114l219 -248h-96zM334 1557l-172 248h106l158 -248h-92z" />
    <glyph glyph-name="uni1EA7" unicode="&#x1ea7;" horiz-adv-x="973" 
d="M104 268q0 127 90.5 205t233.5 78q135 0 287 -55v120q0 133 -69 201t-220 68q-99 0 -240 -47v75q30 18 100.5 31.5t139.5 13.5q187 0 278 -85t91 -257v-317q0 -99 8 -299h-72l-14 109h-4q-47 -54 -134 -94t-171 -40q-137 0 -220.5 73t-83.5 220zM715 193v233
q-75 28 -134.5 39.5t-162.5 11.5q-109 0 -170.5 -54.5t-61.5 -154.5q0 -112 61 -166.5t161 -54.5q109 0 181 43t126 103zM614 1124l-184 277h-4l-191 -277h-77l221 349h96l217 -349h-78zM140 1293l-149 248h106l115 -248h-72z" />
    <glyph glyph-name="uni1EA8" unicode="&#x1ea8;" horiz-adv-x="1260" 
d="M39 0l547 1337h86l549 -1337h-97l-192 475h-606l-191 -475h-96zM899 555l-51 129q-167 415 -215 549h-4q-41 -114 -135 -339q-29 -69 -138 -339h543zM806 1409l-174 184h-4l-184 -184h-95l220 248h114l219 -248h-96zM849 1636q75 6 117.5 39.5t42.5 83.5q0 41 -33 65.5
t-88 24.5q-45 0 -121 -24v63q63 23 133 23q79 0 126.5 -43t47.5 -111q0 -59 -41.5 -103t-103.5 -59l-12 -76h-54z" />
    <glyph glyph-name="uni1EA9" unicode="&#x1ea9;" horiz-adv-x="973" 
d="M104 268q0 127 90.5 205t233.5 78q135 0 287 -55v120q0 133 -69 201t-220 68q-99 0 -240 -47v75q30 18 100.5 31.5t139.5 13.5q187 0 278 -85t91 -257v-317q0 -99 8 -299h-72l-14 109h-4q-47 -54 -134 -94t-171 -40q-137 0 -220.5 73t-83.5 220zM715 193v233
q-75 28 -134.5 39.5t-162.5 11.5q-109 0 -170.5 -54.5t-61.5 -154.5q0 -112 61 -166.5t161 -54.5q109 0 181 43t126 103zM634 1124l-184 277h-4l-191 -277h-77l221 349h96l217 -349h-78zM659 1406q75 6 117.5 39.5t42.5 83.5q0 41 -33 65.5t-88 24.5q-45 0 -121 -24v63
q63 23 133 23q79 0 126.5 -43t47.5 -111q0 -59 -41.5 -103t-103.5 -59l-12 -76h-54z" />
    <glyph glyph-name="uni1EAA" unicode="&#x1eaa;" horiz-adv-x="1260" 
d="M39 0l547 1337h86l549 -1337h-97l-192 475h-606l-191 -475h-96zM899 555l-51 129q-167 415 -215 549h-4q-41 -114 -135 -339q-29 -69 -138 -339h543zM806 1409l-174 184h-4l-184 -184h-95l220 248h114l219 -248h-96zM480 1805q-39 0 -59.5 -27.5t-20.5 -74.5h-72v6
q0 70 37.5 120t120.5 50q46 0 83 -15.5t84 -44.5q38 -23 63.5 -34.5t52.5 -11.5q38 0 59.5 29.5t21.5 72.5h74v-10q0 -69 -36 -115.5t-126 -46.5q-46 0 -82.5 14.5t-86.5 43.5q-39 23 -63 33.5t-50 10.5z" />
    <glyph glyph-name="uni1EAB" unicode="&#x1eab;" horiz-adv-x="973" 
d="M104 268q0 127 90.5 205t233.5 78q135 0 287 -55v120q0 133 -69 201t-220 68q-99 0 -240 -47v75q30 18 100.5 31.5t139.5 13.5q187 0 278 -85t91 -257v-317q0 -99 8 -299h-72l-14 109h-4q-47 -54 -134 -94t-171 -40q-137 0 -220.5 73t-83.5 220zM715 193v233
q-75 28 -134.5 39.5t-162.5 11.5q-109 0 -170.5 -54.5t-61.5 -154.5q0 -112 61 -166.5t161 -54.5q109 0 181 43t126 103zM634 1124l-184 277h-4l-191 -277h-77l221 349h96l217 -349h-78zM300 1608q-39 0 -59.5 -27.5t-20.5 -74.5h-72v6q0 70 37.5 120t120.5 50
q46 0 83 -15.5t84 -44.5q38 -23 63.5 -34.5t52.5 -11.5q38 0 59.5 29.5t21.5 72.5h74v-10q0 -69 -36 -115.5t-126 -46.5q-46 0 -82.5 14.5t-86.5 43.5q-39 23 -63 33.5t-50 10.5z" />
    <glyph glyph-name="uni1EAC" unicode="&#x1eac;" horiz-adv-x="1260" 
d="M39 0l547 1337h86l549 -1337h-97l-192 475h-606l-191 -475h-96zM899 555l-51 129q-167 415 -215 549h-4q-41 -114 -135 -339q-29 -69 -138 -339h543zM353 1409l219 248h114l220 -248h-95l-184 184h-4l-174 -184h-96zM544 -270v129h123v-129h-123z" />
    <glyph glyph-name="uni1EAD" unicode="&#x1ead;" horiz-adv-x="973" 
d="M104 268q0 127 90.5 205t233.5 78q135 0 287 -55v120q0 133 -69 201t-220 68q-99 0 -240 -47v75q30 18 100.5 31.5t139.5 13.5q187 0 278 -85t91 -257v-317q0 -99 8 -299h-72l-14 109h-4q-47 -54 -134 -94t-171 -40q-137 0 -220.5 73t-83.5 220zM715 193v233
q-75 28 -134.5 39.5t-162.5 11.5q-109 0 -170.5 -54.5t-61.5 -154.5q0 -112 61 -166.5t161 -54.5q109 0 181 43t126 103zM203 1124l217 349h96l221 -349h-77l-191 277h-4l-184 -277h-78zM348 -270v129h123v-129h-123z" />
    <glyph glyph-name="uni1EAE" unicode="&#x1eae;" horiz-adv-x="1260" 
d="M39 0l547 1337h86l549 -1337h-97l-192 475h-606l-191 -475h-96zM899 555l-51 129q-167 415 -215 549h-4q-41 -114 -135 -339q-29 -69 -138 -339h543zM340 1659h72q13 -87 73 -130.5t134 -43.5q83 0 140.5 47.5t68.5 126.5h72q-12 -110 -90.5 -177t-190.5 -67t-190 67.5
t-89 176.5zM551 1659l158 248h106l-172 -248h-92z" />
    <glyph glyph-name="uni1EAF" unicode="&#x1eaf;" horiz-adv-x="973" 
d="M104 268q0 127 90.5 205t233.5 78q135 0 287 -55v120q0 133 -69 201t-220 68q-99 0 -240 -47v75q30 18 100.5 31.5t139.5 13.5q187 0 278 -85t91 -257v-317q0 -99 8 -299h-72l-14 109h-4q-47 -54 -134 -94t-171 -40q-137 0 -220.5 73t-83.5 220zM715 193v233
q-75 28 -134.5 39.5t-162.5 11.5q-109 0 -170.5 -54.5t-61.5 -154.5q0 -112 61 -166.5t161 -54.5q109 0 181 43t126 103zM189 1436h71q13 -101 69.5 -144t133.5 -43t135.5 43.5t69.5 143.5h72q-12 -118 -87.5 -187t-189.5 -69t-189 69.5t-85 186.5zM391 1436l158 248h106
l-172 -248h-92z" />
    <glyph glyph-name="uni1EB0" unicode="&#x1eb0;" horiz-adv-x="1260" 
d="M39 0l547 1337h86l549 -1337h-97l-192 475h-606l-191 -475h-96zM899 555l-51 129q-167 415 -215 549h-4q-41 -114 -135 -339q-29 -69 -138 -339h543zM811 1482.5q-78 -67.5 -190 -67.5t-190.5 67t-90.5 177h72q11 -79 68.5 -126.5t140.5 -47.5q74 0 134 43.5t73 130.5h72
q-11 -109 -89 -176.5zM597 1659l-172 248h106l158 -248h-92z" />
    <glyph glyph-name="uni1EB1" unicode="&#x1eb1;" horiz-adv-x="973" 
d="M104 268q0 127 90.5 205t233.5 78q135 0 287 -55v120q0 133 -69 201t-220 68q-99 0 -240 -47v75q30 18 100.5 31.5t139.5 13.5q187 0 278 -85t91 -257v-317q0 -99 8 -299h-72l-14 109h-4q-47 -54 -134 -94t-171 -40q-137 0 -220.5 73t-83.5 220zM715 193v233
q-75 28 -134.5 39.5t-162.5 11.5q-109 0 -170.5 -54.5t-61.5 -154.5q0 -112 61 -166.5t161 -54.5q109 0 181 43t126 103zM655 1249.5q-75 -69.5 -189 -69.5t-189.5 69t-87.5 187h72q11 -100 69.5 -143.5t135.5 -43.5t133.5 43t69.5 144h71q-10 -117 -85 -186.5zM446 1436
l-172 248h106l158 -248h-92z" />
    <glyph glyph-name="uni1EB2" unicode="&#x1eb2;" horiz-adv-x="1260" 
d="M39 0l547 1337h86l549 -1337h-97l-192 475h-606l-191 -475h-96zM899 555l-51 129q-167 415 -215 549h-4q-41 -114 -135 -339q-29 -69 -138 -339h543zM811 1482.5q-78 -67.5 -190 -67.5t-190.5 67t-90.5 177h72q11 -79 68.5 -126.5t140.5 -47.5q74 0 134 43.5t73 130.5h72
q-11 -109 -89 -176.5zM574 1728q75 6 117.5 39.5t42.5 83.5q0 41 -33 65.5t-88 24.5q-45 0 -121 -24v63q63 23 133 23q79 0 126.5 -43t47.5 -111q0 -59 -41.5 -103t-103.5 -59l-12 -76h-54z" />
    <glyph glyph-name="uni1EB3" unicode="&#x1eb3;" horiz-adv-x="973" 
d="M104 268q0 127 90.5 205t233.5 78q135 0 287 -55v120q0 133 -69 201t-220 68q-99 0 -240 -47v75q30 18 100.5 31.5t139.5 13.5q187 0 278 -85t91 -257v-317q0 -99 8 -299h-72l-14 109h-4q-47 -54 -134 -94t-171 -40q-137 0 -220.5 73t-83.5 220zM715 193v233
q-75 28 -134.5 39.5t-162.5 11.5q-109 0 -170.5 -54.5t-61.5 -154.5q0 -112 61 -166.5t161 -54.5q109 0 181 43t126 103zM655 1249.5q-75 -69.5 -189 -69.5t-189.5 69t-87.5 187h72q11 -100 69.5 -143.5t135.5 -43.5t133.5 43t69.5 144h71q-10 -117 -85 -186.5zM414 1508
q75 6 117.5 39.5t42.5 83.5q0 41 -33 65.5t-88 24.5q-45 0 -121 -24v63q63 23 133 23q79 0 126.5 -43t47.5 -111q0 -59 -41.5 -103t-103.5 -59l-12 -76h-54z" />
    <glyph glyph-name="uni1EB4" unicode="&#x1eb4;" horiz-adv-x="1260" 
d="M39 0l547 1337h86l549 -1337h-97l-192 475h-606l-191 -475h-96zM899 555l-51 129q-167 415 -215 549h-4q-41 -114 -135 -339q-29 -69 -138 -339h543zM811 1482.5q-78 -67.5 -190 -67.5t-190.5 67t-90.5 177h72q11 -79 68.5 -126.5t140.5 -47.5q74 0 134 43.5t73 130.5h72
q-11 -109 -89 -176.5zM480 1805q-39 0 -59.5 -27.5t-20.5 -74.5h-72v6q0 70 37.5 120t120.5 50q46 0 83 -15.5t84 -44.5q38 -23 63.5 -32.5t52.5 -9.5q38 0 59.5 27.5t21.5 70.5h74v-10q0 -69 -36 -115.5t-126 -46.5q-46 0 -82.5 14.5t-86.5 43.5q-39 23 -63 33.5t-50 10.5z
" />
    <glyph glyph-name="uni1EB5" unicode="&#x1eb5;" horiz-adv-x="973" 
d="M104 268q0 127 90.5 205t233.5 78q135 0 287 -55v120q0 133 -69 201t-220 68q-99 0 -240 -47v75q30 18 100.5 31.5t139.5 13.5q187 0 278 -85t91 -257v-317q0 -99 8 -299h-72l-14 109h-4q-47 -54 -134 -94t-171 -40q-137 0 -220.5 73t-83.5 220zM715 193v233
q-75 28 -134.5 39.5t-162.5 11.5q-109 0 -170.5 -54.5t-61.5 -154.5q0 -112 61 -166.5t161 -54.5q109 0 181 43t126 103zM655 1249.5q-75 -69.5 -189 -69.5t-189.5 69t-87.5 187h72q11 -100 69.5 -143.5t135.5 -43.5t133.5 43t69.5 144h71q-10 -117 -85 -186.5zM320 1608
q-39 0 -59.5 -27.5t-20.5 -74.5h-72v6q0 70 37.5 120t120.5 50q46 0 83 -15.5t84 -44.5q38 -23 63.5 -32.5t52.5 -9.5q38 0 59.5 27.5t21.5 70.5h74v-10q0 -69 -36 -115.5t-126 -46.5q-46 0 -82.5 14.5t-86.5 43.5q-39 23 -63 33.5t-50 10.5z" />
    <glyph glyph-name="uni1EB6" unicode="&#x1eb6;" horiz-adv-x="1260" 
d="M39 0l547 1337h86l549 -1337h-97l-192 475h-606l-191 -475h-96zM899 555l-51 129q-167 415 -215 549h-4q-41 -114 -135 -339q-29 -69 -138 -339h543zM348 1659h72q13 -87 73 -130.5t134 -43.5q83 0 140.5 47.5t68.5 126.5h72q-12 -110 -90.5 -177t-190.5 -67t-190 67.5
t-89 176.5zM564 -270v129h123v-129h-123z" />
    <glyph glyph-name="uni1EB7" unicode="&#x1eb7;" horiz-adv-x="973" 
d="M104 268q0 127 90.5 205t233.5 78q135 0 287 -55v120q0 133 -69 201t-220 68q-99 0 -240 -47v75q30 18 100.5 31.5t139.5 13.5q187 0 278 -85t91 -257v-317q0 -99 8 -299h-72l-14 109h-4q-47 -54 -134 -94t-171 -40q-137 0 -220.5 73t-83.5 220zM715 193v233
q-75 28 -134.5 39.5t-162.5 11.5q-109 0 -170.5 -54.5t-61.5 -154.5q0 -112 61 -166.5t161 -54.5q109 0 181 43t126 103zM195 1436h71q13 -101 69.5 -144t133.5 -43t135.5 43.5t69.5 143.5h72q-12 -118 -87.5 -187t-189.5 -69t-189 69.5t-85 186.5zM348 -270v129h123v-129
h-123z" />
    <glyph glyph-name="uni1EB8" unicode="&#x1eb8;" horiz-adv-x="1098" 
d="M178 1337h762v-80h-674v-532h617v-80h-617v-565h713v-80h-801v1337zM529 -141h92v-97h-92v97z" />
    <glyph glyph-name="uni1EB9" unicode="&#x1eb9;" horiz-adv-x="991" 
d="M109 477q0 146 51 255t140 167.5t200 58.5q164 0 262 -107.5t98 -338.5v-35h-667q0 -221 97 -324.5t273 -103.5q150 0 264 53v-75q-93 -52 -264 -52q-218 0 -336 131t-118 371zM500 887q-124 0 -209 -94.5t-96 -243.5h583q-3 166 -73 252t-205 86zM461 -141h92v-97h-92
v97z" />
    <glyph glyph-name="uni1EBA" unicode="&#x1eba;" horiz-adv-x="1098" 
d="M178 1337h762v-80h-674v-532h617v-80h-617v-565h713v-80h-801v1337zM529 1526q75 6 117.5 39.5t42.5 83.5q0 41 -33 65.5t-88 24.5q-45 0 -121 -24v63q63 23 133 23q79 0 126.5 -43t47.5 -111q0 -59 -41.5 -103t-103.5 -59l-12 -76h-54z" />
    <glyph glyph-name="uni1EBB" unicode="&#x1ebb;" horiz-adv-x="991" 
d="M109 477q0 146 51 255t140 167.5t200 58.5q164 0 262 -107.5t98 -338.5v-35h-667q0 -221 97 -324.5t273 -103.5q150 0 264 53v-75q-93 -52 -264 -52q-218 0 -336 131t-118 371zM500 887q-124 0 -209 -94.5t-96 -243.5h583q-3 166 -73 252t-205 86zM479 1247
q75 6 117.5 39.5t42.5 83.5q0 41 -33 65.5t-88 24.5q-45 0 -121 -24v63q63 23 133 23q79 0 126.5 -43t47.5 -111q0 -59 -41.5 -103t-103.5 -59l-12 -76h-54z" />
    <glyph glyph-name="uni1EBC" unicode="&#x1ebc;" horiz-adv-x="1098" 
d="M178 1337h762v-80h-674v-532h617v-80h-617v-565h713v-80h-801v1337zM460 1548q-39 0 -59.5 -27.5t-20.5 -74.5h-72v6q0 70 37.5 120t120.5 50q46 0 83 -15.5t84 -44.5q38 -23 63.5 -34.5t52.5 -11.5q38 0 59.5 29.5t21.5 72.5h74v-10q0 -69 -36 -115.5t-126 -46.5
q-46 0 -82.5 14.5t-86.5 43.5q-39 23 -63 33.5t-50 10.5z" />
    <glyph glyph-name="uni1EBD" unicode="&#x1ebd;" horiz-adv-x="991" 
d="M109 477q0 146 51 255t140 167.5t200 58.5q164 0 262 -107.5t98 -338.5v-35h-667q0 -221 97 -324.5t273 -103.5q150 0 264 53v-75q-93 -52 -264 -52q-218 0 -336 131t-118 371zM500 887q-124 0 -209 -94.5t-96 -243.5h583q-3 166 -73 252t-205 86zM369 1300
q-41 0 -64.5 -27.5t-23.5 -80.5h-68v6q0 70 37.5 120t120.5 50q43 0 80.5 -17t88.5 -49q38 -25 62.5 -37t48.5 -12q46 0 67 32t21 79h70v-10q0 -70 -35 -118t-125 -48q-44 0 -82.5 17t-87.5 48q-38 24 -62.5 35.5t-47.5 11.5z" />
    <glyph glyph-name="uni1EBE" unicode="&#x1ebe;" horiz-adv-x="1098" 
d="M178 1337h762v-80h-674v-532h617v-80h-617v-565h713v-80h-801v1337zM307 1409l219 248h114l220 -248h-95l-184 184h-4l-174 -184h-96zM783 1557l158 248h106l-172 -248h-92z" />
    <glyph glyph-name="uni1EBF" unicode="&#x1ebf;" horiz-adv-x="991" 
d="M109 477q0 146 51 255t140 167.5t200 58.5q164 0 262 -107.5t98 -338.5v-35h-667q0 -221 97 -324.5t273 -103.5q150 0 264 53v-75q-93 -52 -264 -52q-218 0 -336 131t-118 371zM500 887q-124 0 -209 -94.5t-96 -243.5h583q-3 166 -73 252t-205 86zM219 1124l217 349h96
l221 -349h-77l-191 277h-4l-184 -277h-78zM699 1293l115 248h106l-149 -248h-72z" />
    <glyph glyph-name="uni1EC0" unicode="&#x1ec0;" horiz-adv-x="1098" 
d="M178 1337h762v-80h-674v-532h617v-80h-617v-565h713v-80h-801v1337zM766 1409l-174 184h-4l-184 -184h-95l220 248h114l219 -248h-96zM294 1557l-172 248h106l158 -248h-92z" />
    <glyph glyph-name="uni1EC1" unicode="&#x1ec1;" horiz-adv-x="991" 
d="M109 477q0 146 51 255t140 167.5t200 58.5q164 0 262 -107.5t98 -338.5v-35h-667q0 -221 97 -324.5t273 -103.5q150 0 264 53v-75q-93 -52 -264 -52q-218 0 -336 131t-118 371zM500 887q-124 0 -209 -94.5t-96 -243.5h583q-3 166 -73 252t-205 86zM674 1124l-184 277h-4
l-191 -277h-77l221 349h96l217 -349h-78zM200 1293l-149 248h106l115 -248h-72z" />
    <glyph glyph-name="uni1EC2" unicode="&#x1ec2;" horiz-adv-x="1098" 
d="M178 1337h762v-80h-674v-532h617v-80h-617v-565h713v-80h-801v1337zM766 1409l-174 184h-4l-184 -184h-95l220 248h114l219 -248h-96zM809 1636q75 6 117.5 39.5t42.5 83.5q0 41 -33 65.5t-88 24.5q-45 0 -121 -24v63q63 23 133 23q79 0 126.5 -43t47.5 -111
q0 -59 -41.5 -103t-103.5 -59l-12 -76h-54z" />
    <glyph glyph-name="uni1EC3" unicode="&#x1ec3;" horiz-adv-x="991" 
d="M109 477q0 146 51 255t140 167.5t200 58.5q164 0 262 -107.5t98 -338.5v-35h-667q0 -221 97 -324.5t273 -103.5q150 0 264 53v-75q-93 -52 -264 -52q-218 0 -336 131t-118 371zM500 887q-124 0 -209 -94.5t-96 -243.5h583q-3 166 -73 252t-205 86zM694 1124l-184 277h-4
l-191 -277h-77l221 349h96l217 -349h-78zM719 1406q75 6 117.5 39.5t42.5 83.5q0 41 -33 65.5t-88 24.5q-45 0 -121 -24v63q63 23 133 23q79 0 126.5 -43t47.5 -111q0 -59 -41.5 -103t-103.5 -59l-12 -76h-54z" />
    <glyph glyph-name="uni1EC4" unicode="&#x1ec4;" horiz-adv-x="1098" 
d="M178 1337h762v-80h-674v-532h617v-80h-617v-565h713v-80h-801v1337zM766 1409l-174 184h-4l-184 -184h-95l220 248h114l219 -248h-96zM440 1805q-39 0 -59.5 -27.5t-20.5 -74.5h-72v6q0 70 37.5 120t120.5 50q46 0 83 -15.5t84 -44.5q38 -23 63.5 -34.5t52.5 -11.5
q38 0 59.5 29.5t21.5 72.5h74v-10q0 -69 -36 -115.5t-126 -46.5q-46 0 -82.5 14.5t-86.5 43.5q-39 23 -63 33.5t-50 10.5z" />
    <glyph glyph-name="uni1EC5" unicode="&#x1ec5;" horiz-adv-x="991" 
d="M109 477q0 146 51 255t140 167.5t200 58.5q164 0 262 -107.5t98 -338.5v-35h-667q0 -221 97 -324.5t273 -103.5q150 0 264 53v-75q-93 -52 -264 -52q-218 0 -336 131t-118 371zM500 887q-124 0 -209 -94.5t-96 -243.5h583q-3 166 -73 252t-205 86zM694 1124l-184 277h-4
l-191 -277h-77l221 349h96l217 -349h-78zM360 1608q-39 0 -59.5 -27.5t-20.5 -74.5h-72v6q0 70 37.5 120t120.5 50q46 0 83 -15.5t84 -44.5q38 -23 63.5 -34.5t52.5 -11.5q38 0 59.5 29.5t21.5 72.5h74v-10q0 -69 -36 -115.5t-126 -46.5q-46 0 -82.5 14.5t-86.5 43.5
q-39 23 -63 33.5t-50 10.5z" />
    <glyph glyph-name="uni1EC6" unicode="&#x1ec6;" horiz-adv-x="1098" 
d="M178 1337h762v-80h-674v-532h617v-80h-617v-565h713v-80h-801v1337zM279 1409l219 248h114l220 -248h-95l-184 184h-4l-174 -184h-96zM504 -270v129h123v-129h-123z" />
    <glyph glyph-name="uni1EC7" unicode="&#x1ec7;" horiz-adv-x="991" 
d="M109 477q0 146 51 255t140 167.5t200 58.5q164 0 262 -107.5t98 -338.5v-35h-667q0 -221 97 -324.5t273 -103.5q150 0 264 53v-75q-93 -52 -264 -52q-218 0 -336 131t-118 371zM500 887q-124 0 -209 -94.5t-96 -243.5h583q-3 166 -73 252t-205 86zM242 1124l217 349h96
l221 -349h-77l-191 277h-4l-184 -277h-78zM464 -270v129h123v-129h-123z" />
    <glyph glyph-name="uni1EC8" unicode="&#x1ec8;" horiz-adv-x="444" 
d="M178 1337h88v-1337h-88v1337zM189 1526q75 6 117.5 39.5t42.5 83.5q0 41 -33 65.5t-88 24.5q-45 0 -121 -24v63q63 23 133 23q79 0 126.5 -43t47.5 -111q0 -59 -41.5 -103t-103.5 -59l-12 -76h-54z" />
    <glyph glyph-name="uni1EC9" unicode="&#x1ec9;" horiz-adv-x="436" 
d="M178 0v934h80v-934h-80zM189 1247q75 6 117.5 39.5t42.5 83.5q0 41 -33 65.5t-88 24.5q-45 0 -121 -24v63q63 23 133 23q79 0 126.5 -43t47.5 -111q0 -59 -41.5 -103t-103.5 -59l-12 -76h-54z" />
    <glyph glyph-name="uni1ECA" unicode="&#x1eca;" horiz-adv-x="444" 
d="M178 1337h88v-1337h-88v1337zM177 -141h92v-97h-92v97z" />
    <glyph glyph-name="uni1ECB" unicode="&#x1ecb;" horiz-adv-x="436" 
d="M172 1249h92v-96h-92v96zM178 934h80v-934h-80v934zM173 -141h92v-97h-92v97z" />
    <glyph glyph-name="uni1ECC" unicode="&#x1ecc;" horiz-adv-x="1487" 
d="M137 668q0 199 77.5 358t215.5 248.5t313 89.5q183 0 320.5 -89.5t212 -247.5t74.5 -359q0 -198 -77 -356t-214.5 -247.5t-310.5 -89.5q-185 0 -323.5 89t-213 246.5t-74.5 357.5zM1255 668q0 192 -68 331.5t-184.5 212t-259.5 72.5q-141 0 -258 -72.5t-185.5 -212
t-68.5 -331.5q0 -194 69 -332.5t186.5 -209.5t261.5 -71q141 0 256 71t183 209.5t68 332.5zM703 -141h92v-97h-92v97z" />
    <glyph glyph-name="uni1ECD" unicode="&#x1ecd;" horiz-adv-x="1053" 
d="M109 465q0 224 114.5 358.5t304.5 134.5q191 0 303.5 -134t112.5 -359q0 -219 -115 -354.5t-301 -135.5q-191 0 -305 133.5t-114 356.5zM860 465q0 193 -90 306.5t-242 113.5q-154 0 -244.5 -113t-90.5 -307q0 -192 89.5 -304t245.5 -112q154 0 243 111.5t89 304.5z
M482 -141h92v-97h-92v97z" />
    <glyph glyph-name="uni1ECE" unicode="&#x1ece;" horiz-adv-x="1487" 
d="M137 668q0 199 77.5 358t215.5 248.5t313 89.5q183 0 320.5 -89.5t212 -247.5t74.5 -359q0 -198 -77 -356t-214.5 -247.5t-310.5 -89.5q-185 0 -323.5 89t-213 246.5t-74.5 357.5zM1255 668q0 192 -68 331.5t-184.5 212t-259.5 72.5q-141 0 -258 -72.5t-185.5 -212
t-68.5 -331.5q0 -194 69 -332.5t186.5 -209.5t261.5 -71q141 0 256 71t183 209.5t68 332.5zM709 1526q75 6 117.5 39.5t42.5 83.5q0 41 -33 65.5t-88 24.5q-45 0 -121 -24v63q63 23 133 23q79 0 126.5 -43t47.5 -111q0 -59 -41.5 -103t-103.5 -59l-12 -76h-54z" />
    <glyph glyph-name="uni1ECF" unicode="&#x1ecf;" horiz-adv-x="1053" 
d="M109 465q0 224 114.5 358.5t304.5 134.5q191 0 303.5 -134t112.5 -359q0 -219 -115 -354.5t-301 -135.5q-191 0 -305 133.5t-114 356.5zM860 465q0 193 -90 306.5t-242 113.5q-154 0 -244.5 -113t-90.5 -307q0 -192 89.5 -304t245.5 -112q154 0 243 111.5t89 304.5z
M489 1247q75 6 117.5 39.5t42.5 83.5q0 41 -33 65.5t-88 24.5q-45 0 -121 -24v63q63 23 133 23q79 0 126.5 -43t47.5 -111q0 -59 -41.5 -103t-103.5 -59l-12 -76h-54z" />
    <glyph glyph-name="uni1ED0" unicode="&#x1ed0;" horiz-adv-x="1487" 
d="M137 668q0 199 77.5 358t215.5 248.5t313 89.5q183 0 320.5 -89.5t212 -247.5t74.5 -359q0 -198 -77 -356t-214.5 -247.5t-310.5 -89.5q-185 0 -323.5 89t-213 246.5t-74.5 357.5zM1255 668q0 192 -68 331.5t-184.5 212t-259.5 72.5q-141 0 -258 -72.5t-185.5 -212
t-68.5 -331.5q0 -194 69 -332.5t186.5 -209.5t261.5 -71q141 0 256 71t183 209.5t68 332.5zM467 1409l219 248h114l220 -248h-95l-184 184h-4l-174 -184h-96zM943 1557l158 248h106l-172 -248h-92z" />
    <glyph glyph-name="uni1ED1" unicode="&#x1ed1;" horiz-adv-x="1053" 
d="M109 465q0 224 114.5 358.5t304.5 134.5q191 0 303.5 -134t112.5 -359q0 -219 -115 -354.5t-301 -135.5q-191 0 -305 133.5t-114 356.5zM860 465q0 193 -90 306.5t-242 113.5q-154 0 -244.5 -113t-90.5 -307q0 -192 89.5 -304t245.5 -112q154 0 243 111.5t89 304.5z
M262 1124l217 349h96l221 -349h-77l-191 277h-4l-184 -277h-78zM742 1293l115 248h106l-149 -248h-72z" />
    <glyph glyph-name="uni1ED2" unicode="&#x1ed2;" horiz-adv-x="1487" 
d="M137 668q0 199 77.5 358t215.5 248.5t313 89.5q183 0 320.5 -89.5t212 -247.5t74.5 -359q0 -198 -77 -356t-214.5 -247.5t-310.5 -89.5q-185 0 -323.5 89t-213 246.5t-74.5 357.5zM1255 668q0 192 -68 331.5t-184.5 212t-259.5 72.5q-141 0 -258 -72.5t-185.5 -212
t-68.5 -331.5q0 -194 69 -332.5t186.5 -209.5t261.5 -71q141 0 256 71t183 209.5t68 332.5zM926 1409l-174 184h-4l-184 -184h-95l220 248h114l219 -248h-96zM454 1557l-172 248h106l158 -248h-92z" />
    <glyph glyph-name="uni1ED3" unicode="&#x1ed3;" horiz-adv-x="1053" 
d="M109 465q0 224 114.5 358.5t304.5 134.5q191 0 303.5 -134t112.5 -359q0 -219 -115 -354.5t-301 -135.5q-191 0 -305 133.5t-114 356.5zM860 465q0 193 -90 306.5t-242 113.5q-154 0 -244.5 -113t-90.5 -307q0 -192 89.5 -304t245.5 -112q154 0 243 111.5t89 304.5z
M717 1124l-184 277h-4l-191 -277h-77l221 349h96l217 -349h-78zM243 1293l-149 248h106l115 -248h-72z" />
    <glyph glyph-name="uni1ED4" unicode="&#x1ed4;" horiz-adv-x="1487" 
d="M137 668q0 199 77.5 358t215.5 248.5t313 89.5q183 0 320.5 -89.5t212 -247.5t74.5 -359q0 -198 -77 -356t-214.5 -247.5t-310.5 -89.5q-185 0 -323.5 89t-213 246.5t-74.5 357.5zM1255 668q0 192 -68 331.5t-184.5 212t-259.5 72.5q-141 0 -258 -72.5t-185.5 -212
t-68.5 -331.5q0 -194 69 -332.5t186.5 -209.5t261.5 -71q141 0 256 71t183 209.5t68 332.5zM926 1409l-174 184h-4l-184 -184h-95l220 248h114l219 -248h-96zM969 1636q75 6 117.5 39.5t42.5 83.5q0 41 -33 65.5t-88 24.5q-45 0 -121 -24v63q63 23 133 23q79 0 126.5 -43
t47.5 -111q0 -59 -41.5 -103t-103.5 -59l-12 -76h-54z" />
    </font>
</defs>
</svg>
